M48
; DRILL file {KiCad 5.1.7-a382d34a8~88~ubuntu18.04.1} date Fri Apr  8 16:19:27 2022
; FORMAT={-:-/ absolute / inch / decimal}
; #@! TF.CreationDate,2022-04-08T16:19:27-07:00
; #@! TF.GenerationSoftware,Kicad,Pcbnew,5.1.7-a382d34a8~88~ubuntu18.04.1
; #@! TF.FileFunction,Plated,1,2,PTH
FMAT,2
INCH
T1C0.0315
T2C0.0320
T3C0.0400
T4C0.0429
T5C0.0598
T6C0.1260
%
G90
G05
T1
X3.09Y-2.779
X3.39Y-2.779
X4.383Y-1.879
X4.383Y-2.179
X3.393Y-1.811
X3.393Y-2.111
X4.103Y-1.668
X4.103Y-1.968
X3.63Y-1.475
X3.63Y-1.575
X3.63Y-1.675
X3.63Y-1.775
X3.63Y-1.875
X3.63Y-1.975
X3.63Y-2.075
X3.63Y-2.175
X3.93Y-1.475
X3.93Y-1.575
X3.93Y-1.675
X3.93Y-1.775
X3.93Y-1.875
X3.93Y-1.975
X3.93Y-2.075
X3.93Y-2.175
X3.178Y-1.526
X3.478Y-1.526
X1.758Y-1.569
X1.758Y-1.869
X2.3774Y-3.985
X2.3774Y-4.085
X2.3774Y-4.185
X2.3774Y-4.285
X2.3774Y-4.385
X2.3774Y-4.485
X2.3774Y-4.585
X2.6774Y-3.985
X2.6774Y-4.085
X2.6774Y-4.185
X2.6774Y-4.285
X2.6774Y-4.385
X2.6774Y-4.485
X2.6774Y-4.585
X2.193Y-1.573
X2.193Y-1.873
X2.293Y-1.573
X2.293Y-1.873
X2.393Y-1.573
X2.393Y-1.873
X2.493Y-1.573
X2.493Y-1.873
X2.593Y-1.573
X2.593Y-1.873
X2.693Y-1.573
X2.693Y-1.873
X2.793Y-1.573
X2.793Y-1.873
X2.893Y-1.573
X2.893Y-1.873
X3.225Y-1.815
X3.225Y-2.115
X1.941Y-1.569
X1.941Y-1.869
T2
X1.188Y-3.096
X1.192Y-2.931
X1.453Y-2.558
X1.533Y-2.464
X1.591Y-4.521
X1.595Y-3.377
X1.737Y-2.464
X1.739Y-2.556
X1.748Y-4.52
X1.784Y-3.379
X2.141Y-4.323
X2.147Y-4.443
X2.181Y-2.131
X2.194Y-2.005
X2.212Y-2.365
X2.283Y-2.131
X2.292Y-1.998
X2.307Y-2.777
X2.423Y-2.363
X2.4805Y-4.3175
X2.528Y-2.784
X2.531Y-1.991
X2.533Y-2.247
X2.592Y-4.351
X2.617Y-1.994
X2.617Y-2.249
X2.7224Y-2.2496
X2.724Y-1.993
X2.822Y-4.512
X2.822Y-4.637
X2.983Y-2.027
X2.991Y-2.23
X3.007Y-3.393
X3.009Y-3.225
X3.309Y-4.294
X3.417Y-2.455
X3.418Y-2.402
X3.42Y-2.519
X3.45Y-4.288
X3.528Y-2.519
X3.578Y-2.456
X3.595Y-3.358
X3.602Y-3.459
X3.625Y-3.921
X3.626Y-3.748
X3.637Y-2.403
X3.688Y-3.535
X3.69Y-3.344
X3.704Y-4.578
X3.732Y-4.385
X3.751Y-1.742
X3.751Y-1.947
X3.799Y-2.329
X3.801Y-2.179
X3.971Y-4.594
X3.974Y-3.072
X3.977Y-4.51
X4.107Y-4.594
X4.11Y-4.51
X4.15Y-3.078
T3
X2.227Y-2.582
X2.227Y-2.682
X2.227Y-2.782
X2.227Y-2.882
X2.227Y-2.982
X2.227Y-3.082
X2.227Y-3.182
X2.227Y-3.282
X2.227Y-3.382
X2.227Y-3.482
X2.227Y-3.582
X2.227Y-3.682
X2.827Y-2.582
X2.827Y-2.682
X2.827Y-2.782
X2.827Y-2.882
X2.827Y-2.982
X2.827Y-3.082
X2.827Y-3.182
X2.827Y-3.282
X2.827Y-3.382
X2.827Y-3.482
X2.827Y-3.582
X2.827Y-3.682
T4
X1.374Y-3.209
X1.374Y-3.309
X1.374Y-3.409
X1.374Y-3.509
X1.374Y-3.609
X1.374Y-3.709
X3.874Y-3.209
X3.874Y-3.309
X3.874Y-3.409
X3.874Y-3.509
X3.874Y-3.609
X3.874Y-3.709
X3.295Y-4.4095
X3.395Y-4.4095
X3.295Y-4.03
X3.395Y-4.03
X3.241Y-3.043
X3.241Y-3.143
X3.241Y-3.243
X1.795Y-4.789
X1.895Y-4.789
X3.382Y-3.561
X3.382Y-3.661
X1.917Y-2.836
X1.917Y-2.936
X1.917Y-3.036
X1.917Y-3.136
X1.795Y-4.03
X1.895Y-4.03
X3.295Y-4.789
X3.395Y-4.789
X1.915Y-3.431
X1.915Y-3.531
X1.915Y-3.631
X3.861Y-4.08
X3.861Y-4.18
X3.861Y-4.28
X3.861Y-4.38
X3.861Y-4.48
X3.861Y-4.58
X1.795Y-4.4095
X1.895Y-4.4095
X1.371Y-4.016
X1.371Y-4.116
X1.371Y-4.216
X1.371Y-4.316
X1.371Y-4.416
X1.371Y-4.516
T5
X4.322Y-4.111
X4.322Y-4.311
X0.874Y-4.028
X0.874Y-4.228
T6
X4.394Y-4.75
X0.901Y-1.625
X0.906Y-4.75
X4.394Y-1.625
T0
M30
