M48
; DRILL file {KiCad 5.1.7-a382d34a8~88~ubuntu18.04.1} date Sun Nov  7 07:54:09 2021
; FORMAT={-:-/ absolute / inch / decimal}
; #@! TF.CreationDate,2021-11-07T07:54:09-08:00
; #@! TF.GenerationSoftware,Kicad,Pcbnew,5.1.7-a382d34a8~88~ubuntu18.04.1
; #@! TF.FileFunction,Plated,1,2,PTH
FMAT,2
INCH
T1C0.0320
T2C0.0429
T3C0.0598
T4C0.1260
%
G90
G05
T1
X4.659Y-3.138
X4.688Y-2.931
X4.955Y-3.3
X5.127Y-3.472
X5.246Y-2.804
X5.523Y-2.806
X5.717Y-2.932
X5.786Y-3.037
T2
X5.512Y-3.46
X5.512Y-3.56
X5.512Y-3.66
X4.484Y-3.0545
X4.484Y-3.1545
X4.908Y-3.46
X4.908Y-3.56
X4.908Y-3.66
X5.871Y-3.0045
X5.871Y-3.1045
X5.871Y-3.2045
X5.4485Y-3.0545
X5.4485Y-3.1545
X4.484Y-2.597
X4.484Y-2.697
X4.4249Y-3.512
X4.4249Y-3.612
X4.812Y-2.528
X4.912Y-2.528
X5.012Y-2.528
X5.112Y-2.528
X5.212Y-2.528
X5.312Y-2.528
X4.967Y-3.0545
X4.967Y-3.1545
X5.915Y-2.0375
X6.015Y-2.0375
X5.724Y-2.527
X5.824Y-2.527
X5.924Y-2.527
X6.024Y-2.527
X6.124Y-2.527
X6.224Y-2.527
T3
X4.843Y-2.067
X5.043Y-2.067
T4
X4.1336Y-3.6668
X6.2586Y-3.6668
X4.1336Y-1.9168
X6.2586Y-1.9168
T0
M30
