M48
; DRILL file {KiCad 5.1.7-a382d34a8~88~ubuntu18.04.1} date Thu Nov  4 18:00:47 2021
; FORMAT={-:-/ absolute / inch / decimal}
; #@! TF.CreationDate,2021-11-04T18:00:47-07:00
; #@! TF.GenerationSoftware,Kicad,Pcbnew,5.1.7-a382d34a8~88~ubuntu18.04.1
; #@! TF.FileFunction,Plated,1,2,PTH
FMAT,2
INCH
T1C0.0160
T2C0.0429
T3C0.0598
T4C0.1260
%
G90
G05
T1
X4.639Y-2.317
X4.645Y-2.166
X4.876Y-2.472
X4.908Y-3.362
X4.995Y-2.55
X5.058Y-2.724
X5.058Y-2.862
X5.127Y-3.364
X5.422Y-2.695
X5.464Y-2.801
T2
X4.486Y-2.238
X4.486Y-2.338
X4.43Y-2.693
X4.43Y-2.793
X4.878Y-2.693
X4.878Y-2.793
X5.86Y-3.221
X5.86Y-3.321
X4.821Y-3.163
X4.821Y-3.263
X4.821Y-3.363
X4.858Y-2.192
X4.958Y-2.192
X5.058Y-2.192
X5.158Y-2.192
X5.258Y-2.192
X5.358Y-2.192
X5.458Y-2.192
X5.558Y-2.192
X5.658Y-2.192
X5.758Y-2.192
X5.858Y-2.192
X5.958Y-2.192
X5.645Y-2.643
X5.645Y-2.743
X5.645Y-2.843
X5.228Y-3.163
X5.228Y-3.263
X5.228Y-3.363
X4.368Y-3.213
X4.368Y-3.313
X5.287Y-2.693
X5.287Y-2.793
T3
X6.254Y-3.143
X6.254Y-3.343
X6.257Y-2.532
X6.257Y-2.732
T4
X4.1336Y-3.6668
X4.1336Y-1.9168
X6.2586Y-3.6668
X6.2586Y-1.9168
T0
M30
