%TF.GenerationSoftware,KiCad,Pcbnew,5.1.7-a382d34a8~88~ubuntu18.04.1*%
%TF.CreationDate,2022-04-08T16:19:18-07:00*%
%TF.ProjectId,Kelly controller,4b656c6c-7920-4636-9f6e-74726f6c6c65,rev?*%
%TF.SameCoordinates,Original*%
%TF.FileFunction,Copper,L1,Top*%
%TF.FilePolarity,Positive*%
%FSLAX46Y46*%
G04 Gerber Fmt 4.6, Leading zero omitted, Abs format (unit mm)*
G04 Created by KiCad (PCBNEW 5.1.7-a382d34a8~88~ubuntu18.04.1) date 2022-04-08 16:19:18*
%MOMM*%
%LPD*%
G01*
G04 APERTURE LIST*
%TA.AperFunction,ComponentPad*%
%ADD10O,1.600000X2.400000*%
%TD*%
%TA.AperFunction,ComponentPad*%
%ADD11R,1.600000X2.400000*%
%TD*%
%TA.AperFunction,ComponentPad*%
%ADD12C,1.740000*%
%TD*%
%TA.AperFunction,ComponentPad*%
%ADD13O,1.600000X1.600000*%
%TD*%
%TA.AperFunction,ComponentPad*%
%ADD14C,1.600000*%
%TD*%
%TA.AperFunction,ComponentPad*%
%ADD15R,1.600000X1.600000*%
%TD*%
%TA.AperFunction,ComponentPad*%
%ADD16O,2.400000X1.600000*%
%TD*%
%TA.AperFunction,ComponentPad*%
%ADD17R,2.400000X1.600000*%
%TD*%
%TA.AperFunction,ComponentPad*%
%ADD18C,3.000000*%
%TD*%
%TA.AperFunction,ComponentPad*%
%ADD19R,3.000000X3.000000*%
%TD*%
%TA.AperFunction,ComponentPad*%
%ADD20C,1.879600*%
%TD*%
%TA.AperFunction,ComponentPad*%
%ADD21C,3.200001*%
%TD*%
%TA.AperFunction,ViaPad*%
%ADD22C,0.838200*%
%TD*%
%TA.AperFunction,Conductor*%
%ADD23C,0.508000*%
%TD*%
G04 APERTURE END LIST*
D10*
%TO.P,U1,16*%
%TO.N,+12VA*%
X73482200Y-47574200D03*
%TO.P,U1,8*%
%TO.N,GND*%
X55702200Y-39954200D03*
%TO.P,U1,15*%
%TO.N,/FWD-A*%
X70942200Y-47574200D03*
%TO.P,U1,7*%
%TO.N,Net-(U1-Pad6)*%
X58242200Y-39954200D03*
%TO.P,U1,14*%
%TO.N,12V*%
X68402200Y-47574200D03*
%TO.P,U1,6*%
%TO.N,Net-(U1-Pad6)*%
X60782200Y-39954200D03*
%TO.P,U1,13*%
%TO.N,/FWD*%
X65862200Y-47574200D03*
%TO.P,U1,5*%
%TO.N,Net-(R4-Pad1)*%
X63322200Y-39954200D03*
%TO.P,U1,12*%
%TO.N,12V*%
X63322200Y-47574200D03*
%TO.P,U1,4*%
%TO.N,GND*%
X65862200Y-39954200D03*
%TO.P,U1,11*%
%TO.N,/REV*%
X60782200Y-47574200D03*
%TO.P,U1,3*%
%TO.N,Net-(U1-Pad2)*%
X68402200Y-39954200D03*
%TO.P,U1,10*%
%TO.N,+12VA*%
X58242200Y-47574200D03*
%TO.P,U1,2*%
%TO.N,Net-(U1-Pad2)*%
X70942200Y-39954200D03*
%TO.P,U1,9*%
%TO.N,/REV-A*%
X55702200Y-47574200D03*
D11*
%TO.P,U1,1*%
%TO.N,Net-(R3-Pad1)*%
X73482200Y-39954200D03*
%TD*%
D12*
%TO.P,J3,4*%
%TO.N,Net-(B1-Pad6)*%
X48691800Y-79654400D03*
%TO.P,J3,3*%
%TO.N,Net-(B1-Pad5)*%
X48691800Y-77114400D03*
%TO.P,J3,2*%
%TO.N,5V*%
X48691800Y-74574400D03*
%TO.P,J3,1*%
%TO.N,GND*%
%TA.AperFunction,ComponentPad*%
G36*
G01*
X48071799Y-71164400D02*
X49311801Y-71164400D01*
G75*
G02*
X49561800Y-71414399I0J-249999D01*
G01*
X49561800Y-72654401D01*
G75*
G02*
X49311801Y-72904400I-249999J0D01*
G01*
X48071799Y-72904400D01*
G75*
G02*
X47821800Y-72654401I0J249999D01*
G01*
X47821800Y-71414399D01*
G75*
G02*
X48071799Y-71164400I249999J0D01*
G01*
G37*
%TD.AperFunction*%
%TD*%
D13*
%TO.P,R8,2*%
%TO.N,Net-(R8-Pad2)*%
X86106000Y-70586600D03*
D14*
%TO.P,R8,1*%
%TO.N,GND*%
X78486000Y-70586600D03*
%TD*%
D13*
%TO.P,U3,14*%
%TO.N,5V*%
X68005800Y-101219000D03*
%TO.P,U3,7*%
%TO.N,+5VA*%
X60385800Y-116459000D03*
%TO.P,U3,13*%
%TO.N,Net-(B1-Pad15)*%
X68005800Y-103759000D03*
%TO.P,U3,6*%
%TO.N,/Throttle-A*%
X60385800Y-113919000D03*
%TO.P,U3,12*%
%TO.N,5V*%
X68005800Y-106299000D03*
%TO.P,U3,5*%
%TO.N,GNDA*%
X60385800Y-111379000D03*
%TO.P,U3,11*%
%TO.N,Net-(U3-Pad11)*%
X68005800Y-108839000D03*
%TO.P,U3,4*%
%TO.N,GND*%
X60385800Y-108839000D03*
%TO.P,U3,10*%
X68005800Y-111379000D03*
%TO.P,U3,3*%
%TO.N,Net-(B1-Pad14)*%
X60385800Y-106299000D03*
%TO.P,U3,9*%
%TO.N,/Throttle*%
X68005800Y-113919000D03*
%TO.P,U3,2*%
%TO.N,Net-(B1-Pad16)*%
X60385800Y-103759000D03*
%TO.P,U3,8*%
%TO.N,5V*%
X68005800Y-116459000D03*
D15*
%TO.P,U3,1*%
%TO.N,Net-(B1-Pad13)*%
X60385800Y-101219000D03*
%TD*%
D16*
%TO.P,U2,16*%
%TO.N,/Brake-A*%
X99822000Y-37465000D03*
%TO.P,U2,8*%
%TO.N,Net-(R2-Pad1)*%
X92202000Y-55245000D03*
%TO.P,U2,15*%
%TO.N,GND*%
X99822000Y-40005000D03*
%TO.P,U2,7*%
%TO.N,/Meter-A*%
X92202000Y-52705000D03*
%TO.P,U2,14*%
%TO.N,/Brake*%
X99822000Y-42545000D03*
%TO.P,U2,6*%
%TO.N,Net-(R1-Pad1)*%
X92202000Y-50165000D03*
%TO.P,U2,13*%
%TO.N,GND*%
X99822000Y-45085000D03*
%TO.P,U2,5*%
%TO.N,/Meter*%
X92202000Y-47625000D03*
%TO.P,U2,12*%
%TO.N,/VCC*%
X99822000Y-47625000D03*
%TO.P,U2,4*%
%TO.N,GND*%
X92202000Y-45085000D03*
%TO.P,U2,11*%
%TO.N,/8-Meter*%
X99822000Y-50165000D03*
%TO.P,U2,3*%
%TO.N,Net-(U2-Pad2)*%
X92202000Y-42545000D03*
%TO.P,U2,10*%
%TO.N,/VCC*%
X99822000Y-52705000D03*
%TO.P,U2,2*%
%TO.N,Net-(U2-Pad2)*%
X92202000Y-40005000D03*
%TO.P,U2,9*%
%TO.N,/9-Meter*%
X99822000Y-55245000D03*
D17*
%TO.P,U2,1*%
%TO.N,Net-(R5-Pad1)*%
X92202000Y-37465000D03*
%TD*%
D18*
%TO.P,SW5,2*%
%TO.N,+48VA*%
X22199600Y-107391200D03*
D19*
%TO.P,SW5,1*%
%TO.N,/PWR-A*%
X22199600Y-102311200D03*
%TD*%
D12*
%TO.P,SW2,2*%
%TO.N,/10-CS*%
X85902800Y-92989400D03*
%TO.P,SW2,1*%
%TO.N,5V*%
%TA.AperFunction,ComponentPad*%
G36*
G01*
X85282799Y-89579400D02*
X86522801Y-89579400D01*
G75*
G02*
X86772800Y-89829399I0J-249999D01*
G01*
X86772800Y-91069401D01*
G75*
G02*
X86522801Y-91319400I-249999J0D01*
G01*
X85282799Y-91319400D01*
G75*
G02*
X85032800Y-91069401I0J249999D01*
G01*
X85032800Y-89829399D01*
G75*
G02*
X85282799Y-89579400I249999J0D01*
G01*
G37*
%TD.AperFunction*%
%TD*%
%TO.P,RV1,3*%
%TO.N,Net-(R8-Pad2)*%
X82321400Y-82372200D03*
%TO.P,RV1,2*%
%TO.N,Net-(B1-Pad17)*%
X82321400Y-79832200D03*
%TO.P,RV1,1*%
%TO.N,5V*%
%TA.AperFunction,ComponentPad*%
G36*
G01*
X81701399Y-76422200D02*
X82941401Y-76422200D01*
G75*
G02*
X83191400Y-76672199I0J-249999D01*
G01*
X83191400Y-77912201D01*
G75*
G02*
X82941401Y-78162200I-249999J0D01*
G01*
X81701399Y-78162200D01*
G75*
G02*
X81451400Y-77912201I0J249999D01*
G01*
X81451400Y-76672199D01*
G75*
G02*
X81701399Y-76422200I249999J0D01*
G01*
G37*
%TD.AperFunction*%
%TD*%
D13*
%TO.P,R7,2*%
%TO.N,GND*%
X111328200Y-47726600D03*
D14*
%TO.P,R7,1*%
%TO.N,/9-Meter*%
X111328200Y-55346600D03*
%TD*%
D13*
%TO.P,R6,2*%
%TO.N,GND*%
X104216200Y-42367200D03*
D14*
%TO.P,R6,1*%
%TO.N,/8-Meter*%
X104216200Y-49987200D03*
%TD*%
D13*
%TO.P,R5,2*%
%TO.N,/10-CS*%
X80721200Y-38760400D03*
D14*
%TO.P,R5,1*%
%TO.N,Net-(R5-Pad1)*%
X88341200Y-38760400D03*
%TD*%
D13*
%TO.P,R4,2*%
%TO.N,/6-Reverse*%
X49301400Y-47472600D03*
D14*
%TO.P,R4,1*%
%TO.N,Net-(R4-Pad1)*%
X49301400Y-39852600D03*
%TD*%
D13*
%TO.P,R3,2*%
%TO.N,/5-Forward*%
X44653200Y-47472600D03*
D14*
%TO.P,R3,1*%
%TO.N,Net-(R3-Pad1)*%
X44653200Y-39852600D03*
%TD*%
D13*
%TO.P,R2,2*%
%TO.N,GND*%
X86182200Y-45999400D03*
D14*
%TO.P,R2,1*%
%TO.N,Net-(R2-Pad1)*%
X86182200Y-53619400D03*
%TD*%
D13*
%TO.P,R1,2*%
%TO.N,GND*%
X81915000Y-46101000D03*
D14*
%TO.P,R1,1*%
%TO.N,Net-(R1-Pad1)*%
X81915000Y-53721000D03*
%TD*%
D12*
%TO.P,J12,6*%
%TO.N,/Meter-A*%
X34823400Y-114706400D03*
%TO.P,J12,5*%
%TO.N,GNDA*%
X34823400Y-112166400D03*
%TO.P,J12,4*%
%TO.N,+5VA*%
X34823400Y-109626400D03*
%TO.P,J12,3*%
%TO.N,+12VA*%
X34823400Y-107086400D03*
%TO.P,J12,2*%
%TO.N,+48VA*%
X34823400Y-104546400D03*
%TO.P,J12,1*%
%TO.N,/PWR-A*%
%TA.AperFunction,ComponentPad*%
G36*
G01*
X34203399Y-101136400D02*
X35443401Y-101136400D01*
G75*
G02*
X35693400Y-101386399I0J-249999D01*
G01*
X35693400Y-102626401D01*
G75*
G02*
X35443401Y-102876400I-249999J0D01*
G01*
X34203399Y-102876400D01*
G75*
G02*
X33953400Y-102626401I0J249999D01*
G01*
X33953400Y-101386399D01*
G75*
G02*
X34203399Y-101136400I249999J0D01*
G01*
G37*
%TD.AperFunction*%
%TD*%
%TO.P,J11,6*%
%TO.N,/Throttle-A*%
X34899600Y-94208600D03*
%TO.P,J11,5*%
%TO.N,/Brake_AN-A*%
X34899600Y-91668600D03*
%TO.P,J11,4*%
%TO.N,/FWD-A*%
X34899600Y-89128600D03*
%TO.P,J11,3*%
%TO.N,/REV-A*%
X34899600Y-86588600D03*
%TO.P,J11,2*%
%TO.N,/Brake-A*%
X34899600Y-84048600D03*
%TO.P,J11,1*%
%TO.N,/Foot_SW-A*%
%TA.AperFunction,ComponentPad*%
G36*
G01*
X34279599Y-80638600D02*
X35519601Y-80638600D01*
G75*
G02*
X35769600Y-80888599I0J-249999D01*
G01*
X35769600Y-82128601D01*
G75*
G02*
X35519601Y-82378600I-249999J0D01*
G01*
X34279599Y-82378600D01*
G75*
G02*
X34029600Y-82128601I0J249999D01*
G01*
X34029600Y-80888599D01*
G75*
G02*
X34279599Y-80638600I249999J0D01*
G01*
G37*
%TD.AperFunction*%
%TD*%
%TO.P,J10,2*%
%TO.N,GNDA*%
X48133000Y-102362000D03*
%TO.P,J10,1*%
%TO.N,+48VA*%
%TA.AperFunction,ComponentPad*%
G36*
G01*
X44723000Y-102982001D02*
X44723000Y-101741999D01*
G75*
G02*
X44972999Y-101492000I249999J0D01*
G01*
X46213001Y-101492000D01*
G75*
G02*
X46463000Y-101741999I0J-249999D01*
G01*
X46463000Y-102982001D01*
G75*
G02*
X46213001Y-103232000I-249999J0D01*
G01*
X44972999Y-103232000D01*
G75*
G02*
X44723000Y-102982001I0J249999D01*
G01*
G37*
%TD.AperFunction*%
%TD*%
%TO.P,J9,2*%
%TO.N,GNDA*%
X48133000Y-121640600D03*
%TO.P,J9,1*%
%TO.N,+5VA*%
%TA.AperFunction,ComponentPad*%
G36*
G01*
X44723000Y-122260601D02*
X44723000Y-121020599D01*
G75*
G02*
X44972999Y-120770600I249999J0D01*
G01*
X46213001Y-120770600D01*
G75*
G02*
X46463000Y-121020599I0J-249999D01*
G01*
X46463000Y-122260601D01*
G75*
G02*
X46213001Y-122510600I-249999J0D01*
G01*
X44972999Y-122510600D01*
G75*
G02*
X44723000Y-122260601I0J249999D01*
G01*
G37*
%TD.AperFunction*%
%TD*%
%TO.P,J8,2*%
%TO.N,GNDA*%
X48133000Y-112001300D03*
%TO.P,J8,1*%
%TO.N,+12VA*%
%TA.AperFunction,ComponentPad*%
G36*
G01*
X44723000Y-112621301D02*
X44723000Y-111381299D01*
G75*
G02*
X44972999Y-111131300I249999J0D01*
G01*
X46213001Y-111131300D01*
G75*
G02*
X46463000Y-111381299I0J-249999D01*
G01*
X46463000Y-112621301D01*
G75*
G02*
X46213001Y-112871300I-249999J0D01*
G01*
X44972999Y-112871300D01*
G75*
G02*
X44723000Y-112621301I0J249999D01*
G01*
G37*
%TD.AperFunction*%
%TD*%
D20*
%TO.P,B1,24*%
%TO.N,5V*%
X71805800Y-65582800D03*
%TO.P,B1,23*%
%TO.N,GND*%
X71805800Y-68122800D03*
%TO.P,B1,22*%
%TO.N,Net-(B1-Pad22)*%
X71805800Y-70662800D03*
%TO.P,B1,21*%
%TO.N,Net-(B1-Pad21)*%
X71805800Y-73202800D03*
%TO.P,B1,20*%
%TO.N,Net-(B1-Pad20)*%
X71805800Y-75742800D03*
%TO.P,B1,19*%
%TO.N,Net-(B1-Pad19)*%
X71805800Y-78282800D03*
%TO.P,B1,18*%
%TO.N,Net-(B1-Pad18)*%
X71805800Y-80822800D03*
%TO.P,B1,17*%
%TO.N,Net-(B1-Pad17)*%
X71805800Y-83362800D03*
%TO.P,B1,16*%
%TO.N,Net-(B1-Pad16)*%
X71805800Y-85902800D03*
%TO.P,B1,15*%
%TO.N,Net-(B1-Pad15)*%
X71805800Y-88442800D03*
%TO.P,B1,14*%
%TO.N,Net-(B1-Pad14)*%
X71805800Y-90982800D03*
%TO.P,B1,13*%
%TO.N,Net-(B1-Pad13)*%
X71805800Y-93522800D03*
%TO.P,B1,12*%
%TO.N,/9-Meter*%
X56565800Y-93522800D03*
%TO.P,B1,11*%
%TO.N,/8-Meter*%
X56565800Y-90982800D03*
%TO.P,B1,10*%
%TO.N,/10-CS*%
X56565800Y-88442800D03*
%TO.P,B1,9*%
%TO.N,/6-Reverse*%
X56565800Y-85902800D03*
%TO.P,B1,8*%
%TO.N,/5-Forward*%
X56565800Y-83362800D03*
%TO.P,B1,7*%
%TO.N,Net-(B1-Pad7)*%
X56565800Y-80822800D03*
%TO.P,B1,6*%
%TO.N,Net-(B1-Pad6)*%
X56565800Y-78282800D03*
%TO.P,B1,5*%
%TO.N,Net-(B1-Pad5)*%
X56565800Y-75742800D03*
%TO.P,B1,4*%
%TO.N,GND*%
X56565800Y-73202800D03*
%TO.P,B1,3*%
X56565800Y-70662800D03*
%TO.P,B1,2*%
%TO.N,Net-(B1-Pad2)*%
X56565800Y-68122800D03*
%TO.P,B1,1*%
%TO.N,Net-(B1-Pad1)*%
X56565800Y-65582800D03*
%TD*%
D12*
%TO.P,J2,6*%
%TO.N,/Meter*%
X98069400Y-116332000D03*
%TO.P,J2,5*%
%TO.N,GND*%
X98069400Y-113792000D03*
%TO.P,J2,4*%
%TO.N,5V*%
X98069400Y-111252000D03*
%TO.P,J2,3*%
%TO.N,12V*%
X98069400Y-108712000D03*
%TO.P,J2,2*%
%TO.N,+48V*%
X98069400Y-106172000D03*
%TO.P,J2,1*%
%TO.N,/PWR*%
%TA.AperFunction,ComponentPad*%
G36*
G01*
X97449399Y-102762000D02*
X98689401Y-102762000D01*
G75*
G02*
X98939400Y-103011999I0J-249999D01*
G01*
X98939400Y-104252001D01*
G75*
G02*
X98689401Y-104502000I-249999J0D01*
G01*
X97449399Y-104502000D01*
G75*
G02*
X97199400Y-104252001I0J249999D01*
G01*
X97199400Y-103011999D01*
G75*
G02*
X97449399Y-102762000I249999J0D01*
G01*
G37*
%TD.AperFunction*%
%TD*%
%TO.P,J1,6*%
%TO.N,/Throttle*%
X98399600Y-94208600D03*
%TO.P,J1,5*%
%TO.N,/Brake_AN*%
X98399600Y-91668600D03*
%TO.P,J1,4*%
%TO.N,/FWD*%
X98399600Y-89128600D03*
%TO.P,J1,3*%
%TO.N,/REV*%
X98399600Y-86588600D03*
%TO.P,J1,2*%
%TO.N,/Brake*%
X98399600Y-84048600D03*
%TO.P,J1,1*%
%TO.N,/Foot_SW*%
%TA.AperFunction,ComponentPad*%
G36*
G01*
X97779599Y-80638600D02*
X99019601Y-80638600D01*
G75*
G02*
X99269600Y-80888599I0J-249999D01*
G01*
X99269600Y-82128601D01*
G75*
G02*
X99019601Y-82378600I-249999J0D01*
G01*
X97779599Y-82378600D01*
G75*
G02*
X97529600Y-82128601I0J249999D01*
G01*
X97529600Y-80888599D01*
G75*
G02*
X97779599Y-80638600I249999J0D01*
G01*
G37*
%TD.AperFunction*%
%TD*%
D21*
%TO.P,H1,1*%
%TO.N,N/C*%
X111607600Y-41275000D03*
%TD*%
%TO.P,H2,1*%
%TO.N,N/C*%
X111607600Y-120650000D03*
%TD*%
%TO.P,H3,1*%
%TO.N,N/C*%
X23012400Y-120650000D03*
%TD*%
%TO.P,H4,1*%
%TO.N,N/C*%
X22885400Y-41275000D03*
%TD*%
%TO.P,J5,1*%
%TO.N,+48V*%
%TA.AperFunction,ComponentPad*%
G36*
G01*
X82823000Y-102982001D02*
X82823000Y-101741999D01*
G75*
G02*
X83072999Y-101492000I249999J0D01*
G01*
X84313001Y-101492000D01*
G75*
G02*
X84563000Y-101741999I0J-249999D01*
G01*
X84563000Y-102982001D01*
G75*
G02*
X84313001Y-103232000I-249999J0D01*
G01*
X83072999Y-103232000D01*
G75*
G02*
X82823000Y-102982001I0J249999D01*
G01*
G37*
%TD.AperFunction*%
D12*
%TO.P,J5,2*%
%TO.N,GND*%
X86233000Y-102362000D03*
%TD*%
%TO.P,J6,2*%
%TO.N,GND*%
X86233000Y-112001300D03*
%TO.P,J6,1*%
%TO.N,12V*%
%TA.AperFunction,ComponentPad*%
G36*
G01*
X82823000Y-112621301D02*
X82823000Y-111381299D01*
G75*
G02*
X83072999Y-111131300I249999J0D01*
G01*
X84313001Y-111131300D01*
G75*
G02*
X84563000Y-111381299I0J-249999D01*
G01*
X84563000Y-112621301D01*
G75*
G02*
X84313001Y-112871300I-249999J0D01*
G01*
X83072999Y-112871300D01*
G75*
G02*
X82823000Y-112621301I0J249999D01*
G01*
G37*
%TD.AperFunction*%
%TD*%
%TO.P,J7,1*%
%TO.N,5V*%
%TA.AperFunction,ComponentPad*%
G36*
G01*
X82823000Y-122260601D02*
X82823000Y-121020599D01*
G75*
G02*
X83072999Y-120770600I249999J0D01*
G01*
X84313001Y-120770600D01*
G75*
G02*
X84563000Y-121020599I0J-249999D01*
G01*
X84563000Y-122260601D01*
G75*
G02*
X84313001Y-122510600I-249999J0D01*
G01*
X83072999Y-122510600D01*
G75*
G02*
X82823000Y-122260601I0J249999D01*
G01*
G37*
%TD.AperFunction*%
%TO.P,J7,2*%
%TO.N,GND*%
X86233000Y-121640600D03*
%TD*%
%TO.P,SW1,3*%
%TO.N,/5-Forward*%
X48641000Y-92227400D03*
%TO.P,SW1,2*%
%TO.N,5V*%
X48641000Y-89687400D03*
%TO.P,SW1,1*%
%TO.N,/6-Reverse*%
%TA.AperFunction,ComponentPad*%
G36*
G01*
X48020999Y-86277400D02*
X49261001Y-86277400D01*
G75*
G02*
X49511000Y-86527399I0J-249999D01*
G01*
X49511000Y-87767401D01*
G75*
G02*
X49261001Y-88017400I-249999J0D01*
G01*
X48020999Y-88017400D01*
G75*
G02*
X47771000Y-87767401I0J249999D01*
G01*
X47771000Y-86527399D01*
G75*
G02*
X48020999Y-86277400I249999J0D01*
G01*
G37*
%TD.AperFunction*%
%TD*%
D18*
%TO.P,SW4,2*%
%TO.N,+48V*%
X109778800Y-109499400D03*
D19*
%TO.P,SW4,1*%
%TO.N,/PWR*%
X109778800Y-104419400D03*
%TD*%
D22*
%TO.N,12V*%
X84048600Y-109067600D03*
X87630000Y-108915200D03*
X69189600Y-50622200D03*
X86817200Y-61010800D03*
X92379800Y-61036200D03*
X93726000Y-84937600D03*
X93675200Y-89789000D03*
X92100400Y-95199200D03*
X92075000Y-99593400D03*
%TO.N,5V*%
X94792800Y-111379000D03*
X94081600Y-116281200D03*
X56184800Y-60071000D03*
X61544200Y-60020200D03*
%TO.N,/Meter*%
X100939600Y-78028800D03*
%TO.N,/Throttle*%
X71678800Y-114604800D03*
X71678800Y-117779800D03*
%TO.N,/REV*%
X64287400Y-50571400D03*
X64338200Y-57073800D03*
X86868000Y-63982600D03*
X89611200Y-63982600D03*
%TO.N,/FWD*%
X66471800Y-50647600D03*
X66471800Y-57124600D03*
X86791800Y-62357000D03*
X90881200Y-62382400D03*
X91313000Y-85293200D03*
X91490800Y-87858600D03*
%TO.N,GND*%
X65836800Y-110515400D03*
X63004700Y-109664500D03*
%TO.N,/Meter*%
X105410000Y-78181200D03*
X100863400Y-116687600D03*
X104317800Y-116687600D03*
%TO.N,GND*%
X76428600Y-81915000D03*
X76377800Y-86182200D03*
X58597800Y-70535800D03*
X64211200Y-70713600D03*
%TO.N,12V*%
X69148346Y-57140452D03*
%TO.N,/Meter*%
X96494600Y-59156600D03*
X96545400Y-55346600D03*
%TO.N,GND*%
X101015800Y-114554000D03*
X104394000Y-114554000D03*
%TO.N,GNDA*%
X44399200Y-114808000D03*
X40411400Y-114833400D03*
%TO.N,+12VA*%
X58216800Y-50749200D03*
X57988200Y-54127400D03*
X36906200Y-64973200D03*
X44170602Y-64922400D03*
%TO.N,/Throttle-A*%
X54381400Y-109804200D03*
X54533800Y-112852200D03*
%TO.N,/REV-A*%
X55397400Y-54127400D03*
X55727600Y-50927000D03*
X44119803Y-62585603D03*
X38938197Y-62585603D03*
%TO.N,/Brake-A*%
X30276800Y-74447400D03*
X30175200Y-78638400D03*
%TO.N,/Meter-A*%
X95275400Y-49453800D03*
X95275400Y-44246800D03*
%TO.N,/10-CS*%
X75768200Y-51485800D03*
X75971400Y-56642000D03*
%TO.N,/5-Forward*%
X40513000Y-85775800D03*
X45313600Y-85826600D03*
%TD*%
D23*
%TO.N,12V*%
X84048600Y-109067600D02*
X87477600Y-109067600D01*
X87477600Y-109067600D02*
X87630000Y-108915200D01*
X86817200Y-61010800D02*
X92354400Y-61010800D01*
X92354400Y-61010800D02*
X92379800Y-61036200D01*
X93726000Y-84937600D02*
X93726000Y-89738200D01*
X93726000Y-89738200D02*
X93675200Y-89789000D01*
X92100400Y-95199200D02*
X92100400Y-99568000D01*
X92100400Y-99568000D02*
X92075000Y-99593400D01*
%TO.N,5V*%
X94792800Y-111379000D02*
X94081600Y-112090200D01*
X94081600Y-112090200D02*
X94081600Y-116281200D01*
X56235600Y-60020200D02*
X56184800Y-60071000D01*
X61544200Y-60020200D02*
X56235600Y-60020200D01*
%TO.N,/Throttle*%
X71678800Y-114604800D02*
X71678800Y-117779800D01*
%TO.N,/REV*%
X64338200Y-53035200D02*
X64287400Y-50571400D01*
X64338200Y-57073800D02*
X64338200Y-53035200D01*
X89611200Y-63982600D02*
X86868000Y-63982600D01*
%TO.N,/FWD*%
X66471800Y-55778400D02*
X66471800Y-50647600D01*
X66471800Y-57124600D02*
X66471800Y-55778400D01*
X86791800Y-62357000D02*
X90855800Y-62357000D01*
X90855800Y-62357000D02*
X90881200Y-62382400D01*
X91313000Y-85293200D02*
X91313000Y-87680800D01*
X91313000Y-87680800D02*
X91490800Y-87858600D01*
%TO.N,GND*%
X65582800Y-110261400D02*
X65836800Y-110515400D01*
X63601600Y-110261400D02*
X65582800Y-110261400D01*
X63004700Y-109664500D02*
X63601600Y-110261400D01*
%TO.N,/Meter*%
X100939600Y-78028800D02*
X105257600Y-78028800D01*
X105257600Y-78028800D02*
X105410000Y-78181200D01*
X100863400Y-116687600D02*
X104317800Y-116687600D01*
%TO.N,GND*%
X76428600Y-81915000D02*
X76428600Y-86131400D01*
X76428600Y-86131400D02*
X76377800Y-86182200D01*
X58597800Y-70535800D02*
X64033400Y-70535800D01*
X64033400Y-70535800D02*
X64211200Y-70713600D01*
%TO.N,12V*%
X69189600Y-50622200D02*
X69189600Y-57099198D01*
X69189600Y-57099198D02*
X69148346Y-57140452D01*
%TO.N,/Meter*%
X96494600Y-55397400D02*
X96545400Y-55346600D01*
X96494600Y-59156600D02*
X96494600Y-55397400D01*
%TO.N,GND*%
X101015800Y-114554000D02*
X104394000Y-114554000D01*
%TO.N,GNDA*%
X40792400Y-114808000D02*
X44399200Y-114808000D01*
X40411400Y-114833400D02*
X40792400Y-114808000D01*
%TO.N,+12VA*%
X58216800Y-50749200D02*
X58216800Y-53898800D01*
X58216800Y-53898800D02*
X57988200Y-54127400D01*
X44119802Y-64973200D02*
X44170602Y-64922400D01*
X36906200Y-64973200D02*
X44119802Y-64973200D01*
%TO.N,/Throttle-A*%
X54381400Y-109804200D02*
X54381400Y-112699800D01*
X54381400Y-112699800D02*
X54533800Y-112852200D01*
%TO.N,/REV-A*%
X55397400Y-54127400D02*
X55397400Y-51257200D01*
X55397400Y-51257200D02*
X55727600Y-50927000D01*
X43527107Y-62585603D02*
X38938197Y-62585603D01*
X44119803Y-62585603D02*
X43527107Y-62585603D01*
%TO.N,/Brake-A*%
X30276800Y-74447400D02*
X30276800Y-78536800D01*
X30276800Y-78536800D02*
X30175200Y-78638400D01*
%TO.N,/Meter-A*%
X95275400Y-49453800D02*
X95275400Y-44246800D01*
%TO.N,/10-CS*%
X75768200Y-56438800D02*
X75971400Y-56642000D01*
X75768200Y-51485800D02*
X75768200Y-56438800D01*
%TO.N,/5-Forward*%
X40513000Y-85775800D02*
X45262800Y-85775800D01*
X45262800Y-85775800D02*
X45313600Y-85826600D01*
%TD*%
M02*
