M48
; DRILL file {KiCad 5.1.7-a382d34a8~88~ubuntu18.04.1} date Sun Apr 10 06:32:04 2022
; FORMAT={-:-/ absolute / inch / decimal}
; #@! TF.CreationDate,2022-04-10T06:32:04-07:00
; #@! TF.GenerationSoftware,Kicad,Pcbnew,5.1.7-a382d34a8~88~ubuntu18.04.1
FMAT,2
INCH
T1C0.0315
T2C0.0320
T3C0.0400
T4C0.0429
T5C0.0598
T6C0.1260
%
G90
G05
T1
X3.63Y-1.475
X3.63Y-1.575
X3.63Y-1.675
X3.63Y-1.775
X3.63Y-1.875
X3.63Y-1.975
X3.63Y-2.075
X3.63Y-2.175
X3.93Y-1.475
X3.93Y-1.575
X3.93Y-1.675
X3.93Y-1.775
X3.93Y-1.875
X3.93Y-1.975
X3.93Y-2.075
X3.93Y-2.175
X3.042Y-2.782
X3.342Y-2.782
X3.178Y-1.526
X3.478Y-1.526
X2.3774Y-3.985
X2.3774Y-4.085
X2.3774Y-4.185
X2.3774Y-4.285
X2.3774Y-4.385
X2.3774Y-4.485
X2.3774Y-4.585
X2.6774Y-3.985
X2.6774Y-4.085
X2.6774Y-4.185
X2.6774Y-4.285
X2.6774Y-4.385
X2.6774Y-4.485
X2.6774Y-4.585
X1.758Y-1.569
X1.758Y-1.869
X3.225Y-1.815
X3.225Y-2.115
X1.941Y-1.569
X1.941Y-1.869
X3.393Y-1.811
X3.393Y-2.111
X4.129Y-2.171
X4.429Y-2.171
X4.103Y-1.668
X4.103Y-1.968
X2.193Y-1.573
X2.193Y-1.873
X2.293Y-1.573
X2.293Y-1.873
X2.393Y-1.573
X2.393Y-1.873
X2.493Y-1.573
X2.493Y-1.873
X2.593Y-1.573
X2.593Y-1.873
X2.693Y-1.573
X2.693Y-1.873
X2.793Y-1.573
X2.793Y-1.873
X2.893Y-1.573
X2.893Y-1.873
T2
X1.112Y-2.93
X1.113Y-3.089
X1.453Y-2.558
X1.462Y-2.461
X1.531Y-3.81
X1.594Y-4.618
X1.689Y-2.558
X1.69Y-2.464
X1.728Y-4.625
X1.75Y-3.801
X2.141Y-4.323
X2.147Y-4.443
X2.192Y-2.151
X2.193Y-2.045
X2.211Y-2.317
X2.287Y-2.156
X2.292Y-2.034
X2.385Y-2.777
X2.412Y-2.313
X2.473Y-4.284
X2.511Y-2.041
X2.512Y-2.246
X2.583Y-4.284
X2.617Y-2.044
X2.617Y-2.249
X2.622Y-2.771
X2.714Y-2.044
X2.7224Y-2.2496
X2.819Y-4.644
X2.822Y-4.488
X3.007Y-3.393
X3.009Y-3.225
X3.059Y-2.07
X3.067Y-2.335
X3.364Y-2.403
X3.364Y-2.519
X3.366Y-2.457
X3.4755Y-2.457
X3.478Y-2.519
X3.48Y-2.403
X3.538Y-4.18
X3.538Y-4.354
X3.593Y-3.475
X3.616Y-3.323
X3.625Y-3.921
X3.626Y-3.748
X3.647Y-4.382
X3.65Y-4.577
X3.651Y-3.543
X3.677Y-3.331
X3.751Y-1.742
X3.751Y-1.947
X3.799Y-2.329
X3.801Y-2.179
X3.951Y-3.015
X4.045Y-4.552
X4.055Y-4.631
X4.127Y-3.02
X4.179Y-4.557
X4.187Y-4.636
T3
X2.24Y-2.577
X2.24Y-2.677
X2.24Y-2.777
X2.24Y-2.877
X2.24Y-2.977
X2.24Y-3.077
X2.24Y-3.177
X2.24Y-3.277
X2.24Y-3.377
X2.24Y-3.477
X2.24Y-3.577
X2.24Y-3.677
X2.84Y-2.577
X2.84Y-2.677
X2.84Y-2.777
X2.84Y-2.877
X2.84Y-2.977
X2.84Y-3.077
X2.84Y-3.177
X2.84Y-3.277
X2.84Y-3.377
X2.84Y-3.477
X2.84Y-3.577
X2.84Y-3.677
T4
X1.795Y-4.4095
X1.895Y-4.4095
X1.917Y-2.836
X1.917Y-2.936
X1.917Y-3.036
X1.917Y-3.136
X1.795Y-4.789
X1.895Y-4.789
X1.374Y-3.209
X1.374Y-3.309
X1.374Y-3.409
X1.374Y-3.509
X1.374Y-3.609
X1.374Y-3.709
X3.382Y-3.561
X3.382Y-3.661
X1.371Y-4.016
X1.371Y-4.116
X1.371Y-4.216
X1.371Y-4.316
X1.371Y-4.416
X1.371Y-4.516
X1.915Y-3.431
X1.915Y-3.531
X1.915Y-3.631
X3.295Y-4.03
X3.395Y-4.03
X3.861Y-4.08
X3.861Y-4.18
X3.861Y-4.28
X3.861Y-4.38
X3.861Y-4.48
X3.861Y-4.58
X3.295Y-4.4095
X3.395Y-4.4095
X3.241Y-3.043
X3.241Y-3.143
X3.241Y-3.243
X3.295Y-4.789
X3.395Y-4.789
X1.795Y-4.03
X1.895Y-4.03
X3.874Y-3.209
X3.874Y-3.309
X3.874Y-3.409
X3.874Y-3.509
X3.874Y-3.609
X3.874Y-3.709
T5
X4.322Y-4.111
X4.322Y-4.311
X0.874Y-4.028
X0.874Y-4.228
T6
X4.394Y-4.75
X0.901Y-1.625
X0.906Y-4.75
X4.394Y-1.625
T0
M30
