%TF.GenerationSoftware,KiCad,Pcbnew,5.1.7-a382d34a8~88~ubuntu18.04.1*%
%TF.CreationDate,2022-01-07T06:57:45-08:00*%
%TF.ProjectId,Kelly controller,4b656c6c-7920-4636-9f6e-74726f6c6c65,rev?*%
%TF.SameCoordinates,Original*%
%TF.FileFunction,Copper,L2,Bot*%
%TF.FilePolarity,Positive*%
%FSLAX46Y46*%
G04 Gerber Fmt 4.6, Leading zero omitted, Abs format (unit mm)*
G04 Created by KiCad (PCBNEW 5.1.7-a382d34a8~88~ubuntu18.04.1) date 2022-01-07 06:57:45*
%MOMM*%
%LPD*%
G01*
G04 APERTURE LIST*
%TA.AperFunction,ComponentPad*%
%ADD10C,1.740000*%
%TD*%
%TA.AperFunction,ComponentPad*%
%ADD11C,3.200001*%
%TD*%
%TA.AperFunction,ComponentPad*%
%ADD12C,3.000000*%
%TD*%
%TA.AperFunction,ComponentPad*%
%ADD13R,3.000000X3.000000*%
%TD*%
%TA.AperFunction,ViaPad*%
%ADD14C,0.838200*%
%TD*%
%TA.AperFunction,Conductor*%
%ADD15C,1.016000*%
%TD*%
%TA.AperFunction,Conductor*%
%ADD16C,0.508000*%
%TD*%
%TA.AperFunction,Conductor*%
%ADD17C,0.254000*%
%TD*%
%TA.AperFunction,Conductor*%
%ADD18C,0.100000*%
%TD*%
G04 APERTURE END LIST*
D10*
%TO.P,J2,6*%
%TO.N,/Meter*%
X134924800Y-64211200D03*
%TO.P,J2,5*%
%TO.N,GND*%
X132384800Y-64211200D03*
%TO.P,J2,4*%
%TO.N,5V*%
X129844800Y-64211200D03*
%TO.P,J2,3*%
%TO.N,12V*%
X127304800Y-64211200D03*
%TO.P,J2,2*%
%TO.N,+48V*%
X124764800Y-64211200D03*
%TO.P,J2,1*%
%TO.N,/PWR*%
%TA.AperFunction,ComponentPad*%
G36*
G01*
X121354800Y-64831201D02*
X121354800Y-63591199D01*
G75*
G02*
X121604799Y-63341200I249999J0D01*
G01*
X122844801Y-63341200D01*
G75*
G02*
X123094800Y-63591199I0J-249999D01*
G01*
X123094800Y-64831201D01*
G75*
G02*
X122844801Y-65081200I-249999J0D01*
G01*
X121604799Y-65081200D01*
G75*
G02*
X121354800Y-64831201I0J249999D01*
G01*
G37*
%TD.AperFunction*%
%TD*%
%TO.P,J1,6*%
%TO.N,/Throttle*%
X158089600Y-64185800D03*
%TO.P,J1,5*%
%TO.N,/Brake_AN*%
X155549600Y-64185800D03*
%TO.P,J1,4*%
%TO.N,/FWD*%
X153009600Y-64185800D03*
%TO.P,J1,3*%
%TO.N,/REV*%
X150469600Y-64185800D03*
%TO.P,J1,2*%
%TO.N,/Brake*%
X147929600Y-64185800D03*
%TO.P,J1,1*%
%TO.N,/Foot_SW*%
%TA.AperFunction,ComponentPad*%
G36*
G01*
X144519600Y-64805801D02*
X144519600Y-63565799D01*
G75*
G02*
X144769599Y-63315800I249999J0D01*
G01*
X146009601Y-63315800D01*
G75*
G02*
X146259600Y-63565799I0J-249999D01*
G01*
X146259600Y-64805801D01*
G75*
G02*
X146009601Y-65055800I-249999J0D01*
G01*
X144769599Y-65055800D01*
G75*
G02*
X144519600Y-64805801I0J249999D01*
G01*
G37*
%TD.AperFunction*%
%TD*%
D11*
%TO.P,H1,1*%
%TO.N,N/C*%
X104993401Y-48685601D03*
%TD*%
%TO.P,H2,1*%
%TO.N,N/C*%
X158968401Y-48685601D03*
%TD*%
%TO.P,H3,1*%
%TO.N,N/C*%
X104993401Y-93135601D03*
%TD*%
%TO.P,H4,1*%
%TO.N,N/C*%
X158968401Y-93135601D03*
%TD*%
%TO.P,J4,1*%
%TO.N,GND*%
%TA.AperFunction,ComponentPad*%
G36*
G01*
X149371000Y-52371801D02*
X149371000Y-51131799D01*
G75*
G02*
X149620999Y-50881800I249999J0D01*
G01*
X150861001Y-50881800D01*
G75*
G02*
X151111000Y-51131799I0J-249999D01*
G01*
X151111000Y-52371801D01*
G75*
G02*
X150861001Y-52621800I-249999J0D01*
G01*
X149620999Y-52621800D01*
G75*
G02*
X149371000Y-52371801I0J249999D01*
G01*
G37*
%TD.AperFunction*%
D10*
%TO.P,J4,2*%
%TO.N,/Meter*%
X152781000Y-51751800D03*
%TD*%
%TO.P,J5,1*%
%TO.N,+48V*%
%TA.AperFunction,ComponentPad*%
G36*
G01*
X113273599Y-65093800D02*
X114513601Y-65093800D01*
G75*
G02*
X114763600Y-65343799I0J-249999D01*
G01*
X114763600Y-66583801D01*
G75*
G02*
X114513601Y-66833800I-249999J0D01*
G01*
X113273599Y-66833800D01*
G75*
G02*
X113023600Y-66583801I0J249999D01*
G01*
X113023600Y-65343799D01*
G75*
G02*
X113273599Y-65093800I249999J0D01*
G01*
G37*
%TD.AperFunction*%
%TO.P,J5,2*%
%TO.N,GND*%
X113893600Y-68503800D03*
%TD*%
%TO.P,J6,2*%
%TO.N,GND*%
X113893600Y-80124300D03*
%TO.P,J6,1*%
%TO.N,12V*%
%TA.AperFunction,ComponentPad*%
G36*
G01*
X113273599Y-76714300D02*
X114513601Y-76714300D01*
G75*
G02*
X114763600Y-76964299I0J-249999D01*
G01*
X114763600Y-78204301D01*
G75*
G02*
X114513601Y-78454300I-249999J0D01*
G01*
X113273599Y-78454300D01*
G75*
G02*
X113023600Y-78204301I0J249999D01*
G01*
X113023600Y-76964299D01*
G75*
G02*
X113273599Y-76714300I249999J0D01*
G01*
G37*
%TD.AperFunction*%
%TD*%
%TO.P,J7,1*%
%TO.N,5V*%
%TA.AperFunction,ComponentPad*%
G36*
G01*
X113013601Y-92614800D02*
X111773599Y-92614800D01*
G75*
G02*
X111523600Y-92364801I0J249999D01*
G01*
X111523600Y-91124799D01*
G75*
G02*
X111773599Y-90874800I249999J0D01*
G01*
X113013601Y-90874800D01*
G75*
G02*
X113263600Y-91124799I0J-249999D01*
G01*
X113263600Y-92364801D01*
G75*
G02*
X113013601Y-92614800I-249999J0D01*
G01*
G37*
%TD.AperFunction*%
%TO.P,J7,2*%
%TO.N,GND*%
X112393600Y-89204800D03*
%TD*%
%TO.P,RV1,3*%
%TO.N,GND*%
X140004800Y-87884000D03*
%TO.P,RV1,2*%
%TO.N,/Throttle*%
X140004800Y-90424000D03*
%TO.P,RV1,1*%
%TO.N,5V*%
%TA.AperFunction,ComponentPad*%
G36*
G01*
X140624801Y-93834000D02*
X139384799Y-93834000D01*
G75*
G02*
X139134800Y-93584001I0J249999D01*
G01*
X139134800Y-92343999D01*
G75*
G02*
X139384799Y-92094000I249999J0D01*
G01*
X140624801Y-92094000D01*
G75*
G02*
X140874800Y-92343999I0J-249999D01*
G01*
X140874800Y-93584001D01*
G75*
G02*
X140624801Y-93834000I-249999J0D01*
G01*
G37*
%TD.AperFunction*%
%TD*%
%TO.P,RV2,1*%
%TO.N,5V*%
%TA.AperFunction,ComponentPad*%
G36*
G01*
X125283201Y-93834000D02*
X124043199Y-93834000D01*
G75*
G02*
X123793200Y-93584001I0J249999D01*
G01*
X123793200Y-92343999D01*
G75*
G02*
X124043199Y-92094000I249999J0D01*
G01*
X125283201Y-92094000D01*
G75*
G02*
X125533200Y-92343999I0J-249999D01*
G01*
X125533200Y-93584001D01*
G75*
G02*
X125283201Y-93834000I-249999J0D01*
G01*
G37*
%TD.AperFunction*%
%TO.P,RV2,2*%
%TO.N,/Brake_AN*%
X124663200Y-90424000D03*
%TO.P,RV2,3*%
%TO.N,GND*%
X124663200Y-87884000D03*
%TD*%
%TO.P,SW1,3*%
%TO.N,/REV*%
X149123400Y-76314300D03*
%TO.P,SW1,2*%
%TO.N,12V*%
X149123400Y-78854300D03*
%TO.P,SW1,1*%
%TO.N,/FWD*%
%TA.AperFunction,ComponentPad*%
G36*
G01*
X149743401Y-82264300D02*
X148503399Y-82264300D01*
G75*
G02*
X148253400Y-82014301I0J249999D01*
G01*
X148253400Y-80774299D01*
G75*
G02*
X148503399Y-80524300I249999J0D01*
G01*
X149743401Y-80524300D01*
G75*
G02*
X149993400Y-80774299I0J-249999D01*
G01*
X149993400Y-82014301D01*
G75*
G02*
X149743401Y-82264300I-249999J0D01*
G01*
G37*
%TD.AperFunction*%
%TD*%
%TO.P,SW2,2*%
%TO.N,12V*%
X126161800Y-80124300D03*
%TO.P,SW2,1*%
%TO.N,/Foot_SW*%
%TA.AperFunction,ComponentPad*%
G36*
G01*
X125541799Y-76714300D02*
X126781801Y-76714300D01*
G75*
G02*
X127031800Y-76964299I0J-249999D01*
G01*
X127031800Y-78204301D01*
G75*
G02*
X126781801Y-78454300I-249999J0D01*
G01*
X125541799Y-78454300D01*
G75*
G02*
X125291800Y-78204301I0J249999D01*
G01*
X125291800Y-76964299D01*
G75*
G02*
X125541799Y-76714300I249999J0D01*
G01*
G37*
%TD.AperFunction*%
%TD*%
%TO.P,SW3,2*%
%TO.N,12V*%
X138392600Y-80124300D03*
%TO.P,SW3,1*%
%TO.N,/Brake*%
%TA.AperFunction,ComponentPad*%
G36*
G01*
X137772599Y-76714300D02*
X139012601Y-76714300D01*
G75*
G02*
X139262600Y-76964299I0J-249999D01*
G01*
X139262600Y-78204301D01*
G75*
G02*
X139012601Y-78454300I-249999J0D01*
G01*
X137772599Y-78454300D01*
G75*
G02*
X137522600Y-78204301I0J249999D01*
G01*
X137522600Y-76964299D01*
G75*
G02*
X137772599Y-76714300I249999J0D01*
G01*
G37*
%TD.AperFunction*%
%TD*%
D12*
%TO.P,SW4,2*%
%TO.N,+48V*%
X128092200Y-52501800D03*
D13*
%TO.P,SW4,1*%
%TO.N,/PWR*%
X123012200Y-52501800D03*
%TD*%
D14*
%TO.N,GND*%
X125857000Y-83820000D03*
X130225800Y-88188800D03*
X118338600Y-79705200D03*
X119075200Y-74447400D03*
X133248400Y-71221600D03*
X140284200Y-71272400D03*
X145211800Y-74472800D03*
X146964400Y-77139800D03*
%TD*%
D15*
%TO.N,+48V*%
X128092200Y-52501800D02*
X128092200Y-58496200D01*
X128092200Y-58496200D02*
X126365000Y-60223400D01*
X126365000Y-60223400D02*
X125349000Y-60223400D01*
X124764800Y-60807600D02*
X124764800Y-64211200D01*
X125349000Y-60223400D02*
X124764800Y-60807600D01*
X124764800Y-64211200D02*
X124764800Y-66243200D01*
X124764800Y-66243200D02*
X123952000Y-67056000D01*
X123952000Y-67056000D02*
X119405400Y-67056000D01*
X118313200Y-65963800D02*
X113893600Y-65963800D01*
X119405400Y-67056000D02*
X118313200Y-65963800D01*
%TO.N,12V*%
X127304800Y-64211200D02*
X127304800Y-69392800D01*
X127304800Y-69392800D02*
X126339600Y-70358000D01*
X126339600Y-70358000D02*
X119507000Y-70358000D01*
X113893600Y-75971400D02*
X113893600Y-77584300D01*
X119507000Y-70358000D02*
X113893600Y-75971400D01*
X113893600Y-77584300D02*
X119976900Y-77584300D01*
X122516900Y-80124300D02*
X126161800Y-80124300D01*
X119976900Y-77584300D02*
X122516900Y-80124300D01*
X126161800Y-80124300D02*
X138392600Y-80124300D01*
X138392600Y-80124300D02*
X145300700Y-80124300D01*
X146570700Y-78854300D02*
X149123400Y-78854300D01*
X145300700Y-80124300D02*
X146570700Y-78854300D01*
%TO.N,5V*%
X140004800Y-92964000D02*
X124663200Y-92964000D01*
X124663200Y-92964000D02*
X117017800Y-92964000D01*
X115798600Y-91744800D02*
X112393600Y-91744800D01*
X117017800Y-92964000D02*
X115798600Y-91744800D01*
X142341600Y-92964000D02*
X140004800Y-92964000D01*
X152908000Y-86131400D02*
X149174200Y-86156800D01*
X156159200Y-82854800D02*
X152908000Y-86131400D01*
X156184600Y-72593200D02*
X156159200Y-82854800D01*
X160959800Y-68630800D02*
X156184600Y-72593200D01*
X160959800Y-62763400D02*
X160959800Y-68630800D01*
X149174200Y-86156800D02*
X142341600Y-92964000D01*
X159664400Y-61468000D02*
X160959800Y-62763400D01*
X129844800Y-66294000D02*
X130429000Y-66878200D01*
X129844800Y-64211200D02*
X129844800Y-66294000D01*
X130429000Y-66878200D02*
X136880600Y-66878200D01*
X136880600Y-66878200D02*
X142290800Y-61468000D01*
X142290800Y-61468000D02*
X159664400Y-61468000D01*
D16*
%TO.N,/Meter*%
X134924800Y-64211200D02*
X136245600Y-64211200D01*
X136245600Y-64211200D02*
X145288000Y-55168800D01*
X145288000Y-55168800D02*
X152120600Y-55168800D01*
X152781000Y-54508400D02*
X152781000Y-51751800D01*
X152120600Y-55168800D02*
X152781000Y-54508400D01*
D15*
%TO.N,/Brake_AN*%
X126263400Y-90424000D02*
X124663200Y-90424000D01*
X127431800Y-84734400D02*
X127431800Y-89255600D01*
X127431800Y-89255600D02*
X126263400Y-90424000D01*
X155549600Y-68783200D02*
X152933400Y-71399400D01*
X155549600Y-64185800D02*
X155549600Y-68783200D01*
X128752600Y-83286600D02*
X127431800Y-84734400D01*
X152933400Y-71399400D02*
X152933400Y-81635600D01*
X152933400Y-81635600D02*
X151130000Y-83286600D01*
X151130000Y-83286600D02*
X128752600Y-83286600D01*
D16*
%TO.N,/Foot_SW*%
X130035300Y-77584300D02*
X139090400Y-68529200D01*
X145389600Y-67437000D02*
X145389600Y-64185800D01*
X126161800Y-77584300D02*
X130035300Y-77584300D01*
X139090400Y-68529200D02*
X144297400Y-68529200D01*
X144297400Y-68529200D02*
X145389600Y-67437000D01*
D15*
%TO.N,/Brake*%
X147624800Y-74549000D02*
X144640300Y-77584300D01*
X147624800Y-69189600D02*
X147624800Y-74549000D01*
X147929600Y-64185800D02*
X147929600Y-68326000D01*
X144640300Y-77584300D02*
X138392600Y-77584300D01*
X147929600Y-68326000D02*
X147624800Y-69189600D01*
%TO.N,/Throttle*%
X158089600Y-64185800D02*
X158089600Y-68402200D01*
X158089600Y-68402200D02*
X154609800Y-71882000D01*
X154609800Y-71882000D02*
X154609800Y-82143600D01*
X154609800Y-82143600D02*
X152044400Y-84709000D01*
X152044400Y-84709000D02*
X148463000Y-84709000D01*
X142748000Y-90424000D02*
X140004800Y-90424000D01*
X148463000Y-84709000D02*
X142748000Y-90424000D01*
%TO.N,/REV*%
X149123400Y-70205600D02*
X149123400Y-76314300D01*
X150469600Y-64185800D02*
X150469600Y-68478400D01*
X150469600Y-68478400D02*
X149123400Y-70205600D01*
%TO.N,/FWD*%
X153009600Y-64185800D02*
X153009600Y-69037200D01*
X153009600Y-69037200D02*
X151358600Y-70688200D01*
X151358600Y-70688200D02*
X151358600Y-80873600D01*
X150837900Y-81394300D02*
X149123400Y-81394300D01*
X151358600Y-80873600D02*
X150837900Y-81394300D01*
%TO.N,/PWR*%
X122224800Y-64211200D02*
X122224800Y-56311800D01*
X123012200Y-55524400D02*
X123012200Y-52501800D01*
X122224800Y-56311800D02*
X123012200Y-55524400D01*
D16*
%TO.N,GND*%
X111760000Y-68503800D02*
X113893600Y-68503800D01*
X113893600Y-80124300D02*
X113893600Y-83845400D01*
X112393600Y-85345400D02*
X112393600Y-89204800D01*
X113893600Y-83845400D02*
X112393600Y-85345400D01*
X120624600Y-83845400D02*
X124663200Y-87884000D01*
X124663200Y-87884000D02*
X124663200Y-85013800D01*
X124663200Y-85013800D02*
X125857000Y-83820000D01*
X130530600Y-87884000D02*
X130225800Y-88188800D01*
X140004800Y-87884000D02*
X130530600Y-87884000D01*
X111760000Y-68503800D02*
X111760000Y-72847200D01*
X111760000Y-72847200D02*
X110159800Y-74447400D01*
X110159800Y-74447400D02*
X110159800Y-78689200D01*
X111594900Y-80124300D02*
X113893600Y-80124300D01*
X110159800Y-78689200D02*
X111594900Y-80124300D01*
X118262400Y-79781400D02*
X118338600Y-79705200D01*
X118262400Y-83845400D02*
X118262400Y-79781400D01*
X118262400Y-83845400D02*
X120624600Y-83845400D01*
X113893600Y-83845400D02*
X118262400Y-83845400D01*
X119075200Y-74447400D02*
X129692400Y-74447400D01*
X129692400Y-74447400D02*
X130022600Y-74447400D01*
X130022600Y-74447400D02*
X133248400Y-71221600D01*
X140284200Y-71272400D02*
X142011400Y-71272400D01*
X142011400Y-71272400D02*
X145211800Y-74472800D01*
X109982000Y-66725800D02*
X111760000Y-68503800D01*
X109982000Y-57454800D02*
X109982000Y-66725800D01*
X121513600Y-45923200D02*
X109982000Y-57454800D01*
X132384800Y-64211200D02*
X132384800Y-50825400D01*
X127482600Y-45923200D02*
X121513600Y-45923200D01*
X132384800Y-50825400D02*
X127482600Y-45923200D01*
X149314600Y-50825400D02*
X150241000Y-51751800D01*
X132384800Y-50825400D02*
X149314600Y-50825400D01*
%TD*%
D17*
%TO.N,GND*%
X163703401Y-98273000D02*
X99618400Y-98273000D01*
X99618400Y-92915473D01*
X102758401Y-92915473D01*
X102758401Y-93355729D01*
X102844291Y-93787526D01*
X103012770Y-94194270D01*
X103257363Y-94560330D01*
X103568672Y-94871639D01*
X103934732Y-95116232D01*
X104341476Y-95284711D01*
X104773273Y-95370601D01*
X105213529Y-95370601D01*
X105645326Y-95284711D01*
X106052070Y-95116232D01*
X106418130Y-94871639D01*
X106729439Y-94560330D01*
X106974032Y-94194270D01*
X107142511Y-93787526D01*
X107228401Y-93355729D01*
X107228401Y-92915473D01*
X107142511Y-92483676D01*
X106974032Y-92076932D01*
X106729439Y-91710872D01*
X106418130Y-91399563D01*
X106052070Y-91154970D01*
X105979231Y-91124799D01*
X110885528Y-91124799D01*
X110885528Y-92364801D01*
X110902592Y-92538055D01*
X110953128Y-92704651D01*
X111035195Y-92858187D01*
X111145638Y-92992762D01*
X111280213Y-93103205D01*
X111433749Y-93185272D01*
X111600345Y-93235808D01*
X111773599Y-93252872D01*
X113013601Y-93252872D01*
X113186855Y-93235808D01*
X113353451Y-93185272D01*
X113506987Y-93103205D01*
X113641562Y-92992762D01*
X113727702Y-92887800D01*
X115325155Y-92887800D01*
X116169877Y-93732523D01*
X116205667Y-93776133D01*
X116379711Y-93918968D01*
X116578277Y-94025103D01*
X116728374Y-94070635D01*
X116793732Y-94090461D01*
X116816400Y-94092694D01*
X116961654Y-94107000D01*
X116961660Y-94107000D01*
X117017799Y-94112529D01*
X117073938Y-94107000D01*
X123329098Y-94107000D01*
X123415238Y-94211962D01*
X123549813Y-94322405D01*
X123703349Y-94404472D01*
X123869945Y-94455008D01*
X124043199Y-94472072D01*
X125283201Y-94472072D01*
X125456455Y-94455008D01*
X125623051Y-94404472D01*
X125776587Y-94322405D01*
X125911162Y-94211962D01*
X125997302Y-94107000D01*
X138670698Y-94107000D01*
X138756838Y-94211962D01*
X138891413Y-94322405D01*
X139044949Y-94404472D01*
X139211545Y-94455008D01*
X139384799Y-94472072D01*
X140624801Y-94472072D01*
X140798055Y-94455008D01*
X140964651Y-94404472D01*
X141118187Y-94322405D01*
X141252762Y-94211962D01*
X141338902Y-94107000D01*
X142284395Y-94107000D01*
X142339462Y-94112527D01*
X142396671Y-94107000D01*
X142397746Y-94107000D01*
X142452894Y-94101568D01*
X142563569Y-94090876D01*
X142564596Y-94090566D01*
X142565667Y-94090461D01*
X142672623Y-94058016D01*
X142779146Y-94025919D01*
X142780091Y-94025416D01*
X142781123Y-94025103D01*
X142879812Y-93972353D01*
X142977909Y-93920154D01*
X142978738Y-93919476D01*
X142979689Y-93918968D01*
X143066224Y-93847950D01*
X143108541Y-93813353D01*
X143109291Y-93812606D01*
X143153733Y-93776133D01*
X143188852Y-93733340D01*
X144009771Y-92915473D01*
X156733401Y-92915473D01*
X156733401Y-93355729D01*
X156819291Y-93787526D01*
X156987770Y-94194270D01*
X157232363Y-94560330D01*
X157543672Y-94871639D01*
X157909732Y-95116232D01*
X158316476Y-95284711D01*
X158748273Y-95370601D01*
X159188529Y-95370601D01*
X159620326Y-95284711D01*
X160027070Y-95116232D01*
X160393130Y-94871639D01*
X160704439Y-94560330D01*
X160949032Y-94194270D01*
X161117511Y-93787526D01*
X161203401Y-93355729D01*
X161203401Y-92915473D01*
X161117511Y-92483676D01*
X160949032Y-92076932D01*
X160704439Y-91710872D01*
X160393130Y-91399563D01*
X160027070Y-91154970D01*
X159620326Y-90986491D01*
X159188529Y-90900601D01*
X158748273Y-90900601D01*
X158316476Y-90986491D01*
X157909732Y-91154970D01*
X157543672Y-91399563D01*
X157232363Y-91710872D01*
X156987770Y-92076932D01*
X156819291Y-92483676D01*
X156733401Y-92915473D01*
X144009771Y-92915473D01*
X149649620Y-87296592D01*
X152857966Y-87274766D01*
X152912468Y-87279920D01*
X152970249Y-87274002D01*
X152971919Y-87273991D01*
X153026036Y-87268289D01*
X153136448Y-87256981D01*
X153138059Y-87256485D01*
X153139724Y-87256310D01*
X153245463Y-87223447D01*
X153351648Y-87190784D01*
X153353126Y-87189986D01*
X153354730Y-87189488D01*
X153452297Y-87136482D01*
X153549799Y-87083877D01*
X153551090Y-87082809D01*
X153552570Y-87082005D01*
X153637810Y-87011074D01*
X153679815Y-86976327D01*
X153680994Y-86975139D01*
X153725638Y-86937989D01*
X153760079Y-86895436D01*
X156928453Y-83702310D01*
X156969320Y-83668940D01*
X157007531Y-83622614D01*
X157010108Y-83620017D01*
X157043349Y-83579190D01*
X157112585Y-83495250D01*
X157114323Y-83492017D01*
X157116643Y-83489168D01*
X157167674Y-83392795D01*
X157219211Y-83296948D01*
X157220284Y-83293442D01*
X157222005Y-83290192D01*
X157253288Y-83185604D01*
X157285102Y-83081654D01*
X157285470Y-83078010D01*
X157286525Y-83074483D01*
X157296794Y-82965887D01*
X157302057Y-82913775D01*
X157302066Y-82910134D01*
X157307721Y-82850331D01*
X157302344Y-82797832D01*
X157326272Y-73131116D01*
X161687419Y-69512292D01*
X161771933Y-69442933D01*
X161809698Y-69396917D01*
X161851560Y-69354598D01*
X161880938Y-69310110D01*
X161914768Y-69268889D01*
X161942832Y-69216385D01*
X161975631Y-69166717D01*
X161995768Y-69117348D01*
X162020903Y-69070323D01*
X162038182Y-69013363D01*
X162060665Y-68958241D01*
X162070784Y-68905888D01*
X162086261Y-68854867D01*
X162092096Y-68795624D01*
X162103392Y-68737181D01*
X162102800Y-68627839D01*
X162102800Y-62819538D01*
X162108329Y-62763399D01*
X162102800Y-62707260D01*
X162102800Y-62707254D01*
X162086261Y-62539333D01*
X162020903Y-62323877D01*
X161914768Y-62125311D01*
X161898523Y-62105517D01*
X161807724Y-61994877D01*
X161807718Y-61994871D01*
X161771933Y-61951267D01*
X161728329Y-61915482D01*
X160512327Y-60699482D01*
X160476533Y-60655867D01*
X160302489Y-60513032D01*
X160103923Y-60406897D01*
X159888467Y-60341539D01*
X159720546Y-60325000D01*
X159720539Y-60325000D01*
X159664400Y-60319471D01*
X159608261Y-60325000D01*
X142346938Y-60325000D01*
X142290799Y-60319471D01*
X142234660Y-60325000D01*
X142234654Y-60325000D01*
X142089400Y-60339306D01*
X142066732Y-60341539D01*
X142001374Y-60361365D01*
X141851277Y-60406897D01*
X141652711Y-60513032D01*
X141652709Y-60513033D01*
X141652710Y-60513033D01*
X141566805Y-60583534D01*
X141478667Y-60655867D01*
X141442877Y-60699477D01*
X136407155Y-65735200D01*
X130987800Y-65735200D01*
X130987800Y-65253872D01*
X131521733Y-65253872D01*
X131601788Y-65504989D01*
X131869239Y-65632887D01*
X132156503Y-65706150D01*
X132452540Y-65721964D01*
X132745974Y-65679720D01*
X133025528Y-65581041D01*
X133167812Y-65504989D01*
X133247867Y-65253872D01*
X132384800Y-64390805D01*
X131521733Y-65253872D01*
X130987800Y-65253872D01*
X130987800Y-65196592D01*
X131013810Y-65170582D01*
X131124519Y-65004894D01*
X131342128Y-65074267D01*
X132205195Y-64211200D01*
X132564405Y-64211200D01*
X133427472Y-65074267D01*
X133645081Y-65004894D01*
X133755790Y-65170582D01*
X133965418Y-65380210D01*
X134211915Y-65544914D01*
X134485808Y-65658364D01*
X134776570Y-65716200D01*
X135073030Y-65716200D01*
X135363792Y-65658364D01*
X135637685Y-65544914D01*
X135884182Y-65380210D01*
X136093810Y-65170582D01*
X136140838Y-65100200D01*
X136201940Y-65100200D01*
X136245600Y-65104500D01*
X136289260Y-65100200D01*
X136289267Y-65100200D01*
X136419874Y-65087336D01*
X136587451Y-65036503D01*
X136741891Y-64953953D01*
X136877259Y-64842859D01*
X136905099Y-64808936D01*
X145656236Y-56057800D01*
X152076940Y-56057800D01*
X152120600Y-56062100D01*
X152164260Y-56057800D01*
X152164267Y-56057800D01*
X152294874Y-56044936D01*
X152462451Y-55994103D01*
X152616891Y-55911553D01*
X152752259Y-55800459D01*
X152780098Y-55766537D01*
X153378742Y-55167894D01*
X153412659Y-55140059D01*
X153523753Y-55004691D01*
X153606303Y-54850251D01*
X153657136Y-54682674D01*
X153657747Y-54676476D01*
X153662559Y-54627612D01*
X153670000Y-54552067D01*
X153670000Y-54552060D01*
X153674300Y-54508400D01*
X153670000Y-54464740D01*
X153670000Y-52967838D01*
X153740382Y-52920810D01*
X153950010Y-52711182D01*
X154114714Y-52464685D01*
X154228164Y-52190792D01*
X154286000Y-51900030D01*
X154286000Y-51603570D01*
X154228164Y-51312808D01*
X154114714Y-51038915D01*
X153950010Y-50792418D01*
X153740382Y-50582790D01*
X153493885Y-50418086D01*
X153219992Y-50304636D01*
X152929230Y-50246800D01*
X152632770Y-50246800D01*
X152342008Y-50304636D01*
X152068115Y-50418086D01*
X151821618Y-50582790D01*
X151715930Y-50688478D01*
X151700502Y-50637620D01*
X151641537Y-50527306D01*
X151562185Y-50430615D01*
X151465494Y-50351263D01*
X151355180Y-50292298D01*
X151235482Y-50255988D01*
X151111000Y-50243728D01*
X150526750Y-50246800D01*
X150368000Y-50405550D01*
X150368000Y-51624800D01*
X150388000Y-51624800D01*
X150388000Y-51878800D01*
X150368000Y-51878800D01*
X150368000Y-53098050D01*
X150526750Y-53256800D01*
X151111000Y-53259872D01*
X151235482Y-53247612D01*
X151355180Y-53211302D01*
X151465494Y-53152337D01*
X151562185Y-53072985D01*
X151641537Y-52976294D01*
X151700502Y-52865980D01*
X151715930Y-52815122D01*
X151821618Y-52920810D01*
X151892001Y-52967838D01*
X151892000Y-54140164D01*
X151752365Y-54279800D01*
X145331660Y-54279800D01*
X145288000Y-54275500D01*
X145244340Y-54279800D01*
X145244333Y-54279800D01*
X145130325Y-54291029D01*
X145113725Y-54292664D01*
X145062892Y-54308084D01*
X144946149Y-54343497D01*
X144791709Y-54426047D01*
X144656341Y-54537141D01*
X144628506Y-54571058D01*
X136020778Y-63178786D01*
X135884182Y-63042190D01*
X135637685Y-62877486D01*
X135363792Y-62764036D01*
X135073030Y-62706200D01*
X134776570Y-62706200D01*
X134485808Y-62764036D01*
X134211915Y-62877486D01*
X133965418Y-63042190D01*
X133755790Y-63251818D01*
X133645081Y-63417506D01*
X133427472Y-63348133D01*
X132564405Y-64211200D01*
X132205195Y-64211200D01*
X131342128Y-63348133D01*
X131124519Y-63417506D01*
X131013810Y-63251818D01*
X130930520Y-63168528D01*
X131521733Y-63168528D01*
X132384800Y-64031595D01*
X133247867Y-63168528D01*
X133167812Y-62917411D01*
X132900361Y-62789513D01*
X132613097Y-62716250D01*
X132317060Y-62700436D01*
X132023626Y-62742680D01*
X131744072Y-62841359D01*
X131601788Y-62917411D01*
X131521733Y-63168528D01*
X130930520Y-63168528D01*
X130804182Y-63042190D01*
X130557685Y-62877486D01*
X130283792Y-62764036D01*
X129993030Y-62706200D01*
X129696570Y-62706200D01*
X129405808Y-62764036D01*
X129131915Y-62877486D01*
X128885418Y-63042190D01*
X128675790Y-63251818D01*
X128574800Y-63402960D01*
X128473810Y-63251818D01*
X128264182Y-63042190D01*
X128017685Y-62877486D01*
X127743792Y-62764036D01*
X127453030Y-62706200D01*
X127156570Y-62706200D01*
X126865808Y-62764036D01*
X126591915Y-62877486D01*
X126345418Y-63042190D01*
X126135790Y-63251818D01*
X126034800Y-63402960D01*
X125933810Y-63251818D01*
X125907800Y-63225808D01*
X125907800Y-61366400D01*
X126308861Y-61366400D01*
X126365000Y-61371929D01*
X126421139Y-61366400D01*
X126421146Y-61366400D01*
X126589067Y-61349861D01*
X126804523Y-61284503D01*
X127003089Y-61178368D01*
X127177133Y-61035533D01*
X127212927Y-60991918D01*
X128860723Y-59344123D01*
X128904333Y-59308333D01*
X129047168Y-59134289D01*
X129116333Y-59004889D01*
X129153303Y-58935724D01*
X129218661Y-58720268D01*
X129220688Y-58699683D01*
X129235200Y-58552346D01*
X129235200Y-58552339D01*
X129240729Y-58496200D01*
X129235200Y-58440061D01*
X129235200Y-54305814D01*
X129453183Y-54160163D01*
X129750563Y-53862783D01*
X129984212Y-53513102D01*
X130145153Y-53124556D01*
X130227200Y-52712079D01*
X130227200Y-52621800D01*
X148732928Y-52621800D01*
X148745188Y-52746282D01*
X148781498Y-52865980D01*
X148840463Y-52976294D01*
X148919815Y-53072985D01*
X149016506Y-53152337D01*
X149126820Y-53211302D01*
X149246518Y-53247612D01*
X149371000Y-53259872D01*
X149955250Y-53256800D01*
X150114000Y-53098050D01*
X150114000Y-51878800D01*
X148894750Y-51878800D01*
X148736000Y-52037550D01*
X148732928Y-52621800D01*
X130227200Y-52621800D01*
X130227200Y-52291521D01*
X130145153Y-51879044D01*
X129984212Y-51490498D01*
X129750563Y-51140817D01*
X129491546Y-50881800D01*
X148732928Y-50881800D01*
X148736000Y-51466050D01*
X148894750Y-51624800D01*
X150114000Y-51624800D01*
X150114000Y-50405550D01*
X149955250Y-50246800D01*
X149371000Y-50243728D01*
X149246518Y-50255988D01*
X149126820Y-50292298D01*
X149016506Y-50351263D01*
X148919815Y-50430615D01*
X148840463Y-50527306D01*
X148781498Y-50637620D01*
X148745188Y-50757318D01*
X148732928Y-50881800D01*
X129491546Y-50881800D01*
X129453183Y-50843437D01*
X129103502Y-50609788D01*
X128714956Y-50448847D01*
X128302479Y-50366800D01*
X127881921Y-50366800D01*
X127469444Y-50448847D01*
X127080898Y-50609788D01*
X126731217Y-50843437D01*
X126433837Y-51140817D01*
X126200188Y-51490498D01*
X126039247Y-51879044D01*
X125957200Y-52291521D01*
X125957200Y-52712079D01*
X126039247Y-53124556D01*
X126200188Y-53513102D01*
X126433837Y-53862783D01*
X126731217Y-54160163D01*
X126949200Y-54305815D01*
X126949201Y-58022753D01*
X125891555Y-59080400D01*
X125405139Y-59080400D01*
X125349000Y-59074871D01*
X125292861Y-59080400D01*
X125292854Y-59080400D01*
X125124933Y-59096939D01*
X124909476Y-59162297D01*
X124858179Y-59189716D01*
X124710911Y-59268432D01*
X124536867Y-59411267D01*
X124501072Y-59454883D01*
X123996283Y-59959672D01*
X123952667Y-59995467D01*
X123809832Y-60169512D01*
X123703697Y-60368078D01*
X123638339Y-60583534D01*
X123621800Y-60751455D01*
X123621800Y-60751461D01*
X123616271Y-60807600D01*
X123621800Y-60863739D01*
X123621801Y-63170020D01*
X123583205Y-63097813D01*
X123472762Y-62963238D01*
X123367800Y-62877098D01*
X123367800Y-56785245D01*
X123780724Y-56372322D01*
X123824333Y-56336533D01*
X123967168Y-56162489D01*
X124073303Y-55963923D01*
X124122889Y-55800459D01*
X124138661Y-55748468D01*
X124146873Y-55665091D01*
X124155200Y-55580546D01*
X124155200Y-55580539D01*
X124160729Y-55524400D01*
X124155200Y-55468261D01*
X124155200Y-54639872D01*
X124512200Y-54639872D01*
X124636682Y-54627612D01*
X124756380Y-54591302D01*
X124866694Y-54532337D01*
X124963385Y-54452985D01*
X125042737Y-54356294D01*
X125101702Y-54245980D01*
X125138012Y-54126282D01*
X125150272Y-54001800D01*
X125150272Y-51001800D01*
X125138012Y-50877318D01*
X125101702Y-50757620D01*
X125042737Y-50647306D01*
X124963385Y-50550615D01*
X124866694Y-50471263D01*
X124756380Y-50412298D01*
X124636682Y-50375988D01*
X124512200Y-50363728D01*
X121512200Y-50363728D01*
X121387718Y-50375988D01*
X121268020Y-50412298D01*
X121157706Y-50471263D01*
X121061015Y-50550615D01*
X120981663Y-50647306D01*
X120922698Y-50757620D01*
X120886388Y-50877318D01*
X120874128Y-51001800D01*
X120874128Y-54001800D01*
X120886388Y-54126282D01*
X120922698Y-54245980D01*
X120981663Y-54356294D01*
X121061015Y-54452985D01*
X121157706Y-54532337D01*
X121268020Y-54591302D01*
X121387718Y-54627612D01*
X121512200Y-54639872D01*
X121869200Y-54639872D01*
X121869200Y-55050954D01*
X121456277Y-55463877D01*
X121412668Y-55499667D01*
X121269833Y-55673711D01*
X121229875Y-55748468D01*
X121163698Y-55872277D01*
X121098339Y-56087733D01*
X121076271Y-56311800D01*
X121081801Y-56367949D01*
X121081800Y-62877098D01*
X120976838Y-62963238D01*
X120866395Y-63097813D01*
X120784328Y-63251349D01*
X120733792Y-63417945D01*
X120716728Y-63591199D01*
X120716728Y-64831201D01*
X120733792Y-65004455D01*
X120784328Y-65171051D01*
X120866395Y-65324587D01*
X120976838Y-65459162D01*
X121111413Y-65569605D01*
X121264949Y-65651672D01*
X121431545Y-65702208D01*
X121604799Y-65719272D01*
X122844801Y-65719272D01*
X123018055Y-65702208D01*
X123184651Y-65651672D01*
X123338187Y-65569605D01*
X123472762Y-65459162D01*
X123583205Y-65324587D01*
X123621801Y-65252380D01*
X123621801Y-65769754D01*
X123478555Y-65913000D01*
X119878846Y-65913000D01*
X119161127Y-65195282D01*
X119125333Y-65151667D01*
X118951289Y-65008832D01*
X118752723Y-64902697D01*
X118537267Y-64837339D01*
X118369346Y-64820800D01*
X118369339Y-64820800D01*
X118313200Y-64815271D01*
X118257061Y-64820800D01*
X115227702Y-64820800D01*
X115141562Y-64715838D01*
X115006987Y-64605395D01*
X114853451Y-64523328D01*
X114686855Y-64472792D01*
X114513601Y-64455728D01*
X113273599Y-64455728D01*
X113100345Y-64472792D01*
X112933749Y-64523328D01*
X112780213Y-64605395D01*
X112645638Y-64715838D01*
X112535195Y-64850413D01*
X112453128Y-65003949D01*
X112402592Y-65170545D01*
X112385528Y-65343799D01*
X112385528Y-66583801D01*
X112402592Y-66757055D01*
X112453128Y-66923651D01*
X112535195Y-67077187D01*
X112645638Y-67211762D01*
X112780213Y-67322205D01*
X112933749Y-67404272D01*
X113038526Y-67436056D01*
X113030533Y-67461128D01*
X113893600Y-68324195D01*
X114756667Y-67461128D01*
X114748674Y-67436056D01*
X114853451Y-67404272D01*
X115006987Y-67322205D01*
X115141562Y-67211762D01*
X115227702Y-67106800D01*
X117839755Y-67106800D01*
X118557477Y-67824523D01*
X118593267Y-67868133D01*
X118636877Y-67903923D01*
X118636878Y-67903924D01*
X118656931Y-67920381D01*
X118767311Y-68010968D01*
X118965877Y-68117103D01*
X119115974Y-68162635D01*
X119181332Y-68182461D01*
X119204000Y-68184694D01*
X119349254Y-68199000D01*
X119349260Y-68199000D01*
X119405399Y-68204529D01*
X119461538Y-68199000D01*
X123895861Y-68199000D01*
X123952000Y-68204529D01*
X124008139Y-68199000D01*
X124008146Y-68199000D01*
X124176067Y-68182461D01*
X124391523Y-68117103D01*
X124590089Y-68010968D01*
X124764133Y-67868133D01*
X124799927Y-67824518D01*
X125533323Y-67091123D01*
X125576933Y-67055333D01*
X125719768Y-66881289D01*
X125825903Y-66682723D01*
X125891261Y-66467267D01*
X125907800Y-66299346D01*
X125907800Y-66299339D01*
X125913329Y-66243200D01*
X125907800Y-66187061D01*
X125907800Y-65196592D01*
X125933810Y-65170582D01*
X126034800Y-65019440D01*
X126135790Y-65170582D01*
X126161800Y-65196592D01*
X126161801Y-68919353D01*
X125866155Y-69215000D01*
X119563138Y-69215000D01*
X119506999Y-69209471D01*
X119450860Y-69215000D01*
X119450854Y-69215000D01*
X119305600Y-69229306D01*
X119282932Y-69231539D01*
X119219992Y-69250632D01*
X119067477Y-69296897D01*
X118868911Y-69403032D01*
X118694867Y-69545867D01*
X118659077Y-69589477D01*
X113125082Y-75123473D01*
X113081467Y-75159267D01*
X112938632Y-75333312D01*
X112832497Y-75531878D01*
X112767139Y-75747334D01*
X112750600Y-75915255D01*
X112750600Y-75915261D01*
X112745071Y-75971400D01*
X112750600Y-76027539D01*
X112750600Y-76250198D01*
X112645638Y-76336338D01*
X112535195Y-76470913D01*
X112453128Y-76624449D01*
X112402592Y-76791045D01*
X112385528Y-76964299D01*
X112385528Y-78204301D01*
X112402592Y-78377555D01*
X112453128Y-78544151D01*
X112535195Y-78697687D01*
X112645638Y-78832262D01*
X112780213Y-78942705D01*
X112933749Y-79024772D01*
X113038526Y-79056556D01*
X113030533Y-79081628D01*
X113893600Y-79944695D01*
X114756667Y-79081628D01*
X114748674Y-79056556D01*
X114853451Y-79024772D01*
X115006987Y-78942705D01*
X115141562Y-78832262D01*
X115227702Y-78727300D01*
X119503455Y-78727300D01*
X121668977Y-80892823D01*
X121704767Y-80936433D01*
X121878811Y-81079268D01*
X122077377Y-81185403D01*
X122227474Y-81230935D01*
X122292832Y-81250761D01*
X122315500Y-81252994D01*
X122460754Y-81267300D01*
X122460760Y-81267300D01*
X122516899Y-81272829D01*
X122573038Y-81267300D01*
X125176408Y-81267300D01*
X125202418Y-81293310D01*
X125448915Y-81458014D01*
X125722808Y-81571464D01*
X126013570Y-81629300D01*
X126310030Y-81629300D01*
X126600792Y-81571464D01*
X126874685Y-81458014D01*
X127121182Y-81293310D01*
X127147192Y-81267300D01*
X137407208Y-81267300D01*
X137433218Y-81293310D01*
X137679715Y-81458014D01*
X137953608Y-81571464D01*
X138244370Y-81629300D01*
X138540830Y-81629300D01*
X138831592Y-81571464D01*
X139105485Y-81458014D01*
X139351982Y-81293310D01*
X139377992Y-81267300D01*
X145244561Y-81267300D01*
X145300700Y-81272829D01*
X145356839Y-81267300D01*
X145356846Y-81267300D01*
X145524767Y-81250761D01*
X145740223Y-81185403D01*
X145938789Y-81079268D01*
X146112833Y-80936433D01*
X146148627Y-80892818D01*
X147044146Y-79997300D01*
X148082219Y-79997300D01*
X148010013Y-80035895D01*
X147875438Y-80146338D01*
X147764995Y-80280913D01*
X147682928Y-80434449D01*
X147632392Y-80601045D01*
X147615328Y-80774299D01*
X147615328Y-82014301D01*
X147628063Y-82143600D01*
X128782484Y-82143600D01*
X128699970Y-82139278D01*
X128614509Y-82151671D01*
X128528533Y-82160139D01*
X128503272Y-82167802D01*
X128477149Y-82171590D01*
X128395732Y-82200424D01*
X128313077Y-82225497D01*
X128289795Y-82237941D01*
X128264914Y-82246753D01*
X128190698Y-82290910D01*
X128114511Y-82331632D01*
X128094102Y-82348382D01*
X128071421Y-82361876D01*
X128007241Y-82419666D01*
X127940467Y-82474467D01*
X127888033Y-82538358D01*
X126642958Y-83903152D01*
X126619667Y-83922267D01*
X126567227Y-83986166D01*
X126549551Y-84005541D01*
X126531638Y-84029531D01*
X126476832Y-84096312D01*
X126464386Y-84119596D01*
X126448597Y-84140742D01*
X126411420Y-84218691D01*
X126370697Y-84294878D01*
X126363034Y-84320140D01*
X126351672Y-84343962D01*
X126330414Y-84427672D01*
X126305339Y-84510334D01*
X126302752Y-84536604D01*
X126296255Y-84562187D01*
X126291737Y-84648435D01*
X126288800Y-84678255D01*
X126288800Y-84704503D01*
X126284477Y-84787029D01*
X126288800Y-84816839D01*
X126288801Y-88782153D01*
X125789955Y-89281000D01*
X125648592Y-89281000D01*
X125622582Y-89254990D01*
X125456894Y-89144281D01*
X125526267Y-88926672D01*
X124663200Y-88063605D01*
X123800133Y-88926672D01*
X123869506Y-89144281D01*
X123703818Y-89254990D01*
X123494190Y-89464618D01*
X123329486Y-89711115D01*
X123216036Y-89985008D01*
X123158200Y-90275770D01*
X123158200Y-90572230D01*
X123216036Y-90862992D01*
X123329486Y-91136885D01*
X123494190Y-91383382D01*
X123658375Y-91547567D01*
X123549813Y-91605595D01*
X123415238Y-91716038D01*
X123329098Y-91821000D01*
X117491246Y-91821000D01*
X116646527Y-90976282D01*
X116610733Y-90932667D01*
X116436689Y-90789832D01*
X116238123Y-90683697D01*
X116022667Y-90618339D01*
X115854746Y-90601800D01*
X115854739Y-90601800D01*
X115798600Y-90596271D01*
X115742461Y-90601800D01*
X113727702Y-90601800D01*
X113641562Y-90496838D01*
X113506987Y-90386395D01*
X113353451Y-90304328D01*
X113248674Y-90272544D01*
X113256667Y-90247472D01*
X112393600Y-89384405D01*
X111530533Y-90247472D01*
X111538526Y-90272544D01*
X111433749Y-90304328D01*
X111280213Y-90386395D01*
X111145638Y-90496838D01*
X111035195Y-90631413D01*
X110953128Y-90784949D01*
X110902592Y-90951545D01*
X110885528Y-91124799D01*
X105979231Y-91124799D01*
X105645326Y-90986491D01*
X105213529Y-90900601D01*
X104773273Y-90900601D01*
X104341476Y-90986491D01*
X103934732Y-91154970D01*
X103568672Y-91399563D01*
X103257363Y-91710872D01*
X103012770Y-92076932D01*
X102844291Y-92483676D01*
X102758401Y-92915473D01*
X99618400Y-92915473D01*
X99618400Y-89272540D01*
X110882836Y-89272540D01*
X110925080Y-89565974D01*
X111023759Y-89845528D01*
X111099811Y-89987812D01*
X111350928Y-90067867D01*
X112213995Y-89204800D01*
X112573205Y-89204800D01*
X113436272Y-90067867D01*
X113687389Y-89987812D01*
X113815287Y-89720361D01*
X113888550Y-89433097D01*
X113904364Y-89137060D01*
X113862120Y-88843626D01*
X113763441Y-88564072D01*
X113687389Y-88421788D01*
X113436272Y-88341733D01*
X112573205Y-89204800D01*
X112213995Y-89204800D01*
X111350928Y-88341733D01*
X111099811Y-88421788D01*
X110971913Y-88689239D01*
X110898650Y-88976503D01*
X110882836Y-89272540D01*
X99618400Y-89272540D01*
X99618400Y-88162128D01*
X111530533Y-88162128D01*
X112393600Y-89025195D01*
X113256667Y-88162128D01*
X113189597Y-87951740D01*
X123152436Y-87951740D01*
X123194680Y-88245174D01*
X123293359Y-88524728D01*
X123369411Y-88667012D01*
X123620528Y-88747067D01*
X124483595Y-87884000D01*
X124842805Y-87884000D01*
X125705872Y-88747067D01*
X125956989Y-88667012D01*
X126084887Y-88399561D01*
X126158150Y-88112297D01*
X126173964Y-87816260D01*
X126131720Y-87522826D01*
X126033041Y-87243272D01*
X125956989Y-87100988D01*
X125705872Y-87020933D01*
X124842805Y-87884000D01*
X124483595Y-87884000D01*
X123620528Y-87020933D01*
X123369411Y-87100988D01*
X123241513Y-87368439D01*
X123168250Y-87655703D01*
X123152436Y-87951740D01*
X113189597Y-87951740D01*
X113176612Y-87911011D01*
X112909161Y-87783113D01*
X112621897Y-87709850D01*
X112325860Y-87694036D01*
X112032426Y-87736280D01*
X111752872Y-87834959D01*
X111610588Y-87911011D01*
X111530533Y-88162128D01*
X99618400Y-88162128D01*
X99618400Y-86841328D01*
X123800133Y-86841328D01*
X124663200Y-87704395D01*
X125526267Y-86841328D01*
X125446212Y-86590211D01*
X125178761Y-86462313D01*
X124891497Y-86389050D01*
X124595460Y-86373236D01*
X124302026Y-86415480D01*
X124022472Y-86514159D01*
X123880188Y-86590211D01*
X123800133Y-86841328D01*
X99618400Y-86841328D01*
X99618400Y-81166972D01*
X113030533Y-81166972D01*
X113110588Y-81418089D01*
X113378039Y-81545987D01*
X113665303Y-81619250D01*
X113961340Y-81635064D01*
X114254774Y-81592820D01*
X114534328Y-81494141D01*
X114676612Y-81418089D01*
X114756667Y-81166972D01*
X113893600Y-80303905D01*
X113030533Y-81166972D01*
X99618400Y-81166972D01*
X99618400Y-80192040D01*
X112382836Y-80192040D01*
X112425080Y-80485474D01*
X112523759Y-80765028D01*
X112599811Y-80907312D01*
X112850928Y-80987367D01*
X113713995Y-80124300D01*
X114073205Y-80124300D01*
X114936272Y-80987367D01*
X115187389Y-80907312D01*
X115315287Y-80639861D01*
X115388550Y-80352597D01*
X115404364Y-80056560D01*
X115362120Y-79763126D01*
X115263441Y-79483572D01*
X115187389Y-79341288D01*
X114936272Y-79261233D01*
X114073205Y-80124300D01*
X113713995Y-80124300D01*
X112850928Y-79261233D01*
X112599811Y-79341288D01*
X112471913Y-79608739D01*
X112398650Y-79896003D01*
X112382836Y-80192040D01*
X99618400Y-80192040D01*
X99618400Y-69546472D01*
X113030533Y-69546472D01*
X113110588Y-69797589D01*
X113378039Y-69925487D01*
X113665303Y-69998750D01*
X113961340Y-70014564D01*
X114254774Y-69972320D01*
X114534328Y-69873641D01*
X114676612Y-69797589D01*
X114756667Y-69546472D01*
X113893600Y-68683405D01*
X113030533Y-69546472D01*
X99618400Y-69546472D01*
X99618400Y-68571540D01*
X112382836Y-68571540D01*
X112425080Y-68864974D01*
X112523759Y-69144528D01*
X112599811Y-69286812D01*
X112850928Y-69366867D01*
X113713995Y-68503800D01*
X114073205Y-68503800D01*
X114936272Y-69366867D01*
X115187389Y-69286812D01*
X115315287Y-69019361D01*
X115388550Y-68732097D01*
X115404364Y-68436060D01*
X115362120Y-68142626D01*
X115263441Y-67863072D01*
X115187389Y-67720788D01*
X114936272Y-67640733D01*
X114073205Y-68503800D01*
X113713995Y-68503800D01*
X112850928Y-67640733D01*
X112599811Y-67720788D01*
X112471913Y-67988239D01*
X112398650Y-68275503D01*
X112382836Y-68571540D01*
X99618400Y-68571540D01*
X99618400Y-48465473D01*
X102758401Y-48465473D01*
X102758401Y-48905729D01*
X102844291Y-49337526D01*
X103012770Y-49744270D01*
X103257363Y-50110330D01*
X103568672Y-50421639D01*
X103934732Y-50666232D01*
X104341476Y-50834711D01*
X104773273Y-50920601D01*
X105213529Y-50920601D01*
X105645326Y-50834711D01*
X106052070Y-50666232D01*
X106418130Y-50421639D01*
X106729439Y-50110330D01*
X106974032Y-49744270D01*
X107142511Y-49337526D01*
X107228401Y-48905729D01*
X107228401Y-48465473D01*
X156733401Y-48465473D01*
X156733401Y-48905729D01*
X156819291Y-49337526D01*
X156987770Y-49744270D01*
X157232363Y-50110330D01*
X157543672Y-50421639D01*
X157909732Y-50666232D01*
X158316476Y-50834711D01*
X158748273Y-50920601D01*
X159188529Y-50920601D01*
X159620326Y-50834711D01*
X160027070Y-50666232D01*
X160393130Y-50421639D01*
X160704439Y-50110330D01*
X160949032Y-49744270D01*
X161117511Y-49337526D01*
X161203401Y-48905729D01*
X161203401Y-48465473D01*
X161117511Y-48033676D01*
X160949032Y-47626932D01*
X160704439Y-47260872D01*
X160393130Y-46949563D01*
X160027070Y-46704970D01*
X159620326Y-46536491D01*
X159188529Y-46450601D01*
X158748273Y-46450601D01*
X158316476Y-46536491D01*
X157909732Y-46704970D01*
X157543672Y-46949563D01*
X157232363Y-47260872D01*
X156987770Y-47626932D01*
X156819291Y-48033676D01*
X156733401Y-48465473D01*
X107228401Y-48465473D01*
X107142511Y-48033676D01*
X106974032Y-47626932D01*
X106729439Y-47260872D01*
X106418130Y-46949563D01*
X106052070Y-46704970D01*
X105645326Y-46536491D01*
X105213529Y-46450601D01*
X104773273Y-46450601D01*
X104341476Y-46536491D01*
X103934732Y-46704970D01*
X103568672Y-46949563D01*
X103257363Y-47260872D01*
X103012770Y-47626932D01*
X102844291Y-48033676D01*
X102758401Y-48465473D01*
X99618400Y-48465473D01*
X99618400Y-45287800D01*
X163703400Y-45287800D01*
X163703401Y-98273000D01*
%TA.AperFunction,Conductor*%
D18*
G36*
X163703401Y-98273000D02*
G01*
X99618400Y-98273000D01*
X99618400Y-92915473D01*
X102758401Y-92915473D01*
X102758401Y-93355729D01*
X102844291Y-93787526D01*
X103012770Y-94194270D01*
X103257363Y-94560330D01*
X103568672Y-94871639D01*
X103934732Y-95116232D01*
X104341476Y-95284711D01*
X104773273Y-95370601D01*
X105213529Y-95370601D01*
X105645326Y-95284711D01*
X106052070Y-95116232D01*
X106418130Y-94871639D01*
X106729439Y-94560330D01*
X106974032Y-94194270D01*
X107142511Y-93787526D01*
X107228401Y-93355729D01*
X107228401Y-92915473D01*
X107142511Y-92483676D01*
X106974032Y-92076932D01*
X106729439Y-91710872D01*
X106418130Y-91399563D01*
X106052070Y-91154970D01*
X105979231Y-91124799D01*
X110885528Y-91124799D01*
X110885528Y-92364801D01*
X110902592Y-92538055D01*
X110953128Y-92704651D01*
X111035195Y-92858187D01*
X111145638Y-92992762D01*
X111280213Y-93103205D01*
X111433749Y-93185272D01*
X111600345Y-93235808D01*
X111773599Y-93252872D01*
X113013601Y-93252872D01*
X113186855Y-93235808D01*
X113353451Y-93185272D01*
X113506987Y-93103205D01*
X113641562Y-92992762D01*
X113727702Y-92887800D01*
X115325155Y-92887800D01*
X116169877Y-93732523D01*
X116205667Y-93776133D01*
X116379711Y-93918968D01*
X116578277Y-94025103D01*
X116728374Y-94070635D01*
X116793732Y-94090461D01*
X116816400Y-94092694D01*
X116961654Y-94107000D01*
X116961660Y-94107000D01*
X117017799Y-94112529D01*
X117073938Y-94107000D01*
X123329098Y-94107000D01*
X123415238Y-94211962D01*
X123549813Y-94322405D01*
X123703349Y-94404472D01*
X123869945Y-94455008D01*
X124043199Y-94472072D01*
X125283201Y-94472072D01*
X125456455Y-94455008D01*
X125623051Y-94404472D01*
X125776587Y-94322405D01*
X125911162Y-94211962D01*
X125997302Y-94107000D01*
X138670698Y-94107000D01*
X138756838Y-94211962D01*
X138891413Y-94322405D01*
X139044949Y-94404472D01*
X139211545Y-94455008D01*
X139384799Y-94472072D01*
X140624801Y-94472072D01*
X140798055Y-94455008D01*
X140964651Y-94404472D01*
X141118187Y-94322405D01*
X141252762Y-94211962D01*
X141338902Y-94107000D01*
X142284395Y-94107000D01*
X142339462Y-94112527D01*
X142396671Y-94107000D01*
X142397746Y-94107000D01*
X142452894Y-94101568D01*
X142563569Y-94090876D01*
X142564596Y-94090566D01*
X142565667Y-94090461D01*
X142672623Y-94058016D01*
X142779146Y-94025919D01*
X142780091Y-94025416D01*
X142781123Y-94025103D01*
X142879812Y-93972353D01*
X142977909Y-93920154D01*
X142978738Y-93919476D01*
X142979689Y-93918968D01*
X143066224Y-93847950D01*
X143108541Y-93813353D01*
X143109291Y-93812606D01*
X143153733Y-93776133D01*
X143188852Y-93733340D01*
X144009771Y-92915473D01*
X156733401Y-92915473D01*
X156733401Y-93355729D01*
X156819291Y-93787526D01*
X156987770Y-94194270D01*
X157232363Y-94560330D01*
X157543672Y-94871639D01*
X157909732Y-95116232D01*
X158316476Y-95284711D01*
X158748273Y-95370601D01*
X159188529Y-95370601D01*
X159620326Y-95284711D01*
X160027070Y-95116232D01*
X160393130Y-94871639D01*
X160704439Y-94560330D01*
X160949032Y-94194270D01*
X161117511Y-93787526D01*
X161203401Y-93355729D01*
X161203401Y-92915473D01*
X161117511Y-92483676D01*
X160949032Y-92076932D01*
X160704439Y-91710872D01*
X160393130Y-91399563D01*
X160027070Y-91154970D01*
X159620326Y-90986491D01*
X159188529Y-90900601D01*
X158748273Y-90900601D01*
X158316476Y-90986491D01*
X157909732Y-91154970D01*
X157543672Y-91399563D01*
X157232363Y-91710872D01*
X156987770Y-92076932D01*
X156819291Y-92483676D01*
X156733401Y-92915473D01*
X144009771Y-92915473D01*
X149649620Y-87296592D01*
X152857966Y-87274766D01*
X152912468Y-87279920D01*
X152970249Y-87274002D01*
X152971919Y-87273991D01*
X153026036Y-87268289D01*
X153136448Y-87256981D01*
X153138059Y-87256485D01*
X153139724Y-87256310D01*
X153245463Y-87223447D01*
X153351648Y-87190784D01*
X153353126Y-87189986D01*
X153354730Y-87189488D01*
X153452297Y-87136482D01*
X153549799Y-87083877D01*
X153551090Y-87082809D01*
X153552570Y-87082005D01*
X153637810Y-87011074D01*
X153679815Y-86976327D01*
X153680994Y-86975139D01*
X153725638Y-86937989D01*
X153760079Y-86895436D01*
X156928453Y-83702310D01*
X156969320Y-83668940D01*
X157007531Y-83622614D01*
X157010108Y-83620017D01*
X157043349Y-83579190D01*
X157112585Y-83495250D01*
X157114323Y-83492017D01*
X157116643Y-83489168D01*
X157167674Y-83392795D01*
X157219211Y-83296948D01*
X157220284Y-83293442D01*
X157222005Y-83290192D01*
X157253288Y-83185604D01*
X157285102Y-83081654D01*
X157285470Y-83078010D01*
X157286525Y-83074483D01*
X157296794Y-82965887D01*
X157302057Y-82913775D01*
X157302066Y-82910134D01*
X157307721Y-82850331D01*
X157302344Y-82797832D01*
X157326272Y-73131116D01*
X161687419Y-69512292D01*
X161771933Y-69442933D01*
X161809698Y-69396917D01*
X161851560Y-69354598D01*
X161880938Y-69310110D01*
X161914768Y-69268889D01*
X161942832Y-69216385D01*
X161975631Y-69166717D01*
X161995768Y-69117348D01*
X162020903Y-69070323D01*
X162038182Y-69013363D01*
X162060665Y-68958241D01*
X162070784Y-68905888D01*
X162086261Y-68854867D01*
X162092096Y-68795624D01*
X162103392Y-68737181D01*
X162102800Y-68627839D01*
X162102800Y-62819538D01*
X162108329Y-62763399D01*
X162102800Y-62707260D01*
X162102800Y-62707254D01*
X162086261Y-62539333D01*
X162020903Y-62323877D01*
X161914768Y-62125311D01*
X161898523Y-62105517D01*
X161807724Y-61994877D01*
X161807718Y-61994871D01*
X161771933Y-61951267D01*
X161728329Y-61915482D01*
X160512327Y-60699482D01*
X160476533Y-60655867D01*
X160302489Y-60513032D01*
X160103923Y-60406897D01*
X159888467Y-60341539D01*
X159720546Y-60325000D01*
X159720539Y-60325000D01*
X159664400Y-60319471D01*
X159608261Y-60325000D01*
X142346938Y-60325000D01*
X142290799Y-60319471D01*
X142234660Y-60325000D01*
X142234654Y-60325000D01*
X142089400Y-60339306D01*
X142066732Y-60341539D01*
X142001374Y-60361365D01*
X141851277Y-60406897D01*
X141652711Y-60513032D01*
X141652709Y-60513033D01*
X141652710Y-60513033D01*
X141566805Y-60583534D01*
X141478667Y-60655867D01*
X141442877Y-60699477D01*
X136407155Y-65735200D01*
X130987800Y-65735200D01*
X130987800Y-65253872D01*
X131521733Y-65253872D01*
X131601788Y-65504989D01*
X131869239Y-65632887D01*
X132156503Y-65706150D01*
X132452540Y-65721964D01*
X132745974Y-65679720D01*
X133025528Y-65581041D01*
X133167812Y-65504989D01*
X133247867Y-65253872D01*
X132384800Y-64390805D01*
X131521733Y-65253872D01*
X130987800Y-65253872D01*
X130987800Y-65196592D01*
X131013810Y-65170582D01*
X131124519Y-65004894D01*
X131342128Y-65074267D01*
X132205195Y-64211200D01*
X132564405Y-64211200D01*
X133427472Y-65074267D01*
X133645081Y-65004894D01*
X133755790Y-65170582D01*
X133965418Y-65380210D01*
X134211915Y-65544914D01*
X134485808Y-65658364D01*
X134776570Y-65716200D01*
X135073030Y-65716200D01*
X135363792Y-65658364D01*
X135637685Y-65544914D01*
X135884182Y-65380210D01*
X136093810Y-65170582D01*
X136140838Y-65100200D01*
X136201940Y-65100200D01*
X136245600Y-65104500D01*
X136289260Y-65100200D01*
X136289267Y-65100200D01*
X136419874Y-65087336D01*
X136587451Y-65036503D01*
X136741891Y-64953953D01*
X136877259Y-64842859D01*
X136905099Y-64808936D01*
X145656236Y-56057800D01*
X152076940Y-56057800D01*
X152120600Y-56062100D01*
X152164260Y-56057800D01*
X152164267Y-56057800D01*
X152294874Y-56044936D01*
X152462451Y-55994103D01*
X152616891Y-55911553D01*
X152752259Y-55800459D01*
X152780098Y-55766537D01*
X153378742Y-55167894D01*
X153412659Y-55140059D01*
X153523753Y-55004691D01*
X153606303Y-54850251D01*
X153657136Y-54682674D01*
X153657747Y-54676476D01*
X153662559Y-54627612D01*
X153670000Y-54552067D01*
X153670000Y-54552060D01*
X153674300Y-54508400D01*
X153670000Y-54464740D01*
X153670000Y-52967838D01*
X153740382Y-52920810D01*
X153950010Y-52711182D01*
X154114714Y-52464685D01*
X154228164Y-52190792D01*
X154286000Y-51900030D01*
X154286000Y-51603570D01*
X154228164Y-51312808D01*
X154114714Y-51038915D01*
X153950010Y-50792418D01*
X153740382Y-50582790D01*
X153493885Y-50418086D01*
X153219992Y-50304636D01*
X152929230Y-50246800D01*
X152632770Y-50246800D01*
X152342008Y-50304636D01*
X152068115Y-50418086D01*
X151821618Y-50582790D01*
X151715930Y-50688478D01*
X151700502Y-50637620D01*
X151641537Y-50527306D01*
X151562185Y-50430615D01*
X151465494Y-50351263D01*
X151355180Y-50292298D01*
X151235482Y-50255988D01*
X151111000Y-50243728D01*
X150526750Y-50246800D01*
X150368000Y-50405550D01*
X150368000Y-51624800D01*
X150388000Y-51624800D01*
X150388000Y-51878800D01*
X150368000Y-51878800D01*
X150368000Y-53098050D01*
X150526750Y-53256800D01*
X151111000Y-53259872D01*
X151235482Y-53247612D01*
X151355180Y-53211302D01*
X151465494Y-53152337D01*
X151562185Y-53072985D01*
X151641537Y-52976294D01*
X151700502Y-52865980D01*
X151715930Y-52815122D01*
X151821618Y-52920810D01*
X151892001Y-52967838D01*
X151892000Y-54140164D01*
X151752365Y-54279800D01*
X145331660Y-54279800D01*
X145288000Y-54275500D01*
X145244340Y-54279800D01*
X145244333Y-54279800D01*
X145130325Y-54291029D01*
X145113725Y-54292664D01*
X145062892Y-54308084D01*
X144946149Y-54343497D01*
X144791709Y-54426047D01*
X144656341Y-54537141D01*
X144628506Y-54571058D01*
X136020778Y-63178786D01*
X135884182Y-63042190D01*
X135637685Y-62877486D01*
X135363792Y-62764036D01*
X135073030Y-62706200D01*
X134776570Y-62706200D01*
X134485808Y-62764036D01*
X134211915Y-62877486D01*
X133965418Y-63042190D01*
X133755790Y-63251818D01*
X133645081Y-63417506D01*
X133427472Y-63348133D01*
X132564405Y-64211200D01*
X132205195Y-64211200D01*
X131342128Y-63348133D01*
X131124519Y-63417506D01*
X131013810Y-63251818D01*
X130930520Y-63168528D01*
X131521733Y-63168528D01*
X132384800Y-64031595D01*
X133247867Y-63168528D01*
X133167812Y-62917411D01*
X132900361Y-62789513D01*
X132613097Y-62716250D01*
X132317060Y-62700436D01*
X132023626Y-62742680D01*
X131744072Y-62841359D01*
X131601788Y-62917411D01*
X131521733Y-63168528D01*
X130930520Y-63168528D01*
X130804182Y-63042190D01*
X130557685Y-62877486D01*
X130283792Y-62764036D01*
X129993030Y-62706200D01*
X129696570Y-62706200D01*
X129405808Y-62764036D01*
X129131915Y-62877486D01*
X128885418Y-63042190D01*
X128675790Y-63251818D01*
X128574800Y-63402960D01*
X128473810Y-63251818D01*
X128264182Y-63042190D01*
X128017685Y-62877486D01*
X127743792Y-62764036D01*
X127453030Y-62706200D01*
X127156570Y-62706200D01*
X126865808Y-62764036D01*
X126591915Y-62877486D01*
X126345418Y-63042190D01*
X126135790Y-63251818D01*
X126034800Y-63402960D01*
X125933810Y-63251818D01*
X125907800Y-63225808D01*
X125907800Y-61366400D01*
X126308861Y-61366400D01*
X126365000Y-61371929D01*
X126421139Y-61366400D01*
X126421146Y-61366400D01*
X126589067Y-61349861D01*
X126804523Y-61284503D01*
X127003089Y-61178368D01*
X127177133Y-61035533D01*
X127212927Y-60991918D01*
X128860723Y-59344123D01*
X128904333Y-59308333D01*
X129047168Y-59134289D01*
X129116333Y-59004889D01*
X129153303Y-58935724D01*
X129218661Y-58720268D01*
X129220688Y-58699683D01*
X129235200Y-58552346D01*
X129235200Y-58552339D01*
X129240729Y-58496200D01*
X129235200Y-58440061D01*
X129235200Y-54305814D01*
X129453183Y-54160163D01*
X129750563Y-53862783D01*
X129984212Y-53513102D01*
X130145153Y-53124556D01*
X130227200Y-52712079D01*
X130227200Y-52621800D01*
X148732928Y-52621800D01*
X148745188Y-52746282D01*
X148781498Y-52865980D01*
X148840463Y-52976294D01*
X148919815Y-53072985D01*
X149016506Y-53152337D01*
X149126820Y-53211302D01*
X149246518Y-53247612D01*
X149371000Y-53259872D01*
X149955250Y-53256800D01*
X150114000Y-53098050D01*
X150114000Y-51878800D01*
X148894750Y-51878800D01*
X148736000Y-52037550D01*
X148732928Y-52621800D01*
X130227200Y-52621800D01*
X130227200Y-52291521D01*
X130145153Y-51879044D01*
X129984212Y-51490498D01*
X129750563Y-51140817D01*
X129491546Y-50881800D01*
X148732928Y-50881800D01*
X148736000Y-51466050D01*
X148894750Y-51624800D01*
X150114000Y-51624800D01*
X150114000Y-50405550D01*
X149955250Y-50246800D01*
X149371000Y-50243728D01*
X149246518Y-50255988D01*
X149126820Y-50292298D01*
X149016506Y-50351263D01*
X148919815Y-50430615D01*
X148840463Y-50527306D01*
X148781498Y-50637620D01*
X148745188Y-50757318D01*
X148732928Y-50881800D01*
X129491546Y-50881800D01*
X129453183Y-50843437D01*
X129103502Y-50609788D01*
X128714956Y-50448847D01*
X128302479Y-50366800D01*
X127881921Y-50366800D01*
X127469444Y-50448847D01*
X127080898Y-50609788D01*
X126731217Y-50843437D01*
X126433837Y-51140817D01*
X126200188Y-51490498D01*
X126039247Y-51879044D01*
X125957200Y-52291521D01*
X125957200Y-52712079D01*
X126039247Y-53124556D01*
X126200188Y-53513102D01*
X126433837Y-53862783D01*
X126731217Y-54160163D01*
X126949200Y-54305815D01*
X126949201Y-58022753D01*
X125891555Y-59080400D01*
X125405139Y-59080400D01*
X125349000Y-59074871D01*
X125292861Y-59080400D01*
X125292854Y-59080400D01*
X125124933Y-59096939D01*
X124909476Y-59162297D01*
X124858179Y-59189716D01*
X124710911Y-59268432D01*
X124536867Y-59411267D01*
X124501072Y-59454883D01*
X123996283Y-59959672D01*
X123952667Y-59995467D01*
X123809832Y-60169512D01*
X123703697Y-60368078D01*
X123638339Y-60583534D01*
X123621800Y-60751455D01*
X123621800Y-60751461D01*
X123616271Y-60807600D01*
X123621800Y-60863739D01*
X123621801Y-63170020D01*
X123583205Y-63097813D01*
X123472762Y-62963238D01*
X123367800Y-62877098D01*
X123367800Y-56785245D01*
X123780724Y-56372322D01*
X123824333Y-56336533D01*
X123967168Y-56162489D01*
X124073303Y-55963923D01*
X124122889Y-55800459D01*
X124138661Y-55748468D01*
X124146873Y-55665091D01*
X124155200Y-55580546D01*
X124155200Y-55580539D01*
X124160729Y-55524400D01*
X124155200Y-55468261D01*
X124155200Y-54639872D01*
X124512200Y-54639872D01*
X124636682Y-54627612D01*
X124756380Y-54591302D01*
X124866694Y-54532337D01*
X124963385Y-54452985D01*
X125042737Y-54356294D01*
X125101702Y-54245980D01*
X125138012Y-54126282D01*
X125150272Y-54001800D01*
X125150272Y-51001800D01*
X125138012Y-50877318D01*
X125101702Y-50757620D01*
X125042737Y-50647306D01*
X124963385Y-50550615D01*
X124866694Y-50471263D01*
X124756380Y-50412298D01*
X124636682Y-50375988D01*
X124512200Y-50363728D01*
X121512200Y-50363728D01*
X121387718Y-50375988D01*
X121268020Y-50412298D01*
X121157706Y-50471263D01*
X121061015Y-50550615D01*
X120981663Y-50647306D01*
X120922698Y-50757620D01*
X120886388Y-50877318D01*
X120874128Y-51001800D01*
X120874128Y-54001800D01*
X120886388Y-54126282D01*
X120922698Y-54245980D01*
X120981663Y-54356294D01*
X121061015Y-54452985D01*
X121157706Y-54532337D01*
X121268020Y-54591302D01*
X121387718Y-54627612D01*
X121512200Y-54639872D01*
X121869200Y-54639872D01*
X121869200Y-55050954D01*
X121456277Y-55463877D01*
X121412668Y-55499667D01*
X121269833Y-55673711D01*
X121229875Y-55748468D01*
X121163698Y-55872277D01*
X121098339Y-56087733D01*
X121076271Y-56311800D01*
X121081801Y-56367949D01*
X121081800Y-62877098D01*
X120976838Y-62963238D01*
X120866395Y-63097813D01*
X120784328Y-63251349D01*
X120733792Y-63417945D01*
X120716728Y-63591199D01*
X120716728Y-64831201D01*
X120733792Y-65004455D01*
X120784328Y-65171051D01*
X120866395Y-65324587D01*
X120976838Y-65459162D01*
X121111413Y-65569605D01*
X121264949Y-65651672D01*
X121431545Y-65702208D01*
X121604799Y-65719272D01*
X122844801Y-65719272D01*
X123018055Y-65702208D01*
X123184651Y-65651672D01*
X123338187Y-65569605D01*
X123472762Y-65459162D01*
X123583205Y-65324587D01*
X123621801Y-65252380D01*
X123621801Y-65769754D01*
X123478555Y-65913000D01*
X119878846Y-65913000D01*
X119161127Y-65195282D01*
X119125333Y-65151667D01*
X118951289Y-65008832D01*
X118752723Y-64902697D01*
X118537267Y-64837339D01*
X118369346Y-64820800D01*
X118369339Y-64820800D01*
X118313200Y-64815271D01*
X118257061Y-64820800D01*
X115227702Y-64820800D01*
X115141562Y-64715838D01*
X115006987Y-64605395D01*
X114853451Y-64523328D01*
X114686855Y-64472792D01*
X114513601Y-64455728D01*
X113273599Y-64455728D01*
X113100345Y-64472792D01*
X112933749Y-64523328D01*
X112780213Y-64605395D01*
X112645638Y-64715838D01*
X112535195Y-64850413D01*
X112453128Y-65003949D01*
X112402592Y-65170545D01*
X112385528Y-65343799D01*
X112385528Y-66583801D01*
X112402592Y-66757055D01*
X112453128Y-66923651D01*
X112535195Y-67077187D01*
X112645638Y-67211762D01*
X112780213Y-67322205D01*
X112933749Y-67404272D01*
X113038526Y-67436056D01*
X113030533Y-67461128D01*
X113893600Y-68324195D01*
X114756667Y-67461128D01*
X114748674Y-67436056D01*
X114853451Y-67404272D01*
X115006987Y-67322205D01*
X115141562Y-67211762D01*
X115227702Y-67106800D01*
X117839755Y-67106800D01*
X118557477Y-67824523D01*
X118593267Y-67868133D01*
X118636877Y-67903923D01*
X118636878Y-67903924D01*
X118656931Y-67920381D01*
X118767311Y-68010968D01*
X118965877Y-68117103D01*
X119115974Y-68162635D01*
X119181332Y-68182461D01*
X119204000Y-68184694D01*
X119349254Y-68199000D01*
X119349260Y-68199000D01*
X119405399Y-68204529D01*
X119461538Y-68199000D01*
X123895861Y-68199000D01*
X123952000Y-68204529D01*
X124008139Y-68199000D01*
X124008146Y-68199000D01*
X124176067Y-68182461D01*
X124391523Y-68117103D01*
X124590089Y-68010968D01*
X124764133Y-67868133D01*
X124799927Y-67824518D01*
X125533323Y-67091123D01*
X125576933Y-67055333D01*
X125719768Y-66881289D01*
X125825903Y-66682723D01*
X125891261Y-66467267D01*
X125907800Y-66299346D01*
X125907800Y-66299339D01*
X125913329Y-66243200D01*
X125907800Y-66187061D01*
X125907800Y-65196592D01*
X125933810Y-65170582D01*
X126034800Y-65019440D01*
X126135790Y-65170582D01*
X126161800Y-65196592D01*
X126161801Y-68919353D01*
X125866155Y-69215000D01*
X119563138Y-69215000D01*
X119506999Y-69209471D01*
X119450860Y-69215000D01*
X119450854Y-69215000D01*
X119305600Y-69229306D01*
X119282932Y-69231539D01*
X119219992Y-69250632D01*
X119067477Y-69296897D01*
X118868911Y-69403032D01*
X118694867Y-69545867D01*
X118659077Y-69589477D01*
X113125082Y-75123473D01*
X113081467Y-75159267D01*
X112938632Y-75333312D01*
X112832497Y-75531878D01*
X112767139Y-75747334D01*
X112750600Y-75915255D01*
X112750600Y-75915261D01*
X112745071Y-75971400D01*
X112750600Y-76027539D01*
X112750600Y-76250198D01*
X112645638Y-76336338D01*
X112535195Y-76470913D01*
X112453128Y-76624449D01*
X112402592Y-76791045D01*
X112385528Y-76964299D01*
X112385528Y-78204301D01*
X112402592Y-78377555D01*
X112453128Y-78544151D01*
X112535195Y-78697687D01*
X112645638Y-78832262D01*
X112780213Y-78942705D01*
X112933749Y-79024772D01*
X113038526Y-79056556D01*
X113030533Y-79081628D01*
X113893600Y-79944695D01*
X114756667Y-79081628D01*
X114748674Y-79056556D01*
X114853451Y-79024772D01*
X115006987Y-78942705D01*
X115141562Y-78832262D01*
X115227702Y-78727300D01*
X119503455Y-78727300D01*
X121668977Y-80892823D01*
X121704767Y-80936433D01*
X121878811Y-81079268D01*
X122077377Y-81185403D01*
X122227474Y-81230935D01*
X122292832Y-81250761D01*
X122315500Y-81252994D01*
X122460754Y-81267300D01*
X122460760Y-81267300D01*
X122516899Y-81272829D01*
X122573038Y-81267300D01*
X125176408Y-81267300D01*
X125202418Y-81293310D01*
X125448915Y-81458014D01*
X125722808Y-81571464D01*
X126013570Y-81629300D01*
X126310030Y-81629300D01*
X126600792Y-81571464D01*
X126874685Y-81458014D01*
X127121182Y-81293310D01*
X127147192Y-81267300D01*
X137407208Y-81267300D01*
X137433218Y-81293310D01*
X137679715Y-81458014D01*
X137953608Y-81571464D01*
X138244370Y-81629300D01*
X138540830Y-81629300D01*
X138831592Y-81571464D01*
X139105485Y-81458014D01*
X139351982Y-81293310D01*
X139377992Y-81267300D01*
X145244561Y-81267300D01*
X145300700Y-81272829D01*
X145356839Y-81267300D01*
X145356846Y-81267300D01*
X145524767Y-81250761D01*
X145740223Y-81185403D01*
X145938789Y-81079268D01*
X146112833Y-80936433D01*
X146148627Y-80892818D01*
X147044146Y-79997300D01*
X148082219Y-79997300D01*
X148010013Y-80035895D01*
X147875438Y-80146338D01*
X147764995Y-80280913D01*
X147682928Y-80434449D01*
X147632392Y-80601045D01*
X147615328Y-80774299D01*
X147615328Y-82014301D01*
X147628063Y-82143600D01*
X128782484Y-82143600D01*
X128699970Y-82139278D01*
X128614509Y-82151671D01*
X128528533Y-82160139D01*
X128503272Y-82167802D01*
X128477149Y-82171590D01*
X128395732Y-82200424D01*
X128313077Y-82225497D01*
X128289795Y-82237941D01*
X128264914Y-82246753D01*
X128190698Y-82290910D01*
X128114511Y-82331632D01*
X128094102Y-82348382D01*
X128071421Y-82361876D01*
X128007241Y-82419666D01*
X127940467Y-82474467D01*
X127888033Y-82538358D01*
X126642958Y-83903152D01*
X126619667Y-83922267D01*
X126567227Y-83986166D01*
X126549551Y-84005541D01*
X126531638Y-84029531D01*
X126476832Y-84096312D01*
X126464386Y-84119596D01*
X126448597Y-84140742D01*
X126411420Y-84218691D01*
X126370697Y-84294878D01*
X126363034Y-84320140D01*
X126351672Y-84343962D01*
X126330414Y-84427672D01*
X126305339Y-84510334D01*
X126302752Y-84536604D01*
X126296255Y-84562187D01*
X126291737Y-84648435D01*
X126288800Y-84678255D01*
X126288800Y-84704503D01*
X126284477Y-84787029D01*
X126288800Y-84816839D01*
X126288801Y-88782153D01*
X125789955Y-89281000D01*
X125648592Y-89281000D01*
X125622582Y-89254990D01*
X125456894Y-89144281D01*
X125526267Y-88926672D01*
X124663200Y-88063605D01*
X123800133Y-88926672D01*
X123869506Y-89144281D01*
X123703818Y-89254990D01*
X123494190Y-89464618D01*
X123329486Y-89711115D01*
X123216036Y-89985008D01*
X123158200Y-90275770D01*
X123158200Y-90572230D01*
X123216036Y-90862992D01*
X123329486Y-91136885D01*
X123494190Y-91383382D01*
X123658375Y-91547567D01*
X123549813Y-91605595D01*
X123415238Y-91716038D01*
X123329098Y-91821000D01*
X117491246Y-91821000D01*
X116646527Y-90976282D01*
X116610733Y-90932667D01*
X116436689Y-90789832D01*
X116238123Y-90683697D01*
X116022667Y-90618339D01*
X115854746Y-90601800D01*
X115854739Y-90601800D01*
X115798600Y-90596271D01*
X115742461Y-90601800D01*
X113727702Y-90601800D01*
X113641562Y-90496838D01*
X113506987Y-90386395D01*
X113353451Y-90304328D01*
X113248674Y-90272544D01*
X113256667Y-90247472D01*
X112393600Y-89384405D01*
X111530533Y-90247472D01*
X111538526Y-90272544D01*
X111433749Y-90304328D01*
X111280213Y-90386395D01*
X111145638Y-90496838D01*
X111035195Y-90631413D01*
X110953128Y-90784949D01*
X110902592Y-90951545D01*
X110885528Y-91124799D01*
X105979231Y-91124799D01*
X105645326Y-90986491D01*
X105213529Y-90900601D01*
X104773273Y-90900601D01*
X104341476Y-90986491D01*
X103934732Y-91154970D01*
X103568672Y-91399563D01*
X103257363Y-91710872D01*
X103012770Y-92076932D01*
X102844291Y-92483676D01*
X102758401Y-92915473D01*
X99618400Y-92915473D01*
X99618400Y-89272540D01*
X110882836Y-89272540D01*
X110925080Y-89565974D01*
X111023759Y-89845528D01*
X111099811Y-89987812D01*
X111350928Y-90067867D01*
X112213995Y-89204800D01*
X112573205Y-89204800D01*
X113436272Y-90067867D01*
X113687389Y-89987812D01*
X113815287Y-89720361D01*
X113888550Y-89433097D01*
X113904364Y-89137060D01*
X113862120Y-88843626D01*
X113763441Y-88564072D01*
X113687389Y-88421788D01*
X113436272Y-88341733D01*
X112573205Y-89204800D01*
X112213995Y-89204800D01*
X111350928Y-88341733D01*
X111099811Y-88421788D01*
X110971913Y-88689239D01*
X110898650Y-88976503D01*
X110882836Y-89272540D01*
X99618400Y-89272540D01*
X99618400Y-88162128D01*
X111530533Y-88162128D01*
X112393600Y-89025195D01*
X113256667Y-88162128D01*
X113189597Y-87951740D01*
X123152436Y-87951740D01*
X123194680Y-88245174D01*
X123293359Y-88524728D01*
X123369411Y-88667012D01*
X123620528Y-88747067D01*
X124483595Y-87884000D01*
X124842805Y-87884000D01*
X125705872Y-88747067D01*
X125956989Y-88667012D01*
X126084887Y-88399561D01*
X126158150Y-88112297D01*
X126173964Y-87816260D01*
X126131720Y-87522826D01*
X126033041Y-87243272D01*
X125956989Y-87100988D01*
X125705872Y-87020933D01*
X124842805Y-87884000D01*
X124483595Y-87884000D01*
X123620528Y-87020933D01*
X123369411Y-87100988D01*
X123241513Y-87368439D01*
X123168250Y-87655703D01*
X123152436Y-87951740D01*
X113189597Y-87951740D01*
X113176612Y-87911011D01*
X112909161Y-87783113D01*
X112621897Y-87709850D01*
X112325860Y-87694036D01*
X112032426Y-87736280D01*
X111752872Y-87834959D01*
X111610588Y-87911011D01*
X111530533Y-88162128D01*
X99618400Y-88162128D01*
X99618400Y-86841328D01*
X123800133Y-86841328D01*
X124663200Y-87704395D01*
X125526267Y-86841328D01*
X125446212Y-86590211D01*
X125178761Y-86462313D01*
X124891497Y-86389050D01*
X124595460Y-86373236D01*
X124302026Y-86415480D01*
X124022472Y-86514159D01*
X123880188Y-86590211D01*
X123800133Y-86841328D01*
X99618400Y-86841328D01*
X99618400Y-81166972D01*
X113030533Y-81166972D01*
X113110588Y-81418089D01*
X113378039Y-81545987D01*
X113665303Y-81619250D01*
X113961340Y-81635064D01*
X114254774Y-81592820D01*
X114534328Y-81494141D01*
X114676612Y-81418089D01*
X114756667Y-81166972D01*
X113893600Y-80303905D01*
X113030533Y-81166972D01*
X99618400Y-81166972D01*
X99618400Y-80192040D01*
X112382836Y-80192040D01*
X112425080Y-80485474D01*
X112523759Y-80765028D01*
X112599811Y-80907312D01*
X112850928Y-80987367D01*
X113713995Y-80124300D01*
X114073205Y-80124300D01*
X114936272Y-80987367D01*
X115187389Y-80907312D01*
X115315287Y-80639861D01*
X115388550Y-80352597D01*
X115404364Y-80056560D01*
X115362120Y-79763126D01*
X115263441Y-79483572D01*
X115187389Y-79341288D01*
X114936272Y-79261233D01*
X114073205Y-80124300D01*
X113713995Y-80124300D01*
X112850928Y-79261233D01*
X112599811Y-79341288D01*
X112471913Y-79608739D01*
X112398650Y-79896003D01*
X112382836Y-80192040D01*
X99618400Y-80192040D01*
X99618400Y-69546472D01*
X113030533Y-69546472D01*
X113110588Y-69797589D01*
X113378039Y-69925487D01*
X113665303Y-69998750D01*
X113961340Y-70014564D01*
X114254774Y-69972320D01*
X114534328Y-69873641D01*
X114676612Y-69797589D01*
X114756667Y-69546472D01*
X113893600Y-68683405D01*
X113030533Y-69546472D01*
X99618400Y-69546472D01*
X99618400Y-68571540D01*
X112382836Y-68571540D01*
X112425080Y-68864974D01*
X112523759Y-69144528D01*
X112599811Y-69286812D01*
X112850928Y-69366867D01*
X113713995Y-68503800D01*
X114073205Y-68503800D01*
X114936272Y-69366867D01*
X115187389Y-69286812D01*
X115315287Y-69019361D01*
X115388550Y-68732097D01*
X115404364Y-68436060D01*
X115362120Y-68142626D01*
X115263441Y-67863072D01*
X115187389Y-67720788D01*
X114936272Y-67640733D01*
X114073205Y-68503800D01*
X113713995Y-68503800D01*
X112850928Y-67640733D01*
X112599811Y-67720788D01*
X112471913Y-67988239D01*
X112398650Y-68275503D01*
X112382836Y-68571540D01*
X99618400Y-68571540D01*
X99618400Y-48465473D01*
X102758401Y-48465473D01*
X102758401Y-48905729D01*
X102844291Y-49337526D01*
X103012770Y-49744270D01*
X103257363Y-50110330D01*
X103568672Y-50421639D01*
X103934732Y-50666232D01*
X104341476Y-50834711D01*
X104773273Y-50920601D01*
X105213529Y-50920601D01*
X105645326Y-50834711D01*
X106052070Y-50666232D01*
X106418130Y-50421639D01*
X106729439Y-50110330D01*
X106974032Y-49744270D01*
X107142511Y-49337526D01*
X107228401Y-48905729D01*
X107228401Y-48465473D01*
X156733401Y-48465473D01*
X156733401Y-48905729D01*
X156819291Y-49337526D01*
X156987770Y-49744270D01*
X157232363Y-50110330D01*
X157543672Y-50421639D01*
X157909732Y-50666232D01*
X158316476Y-50834711D01*
X158748273Y-50920601D01*
X159188529Y-50920601D01*
X159620326Y-50834711D01*
X160027070Y-50666232D01*
X160393130Y-50421639D01*
X160704439Y-50110330D01*
X160949032Y-49744270D01*
X161117511Y-49337526D01*
X161203401Y-48905729D01*
X161203401Y-48465473D01*
X161117511Y-48033676D01*
X160949032Y-47626932D01*
X160704439Y-47260872D01*
X160393130Y-46949563D01*
X160027070Y-46704970D01*
X159620326Y-46536491D01*
X159188529Y-46450601D01*
X158748273Y-46450601D01*
X158316476Y-46536491D01*
X157909732Y-46704970D01*
X157543672Y-46949563D01*
X157232363Y-47260872D01*
X156987770Y-47626932D01*
X156819291Y-48033676D01*
X156733401Y-48465473D01*
X107228401Y-48465473D01*
X107142511Y-48033676D01*
X106974032Y-47626932D01*
X106729439Y-47260872D01*
X106418130Y-46949563D01*
X106052070Y-46704970D01*
X105645326Y-46536491D01*
X105213529Y-46450601D01*
X104773273Y-46450601D01*
X104341476Y-46536491D01*
X103934732Y-46704970D01*
X103568672Y-46949563D01*
X103257363Y-47260872D01*
X103012770Y-47626932D01*
X102844291Y-48033676D01*
X102758401Y-48465473D01*
X99618400Y-48465473D01*
X99618400Y-45287800D01*
X163703400Y-45287800D01*
X163703401Y-98273000D01*
G37*
%TD.AperFunction*%
D17*
X142274555Y-89281000D02*
X140990192Y-89281000D01*
X140964182Y-89254990D01*
X140798494Y-89144281D01*
X140867867Y-88926672D01*
X140004800Y-88063605D01*
X139141733Y-88926672D01*
X139211106Y-89144281D01*
X139045418Y-89254990D01*
X138835790Y-89464618D01*
X138671086Y-89711115D01*
X138557636Y-89985008D01*
X138499800Y-90275770D01*
X138499800Y-90572230D01*
X138557636Y-90862992D01*
X138671086Y-91136885D01*
X138835790Y-91383382D01*
X138999975Y-91547567D01*
X138891413Y-91605595D01*
X138756838Y-91716038D01*
X138670698Y-91821000D01*
X125997302Y-91821000D01*
X125911162Y-91716038D01*
X125776587Y-91605595D01*
X125704381Y-91567000D01*
X126207261Y-91567000D01*
X126263400Y-91572529D01*
X126319539Y-91567000D01*
X126319546Y-91567000D01*
X126487467Y-91550461D01*
X126702923Y-91485103D01*
X126901489Y-91378968D01*
X127075533Y-91236133D01*
X127111327Y-91192518D01*
X128200323Y-90103523D01*
X128243933Y-90067733D01*
X128386768Y-89893689D01*
X128492903Y-89695123D01*
X128558261Y-89479667D01*
X128559309Y-89469032D01*
X128566623Y-89394764D01*
X128574800Y-89311746D01*
X128574800Y-89311740D01*
X128580329Y-89255601D01*
X128574800Y-89199462D01*
X128574800Y-87951740D01*
X138494036Y-87951740D01*
X138536280Y-88245174D01*
X138634959Y-88524728D01*
X138711011Y-88667012D01*
X138962128Y-88747067D01*
X139825195Y-87884000D01*
X140184405Y-87884000D01*
X141047472Y-88747067D01*
X141298589Y-88667012D01*
X141426487Y-88399561D01*
X141499750Y-88112297D01*
X141515564Y-87816260D01*
X141473320Y-87522826D01*
X141374641Y-87243272D01*
X141298589Y-87100988D01*
X141047472Y-87020933D01*
X140184405Y-87884000D01*
X139825195Y-87884000D01*
X138962128Y-87020933D01*
X138711011Y-87100988D01*
X138583113Y-87368439D01*
X138509850Y-87655703D01*
X138494036Y-87951740D01*
X128574800Y-87951740D01*
X128574800Y-86841328D01*
X139141733Y-86841328D01*
X140004800Y-87704395D01*
X140867867Y-86841328D01*
X140787812Y-86590211D01*
X140520361Y-86462313D01*
X140233097Y-86389050D01*
X139937060Y-86373236D01*
X139643626Y-86415480D01*
X139364072Y-86514159D01*
X139221788Y-86590211D01*
X139141733Y-86841328D01*
X128574800Y-86841328D01*
X128574800Y-85177437D01*
X129257038Y-84429600D01*
X147125954Y-84429600D01*
X142274555Y-89281000D01*
%TA.AperFunction,Conductor*%
D18*
G36*
X142274555Y-89281000D02*
G01*
X140990192Y-89281000D01*
X140964182Y-89254990D01*
X140798494Y-89144281D01*
X140867867Y-88926672D01*
X140004800Y-88063605D01*
X139141733Y-88926672D01*
X139211106Y-89144281D01*
X139045418Y-89254990D01*
X138835790Y-89464618D01*
X138671086Y-89711115D01*
X138557636Y-89985008D01*
X138499800Y-90275770D01*
X138499800Y-90572230D01*
X138557636Y-90862992D01*
X138671086Y-91136885D01*
X138835790Y-91383382D01*
X138999975Y-91547567D01*
X138891413Y-91605595D01*
X138756838Y-91716038D01*
X138670698Y-91821000D01*
X125997302Y-91821000D01*
X125911162Y-91716038D01*
X125776587Y-91605595D01*
X125704381Y-91567000D01*
X126207261Y-91567000D01*
X126263400Y-91572529D01*
X126319539Y-91567000D01*
X126319546Y-91567000D01*
X126487467Y-91550461D01*
X126702923Y-91485103D01*
X126901489Y-91378968D01*
X127075533Y-91236133D01*
X127111327Y-91192518D01*
X128200323Y-90103523D01*
X128243933Y-90067733D01*
X128386768Y-89893689D01*
X128492903Y-89695123D01*
X128558261Y-89479667D01*
X128559309Y-89469032D01*
X128566623Y-89394764D01*
X128574800Y-89311746D01*
X128574800Y-89311740D01*
X128580329Y-89255601D01*
X128574800Y-89199462D01*
X128574800Y-87951740D01*
X138494036Y-87951740D01*
X138536280Y-88245174D01*
X138634959Y-88524728D01*
X138711011Y-88667012D01*
X138962128Y-88747067D01*
X139825195Y-87884000D01*
X140184405Y-87884000D01*
X141047472Y-88747067D01*
X141298589Y-88667012D01*
X141426487Y-88399561D01*
X141499750Y-88112297D01*
X141515564Y-87816260D01*
X141473320Y-87522826D01*
X141374641Y-87243272D01*
X141298589Y-87100988D01*
X141047472Y-87020933D01*
X140184405Y-87884000D01*
X139825195Y-87884000D01*
X138962128Y-87020933D01*
X138711011Y-87100988D01*
X138583113Y-87368439D01*
X138509850Y-87655703D01*
X138494036Y-87951740D01*
X128574800Y-87951740D01*
X128574800Y-86841328D01*
X139141733Y-86841328D01*
X140004800Y-87704395D01*
X140867867Y-86841328D01*
X140787812Y-86590211D01*
X140520361Y-86462313D01*
X140233097Y-86389050D01*
X139937060Y-86373236D01*
X139643626Y-86415480D01*
X139364072Y-86514159D01*
X139221788Y-86590211D01*
X139141733Y-86841328D01*
X128574800Y-86841328D01*
X128574800Y-85177437D01*
X129257038Y-84429600D01*
X147125954Y-84429600D01*
X142274555Y-89281000D01*
G37*
%TD.AperFunction*%
D17*
X146786601Y-68130211D02*
X146575848Y-68727345D01*
X146563697Y-68750078D01*
X146538451Y-68833303D01*
X146528276Y-68862132D01*
X146522157Y-68887018D01*
X146498339Y-68965534D01*
X146495325Y-68996135D01*
X146487985Y-69025985D01*
X146484314Y-69107929D01*
X146481800Y-69133455D01*
X146481800Y-69164051D01*
X146477909Y-69250909D01*
X146481800Y-69276383D01*
X146481801Y-74081194D01*
X144161194Y-76441300D01*
X139726702Y-76441300D01*
X139640562Y-76336338D01*
X139505987Y-76225895D01*
X139352451Y-76143828D01*
X139185855Y-76093292D01*
X139012601Y-76076228D01*
X137772599Y-76076228D01*
X137599345Y-76093292D01*
X137432749Y-76143828D01*
X137279213Y-76225895D01*
X137144638Y-76336338D01*
X137034195Y-76470913D01*
X136952128Y-76624449D01*
X136901592Y-76791045D01*
X136884528Y-76964299D01*
X136884528Y-78204301D01*
X136901592Y-78377555D01*
X136952128Y-78544151D01*
X137034195Y-78697687D01*
X137144638Y-78832262D01*
X137279213Y-78942705D01*
X137351419Y-78981300D01*
X127202981Y-78981300D01*
X127275187Y-78942705D01*
X127409762Y-78832262D01*
X127520205Y-78697687D01*
X127602272Y-78544151D01*
X127623764Y-78473300D01*
X129991640Y-78473300D01*
X130035300Y-78477600D01*
X130078960Y-78473300D01*
X130078967Y-78473300D01*
X130209574Y-78460436D01*
X130377151Y-78409603D01*
X130531591Y-78327053D01*
X130666959Y-78215959D01*
X130694799Y-78182036D01*
X139458635Y-69418200D01*
X144253740Y-69418200D01*
X144297400Y-69422500D01*
X144341060Y-69418200D01*
X144341067Y-69418200D01*
X144471674Y-69405336D01*
X144639251Y-69354503D01*
X144793691Y-69271953D01*
X144929059Y-69160859D01*
X144956899Y-69126936D01*
X145987343Y-68096493D01*
X146021259Y-68068659D01*
X146132353Y-67933291D01*
X146214903Y-67778851D01*
X146251945Y-67656739D01*
X146265736Y-67611275D01*
X146275091Y-67516289D01*
X146278600Y-67480667D01*
X146278600Y-67480661D01*
X146282900Y-67437001D01*
X146278600Y-67393341D01*
X146278600Y-65647764D01*
X146349451Y-65626272D01*
X146502987Y-65544205D01*
X146637562Y-65433762D01*
X146748005Y-65299187D01*
X146786600Y-65226981D01*
X146786601Y-68130211D01*
%TA.AperFunction,Conductor*%
D18*
G36*
X146786601Y-68130211D02*
G01*
X146575848Y-68727345D01*
X146563697Y-68750078D01*
X146538451Y-68833303D01*
X146528276Y-68862132D01*
X146522157Y-68887018D01*
X146498339Y-68965534D01*
X146495325Y-68996135D01*
X146487985Y-69025985D01*
X146484314Y-69107929D01*
X146481800Y-69133455D01*
X146481800Y-69164051D01*
X146477909Y-69250909D01*
X146481800Y-69276383D01*
X146481801Y-74081194D01*
X144161194Y-76441300D01*
X139726702Y-76441300D01*
X139640562Y-76336338D01*
X139505987Y-76225895D01*
X139352451Y-76143828D01*
X139185855Y-76093292D01*
X139012601Y-76076228D01*
X137772599Y-76076228D01*
X137599345Y-76093292D01*
X137432749Y-76143828D01*
X137279213Y-76225895D01*
X137144638Y-76336338D01*
X137034195Y-76470913D01*
X136952128Y-76624449D01*
X136901592Y-76791045D01*
X136884528Y-76964299D01*
X136884528Y-78204301D01*
X136901592Y-78377555D01*
X136952128Y-78544151D01*
X137034195Y-78697687D01*
X137144638Y-78832262D01*
X137279213Y-78942705D01*
X137351419Y-78981300D01*
X127202981Y-78981300D01*
X127275187Y-78942705D01*
X127409762Y-78832262D01*
X127520205Y-78697687D01*
X127602272Y-78544151D01*
X127623764Y-78473300D01*
X129991640Y-78473300D01*
X130035300Y-78477600D01*
X130078960Y-78473300D01*
X130078967Y-78473300D01*
X130209574Y-78460436D01*
X130377151Y-78409603D01*
X130531591Y-78327053D01*
X130666959Y-78215959D01*
X130694799Y-78182036D01*
X139458635Y-69418200D01*
X144253740Y-69418200D01*
X144297400Y-69422500D01*
X144341060Y-69418200D01*
X144341067Y-69418200D01*
X144471674Y-69405336D01*
X144639251Y-69354503D01*
X144793691Y-69271953D01*
X144929059Y-69160859D01*
X144956899Y-69126936D01*
X145987343Y-68096493D01*
X146021259Y-68068659D01*
X146132353Y-67933291D01*
X146214903Y-67778851D01*
X146251945Y-67656739D01*
X146265736Y-67611275D01*
X146275091Y-67516289D01*
X146278600Y-67480667D01*
X146278600Y-67480661D01*
X146282900Y-67437001D01*
X146278600Y-67393341D01*
X146278600Y-65647764D01*
X146349451Y-65626272D01*
X146502987Y-65544205D01*
X146637562Y-65433762D01*
X146748005Y-65299187D01*
X146786600Y-65226981D01*
X146786601Y-68130211D01*
G37*
%TD.AperFunction*%
D17*
X159816800Y-63236847D02*
X159816801Y-68093985D01*
X159219686Y-68589464D01*
X159229520Y-68489616D01*
X159232600Y-68458346D01*
X159232600Y-68458340D01*
X159238129Y-68402201D01*
X159232600Y-68346062D01*
X159232600Y-65171192D01*
X159258610Y-65145182D01*
X159423314Y-64898685D01*
X159536764Y-64624792D01*
X159594600Y-64334030D01*
X159594600Y-64037570D01*
X159536764Y-63746808D01*
X159423314Y-63472915D01*
X159258610Y-63226418D01*
X159048982Y-63016790D01*
X158802485Y-62852086D01*
X158528592Y-62738636D01*
X158237830Y-62680800D01*
X157941370Y-62680800D01*
X157650608Y-62738636D01*
X157376715Y-62852086D01*
X157130218Y-63016790D01*
X156920590Y-63226418D01*
X156819600Y-63377560D01*
X156718610Y-63226418D01*
X156508982Y-63016790D01*
X156262485Y-62852086D01*
X155988592Y-62738636D01*
X155697830Y-62680800D01*
X155401370Y-62680800D01*
X155110608Y-62738636D01*
X154836715Y-62852086D01*
X154590218Y-63016790D01*
X154380590Y-63226418D01*
X154279600Y-63377560D01*
X154178610Y-63226418D01*
X153968982Y-63016790D01*
X153722485Y-62852086D01*
X153448592Y-62738636D01*
X153157830Y-62680800D01*
X152861370Y-62680800D01*
X152570608Y-62738636D01*
X152296715Y-62852086D01*
X152050218Y-63016790D01*
X151840590Y-63226418D01*
X151739600Y-63377560D01*
X151638610Y-63226418D01*
X151428982Y-63016790D01*
X151182485Y-62852086D01*
X150908592Y-62738636D01*
X150617830Y-62680800D01*
X150321370Y-62680800D01*
X150030608Y-62738636D01*
X149756715Y-62852086D01*
X149510218Y-63016790D01*
X149300590Y-63226418D01*
X149199600Y-63377560D01*
X149098610Y-63226418D01*
X148888982Y-63016790D01*
X148642485Y-62852086D01*
X148368592Y-62738636D01*
X148077830Y-62680800D01*
X147781370Y-62680800D01*
X147490608Y-62738636D01*
X147216715Y-62852086D01*
X146970218Y-63016790D01*
X146806033Y-63180975D01*
X146748005Y-63072413D01*
X146637562Y-62937838D01*
X146502987Y-62827395D01*
X146349451Y-62745328D01*
X146182855Y-62694792D01*
X146009601Y-62677728D01*
X144769599Y-62677728D01*
X144596345Y-62694792D01*
X144429749Y-62745328D01*
X144276213Y-62827395D01*
X144141638Y-62937838D01*
X144031195Y-63072413D01*
X143949128Y-63225949D01*
X143898592Y-63392545D01*
X143881528Y-63565799D01*
X143881528Y-64805801D01*
X143898592Y-64979055D01*
X143949128Y-65145651D01*
X144031195Y-65299187D01*
X144141638Y-65433762D01*
X144276213Y-65544205D01*
X144429749Y-65626272D01*
X144500601Y-65647764D01*
X144500600Y-67068764D01*
X143929165Y-67640200D01*
X139134059Y-67640200D01*
X139090399Y-67635900D01*
X139046739Y-67640200D01*
X139046733Y-67640200D01*
X138949324Y-67649794D01*
X138916124Y-67653064D01*
X138814458Y-67683904D01*
X138748549Y-67703897D01*
X138594109Y-67786447D01*
X138458741Y-67897541D01*
X138430901Y-67931464D01*
X129667065Y-76695300D01*
X127623764Y-76695300D01*
X127602272Y-76624449D01*
X127520205Y-76470913D01*
X127409762Y-76336338D01*
X127275187Y-76225895D01*
X127121651Y-76143828D01*
X126955055Y-76093292D01*
X126781801Y-76076228D01*
X125541799Y-76076228D01*
X125368545Y-76093292D01*
X125201949Y-76143828D01*
X125048413Y-76225895D01*
X124913838Y-76336338D01*
X124803395Y-76470913D01*
X124721328Y-76624449D01*
X124670792Y-76791045D01*
X124653728Y-76964299D01*
X124653728Y-78204301D01*
X124670792Y-78377555D01*
X124721328Y-78544151D01*
X124803395Y-78697687D01*
X124913838Y-78832262D01*
X125048413Y-78942705D01*
X125120619Y-78981300D01*
X122990346Y-78981300D01*
X120824827Y-76815782D01*
X120789033Y-76772167D01*
X120614989Y-76629332D01*
X120416423Y-76523197D01*
X120200967Y-76457839D01*
X120033046Y-76441300D01*
X120033039Y-76441300D01*
X119976900Y-76435771D01*
X119920761Y-76441300D01*
X115227702Y-76441300D01*
X115143160Y-76338285D01*
X119980446Y-71501000D01*
X126283461Y-71501000D01*
X126339600Y-71506529D01*
X126395739Y-71501000D01*
X126395746Y-71501000D01*
X126563667Y-71484461D01*
X126779123Y-71419103D01*
X126977689Y-71312968D01*
X127151733Y-71170133D01*
X127187527Y-71126518D01*
X128073323Y-70240723D01*
X128116933Y-70204933D01*
X128259768Y-70030889D01*
X128365903Y-69832323D01*
X128428158Y-69627097D01*
X128431261Y-69616868D01*
X128433382Y-69595333D01*
X128447800Y-69448946D01*
X128447800Y-69448939D01*
X128453329Y-69392800D01*
X128447800Y-69336661D01*
X128447800Y-65196592D01*
X128473810Y-65170582D01*
X128574800Y-65019440D01*
X128675790Y-65170582D01*
X128701800Y-65196592D01*
X128701801Y-66237852D01*
X128696271Y-66294000D01*
X128718339Y-66518067D01*
X128748192Y-66616476D01*
X128783698Y-66733523D01*
X128889833Y-66932089D01*
X128964175Y-67022675D01*
X128991525Y-67056000D01*
X129032668Y-67106133D01*
X129076278Y-67141923D01*
X129581072Y-67646717D01*
X129616867Y-67690333D01*
X129790911Y-67833168D01*
X129923287Y-67903924D01*
X129989476Y-67939303D01*
X130110770Y-67976097D01*
X130204933Y-68004661D01*
X130372854Y-68021200D01*
X130372861Y-68021200D01*
X130429000Y-68026729D01*
X130485139Y-68021200D01*
X136824461Y-68021200D01*
X136880600Y-68026729D01*
X136936739Y-68021200D01*
X136936746Y-68021200D01*
X137104667Y-68004661D01*
X137320123Y-67939303D01*
X137518689Y-67833168D01*
X137692733Y-67690333D01*
X137728527Y-67646718D01*
X142764246Y-62611000D01*
X159190954Y-62611000D01*
X159816800Y-63236847D01*
%TA.AperFunction,Conductor*%
D18*
G36*
X159816800Y-63236847D02*
G01*
X159816801Y-68093985D01*
X159219686Y-68589464D01*
X159229520Y-68489616D01*
X159232600Y-68458346D01*
X159232600Y-68458340D01*
X159238129Y-68402201D01*
X159232600Y-68346062D01*
X159232600Y-65171192D01*
X159258610Y-65145182D01*
X159423314Y-64898685D01*
X159536764Y-64624792D01*
X159594600Y-64334030D01*
X159594600Y-64037570D01*
X159536764Y-63746808D01*
X159423314Y-63472915D01*
X159258610Y-63226418D01*
X159048982Y-63016790D01*
X158802485Y-62852086D01*
X158528592Y-62738636D01*
X158237830Y-62680800D01*
X157941370Y-62680800D01*
X157650608Y-62738636D01*
X157376715Y-62852086D01*
X157130218Y-63016790D01*
X156920590Y-63226418D01*
X156819600Y-63377560D01*
X156718610Y-63226418D01*
X156508982Y-63016790D01*
X156262485Y-62852086D01*
X155988592Y-62738636D01*
X155697830Y-62680800D01*
X155401370Y-62680800D01*
X155110608Y-62738636D01*
X154836715Y-62852086D01*
X154590218Y-63016790D01*
X154380590Y-63226418D01*
X154279600Y-63377560D01*
X154178610Y-63226418D01*
X153968982Y-63016790D01*
X153722485Y-62852086D01*
X153448592Y-62738636D01*
X153157830Y-62680800D01*
X152861370Y-62680800D01*
X152570608Y-62738636D01*
X152296715Y-62852086D01*
X152050218Y-63016790D01*
X151840590Y-63226418D01*
X151739600Y-63377560D01*
X151638610Y-63226418D01*
X151428982Y-63016790D01*
X151182485Y-62852086D01*
X150908592Y-62738636D01*
X150617830Y-62680800D01*
X150321370Y-62680800D01*
X150030608Y-62738636D01*
X149756715Y-62852086D01*
X149510218Y-63016790D01*
X149300590Y-63226418D01*
X149199600Y-63377560D01*
X149098610Y-63226418D01*
X148888982Y-63016790D01*
X148642485Y-62852086D01*
X148368592Y-62738636D01*
X148077830Y-62680800D01*
X147781370Y-62680800D01*
X147490608Y-62738636D01*
X147216715Y-62852086D01*
X146970218Y-63016790D01*
X146806033Y-63180975D01*
X146748005Y-63072413D01*
X146637562Y-62937838D01*
X146502987Y-62827395D01*
X146349451Y-62745328D01*
X146182855Y-62694792D01*
X146009601Y-62677728D01*
X144769599Y-62677728D01*
X144596345Y-62694792D01*
X144429749Y-62745328D01*
X144276213Y-62827395D01*
X144141638Y-62937838D01*
X144031195Y-63072413D01*
X143949128Y-63225949D01*
X143898592Y-63392545D01*
X143881528Y-63565799D01*
X143881528Y-64805801D01*
X143898592Y-64979055D01*
X143949128Y-65145651D01*
X144031195Y-65299187D01*
X144141638Y-65433762D01*
X144276213Y-65544205D01*
X144429749Y-65626272D01*
X144500601Y-65647764D01*
X144500600Y-67068764D01*
X143929165Y-67640200D01*
X139134059Y-67640200D01*
X139090399Y-67635900D01*
X139046739Y-67640200D01*
X139046733Y-67640200D01*
X138949324Y-67649794D01*
X138916124Y-67653064D01*
X138814458Y-67683904D01*
X138748549Y-67703897D01*
X138594109Y-67786447D01*
X138458741Y-67897541D01*
X138430901Y-67931464D01*
X129667065Y-76695300D01*
X127623764Y-76695300D01*
X127602272Y-76624449D01*
X127520205Y-76470913D01*
X127409762Y-76336338D01*
X127275187Y-76225895D01*
X127121651Y-76143828D01*
X126955055Y-76093292D01*
X126781801Y-76076228D01*
X125541799Y-76076228D01*
X125368545Y-76093292D01*
X125201949Y-76143828D01*
X125048413Y-76225895D01*
X124913838Y-76336338D01*
X124803395Y-76470913D01*
X124721328Y-76624449D01*
X124670792Y-76791045D01*
X124653728Y-76964299D01*
X124653728Y-78204301D01*
X124670792Y-78377555D01*
X124721328Y-78544151D01*
X124803395Y-78697687D01*
X124913838Y-78832262D01*
X125048413Y-78942705D01*
X125120619Y-78981300D01*
X122990346Y-78981300D01*
X120824827Y-76815782D01*
X120789033Y-76772167D01*
X120614989Y-76629332D01*
X120416423Y-76523197D01*
X120200967Y-76457839D01*
X120033046Y-76441300D01*
X120033039Y-76441300D01*
X119976900Y-76435771D01*
X119920761Y-76441300D01*
X115227702Y-76441300D01*
X115143160Y-76338285D01*
X119980446Y-71501000D01*
X126283461Y-71501000D01*
X126339600Y-71506529D01*
X126395739Y-71501000D01*
X126395746Y-71501000D01*
X126563667Y-71484461D01*
X126779123Y-71419103D01*
X126977689Y-71312968D01*
X127151733Y-71170133D01*
X127187527Y-71126518D01*
X128073323Y-70240723D01*
X128116933Y-70204933D01*
X128259768Y-70030889D01*
X128365903Y-69832323D01*
X128428158Y-69627097D01*
X128431261Y-69616868D01*
X128433382Y-69595333D01*
X128447800Y-69448946D01*
X128447800Y-69448939D01*
X128453329Y-69392800D01*
X128447800Y-69336661D01*
X128447800Y-65196592D01*
X128473810Y-65170582D01*
X128574800Y-65019440D01*
X128675790Y-65170582D01*
X128701800Y-65196592D01*
X128701801Y-66237852D01*
X128696271Y-66294000D01*
X128718339Y-66518067D01*
X128748192Y-66616476D01*
X128783698Y-66733523D01*
X128889833Y-66932089D01*
X128964175Y-67022675D01*
X128991525Y-67056000D01*
X129032668Y-67106133D01*
X129076278Y-67141923D01*
X129581072Y-67646717D01*
X129616867Y-67690333D01*
X129790911Y-67833168D01*
X129923287Y-67903924D01*
X129989476Y-67939303D01*
X130110770Y-67976097D01*
X130204933Y-68004661D01*
X130372854Y-68021200D01*
X130372861Y-68021200D01*
X130429000Y-68026729D01*
X130485139Y-68021200D01*
X136824461Y-68021200D01*
X136880600Y-68026729D01*
X136936739Y-68021200D01*
X136936746Y-68021200D01*
X137104667Y-68004661D01*
X137320123Y-67939303D01*
X137518689Y-67833168D01*
X137692733Y-67690333D01*
X137728527Y-67646718D01*
X142764246Y-62611000D01*
X159190954Y-62611000D01*
X159816800Y-63236847D01*
G37*
%TD.AperFunction*%
D17*
X147618400Y-76462530D02*
X147676236Y-76753292D01*
X147789686Y-77027185D01*
X147954390Y-77273682D01*
X148164018Y-77483310D01*
X148315160Y-77584300D01*
X148164018Y-77685290D01*
X148138008Y-77711300D01*
X146626838Y-77711300D01*
X146570699Y-77705771D01*
X146514560Y-77711300D01*
X146514554Y-77711300D01*
X146369300Y-77725606D01*
X146346632Y-77727839D01*
X146281274Y-77747665D01*
X146131177Y-77793197D01*
X145934518Y-77898313D01*
X147618400Y-76185770D01*
X147618400Y-76462530D01*
%TA.AperFunction,Conductor*%
D18*
G36*
X147618400Y-76462530D02*
G01*
X147676236Y-76753292D01*
X147789686Y-77027185D01*
X147954390Y-77273682D01*
X148164018Y-77483310D01*
X148315160Y-77584300D01*
X148164018Y-77685290D01*
X148138008Y-77711300D01*
X146626838Y-77711300D01*
X146570699Y-77705771D01*
X146514560Y-77711300D01*
X146514554Y-77711300D01*
X146369300Y-77725606D01*
X146346632Y-77727839D01*
X146281274Y-77747665D01*
X146131177Y-77793197D01*
X145934518Y-77898313D01*
X147618400Y-76185770D01*
X147618400Y-76462530D01*
G37*
%TD.AperFunction*%
%TD*%
M02*
