M48
; DRILL file {KiCad 5.1.7-a382d34a8~88~ubuntu18.04.1} date Thu Apr 28 19:50:52 2022
; FORMAT={-:-/ absolute / inch / decimal}
; #@! TF.CreationDate,2022-04-28T19:50:52-07:00
; #@! TF.GenerationSoftware,Kicad,Pcbnew,5.1.7-a382d34a8~88~ubuntu18.04.1
; #@! TF.FileFunction,Plated,1,2,PTH
FMAT,2
INCH
T1C0.0315
T2C0.0320
T3C0.0330
T4C0.0354
T5C0.0380
T6C0.0394
T7C0.0400
T8C0.0429
T9C0.0598
T10C0.1260
%
G90
G05
T1
X6.3575Y-3.364
X6.6575Y-3.364
X4.889Y-3.3035
X5.189Y-3.3035
X5.8935Y-2.9175
X5.8935Y-3.2175
X5.7495Y-2.916
X5.7495Y-3.216
X6.069Y-2.917
X6.069Y-3.217
X6.635Y-4.191
X6.635Y-4.491
X5.305Y-2.516
X5.305Y-2.616
X5.305Y-2.716
X5.305Y-2.816
X5.305Y-2.916
X5.305Y-3.016
X5.305Y-3.116
X5.305Y-3.216
X5.605Y-2.516
X5.605Y-2.616
X5.605Y-2.716
X5.605Y-2.816
X5.605Y-2.916
X5.605Y-3.016
X5.605Y-3.116
X5.605Y-3.216
X6.9095Y-4.453
X7.2095Y-4.453
X4.424Y-4.558
X4.424Y-4.858
X4.4245Y-4.3945
X4.7245Y-4.3945
X6.1254Y-3.891
X6.2041Y-3.891
X6.2829Y-3.891
X6.3616Y-3.891
X6.5191Y-3.891
X6.5979Y-3.891
X6.6766Y-3.891
X6.146Y-4.711
X6.146Y-5.011
X6.246Y-4.711
X6.246Y-5.011
X6.346Y-4.711
X6.346Y-5.011
X6.446Y-4.711
X6.446Y-5.011
X6.546Y-4.711
X6.546Y-5.011
X6.646Y-4.711
X6.646Y-5.011
X6.746Y-4.711
X6.746Y-5.011
X6.3335Y-2.515
X6.3335Y-2.615
X6.3335Y-2.715
X6.3335Y-2.815
X6.3335Y-2.915
X6.3335Y-3.015
X6.3335Y-3.115
X6.3335Y-3.215
X6.6335Y-2.515
X6.6335Y-2.615
X6.6335Y-2.715
X6.6335Y-2.815
X6.6335Y-2.915
X6.6335Y-3.015
X6.6335Y-3.115
X6.6335Y-3.215
X6.084Y-2.512
X6.084Y-2.812
X4.1315Y-3.903
X4.4315Y-3.903
X5.0835Y-2.4905
X5.0835Y-2.7905
T2
X3.919Y-4.037
X4.0665Y-4.0385
X4.2045Y-2.8075
X4.205Y-2.6575
X4.207Y-2.732
X4.3505Y-2.807
X4.4305Y-2.6575
X4.4305Y-2.7325
X5.196Y-2.265
X5.1965Y-2.502
X5.2464Y-3.7281
X5.247Y-3.5815
X5.447Y-4.075
X5.4525Y-4.574
X5.4555Y-3.983
X5.6755Y-4.575
X5.711Y-3.985
X5.7665Y-2.4675
X5.7675Y-2.1885
X5.804Y-3.368
X5.8045Y-3.4425
X5.8075Y-4.0745
X5.8645Y-2.328
X5.87Y-2.394
X6.0365Y-3.37
X6.037Y-3.4425
X6.045Y-2.328
X6.048Y-2.3955
X6.164Y-3.37
X6.17Y-3.5545
X6.7425Y-2.813
X6.743Y-3.0835
X6.81Y-2.43
X6.8105Y-2.6155
X6.813Y-3.1465
X6.8145Y-2.813
X6.8145Y-3.466
X6.817Y-3.706
X6.874Y-2.4295
X6.8765Y-2.619
X6.8865Y-3.4615
X6.888Y-3.699
X7.2605Y-4.249
X7.2625Y-4.316
X7.419Y-4.249
X7.4215Y-4.316
T3
X7.0175Y-5.007
X7.1175Y-5.007
X7.022Y-4.7135
X7.122Y-4.7135
T4
X6.976Y-4.2485
X7.076Y-4.2485
X4.622Y-4.831
X4.722Y-4.831
X4.622Y-4.579
X4.722Y-4.579
X5.544Y-3.41
X5.544Y-3.51
X5.355Y-3.409
X5.355Y-3.509
X4.1505Y-3.6065
X4.1505Y-3.7065
T5
X7.135Y-3.4845
X7.135Y-3.5845
X7.135Y-3.6845
X7.135Y-3.7845
X7.135Y-3.8845
X7.135Y-3.9845
X4.722Y-3.29
X4.722Y-3.39
X4.722Y-3.49
X4.722Y-3.59
X4.722Y-3.69
X4.722Y-3.79
X7.085Y-2.678
X7.085Y-2.778
X7.085Y-2.878
X7.085Y-2.978
X7.085Y-3.078
X7.085Y-3.178
X4.717Y-2.523
X4.717Y-2.623
X4.717Y-2.723
X4.717Y-2.823
X4.717Y-2.923
X4.717Y-3.023
X4.992Y-4.074
X4.992Y-4.174
X4.992Y-4.274
X4.992Y-4.374
T6
X7.354Y-2.9065
X4.4485Y-2.921
X6.611Y-3.645
X6.711Y-3.645
X4.415Y-3.696
X7.4975Y-3.9295
X6.455Y-3.6435
X7.3558Y-2.7122
X4.4485Y-2.5235
X6.186Y-3.671
X6.286Y-3.671
X6.9175Y-5.007
X6.922Y-4.7135
T7
X6.204Y-4.33
X6.304Y-4.33
X6.404Y-4.33
X4.973Y-4.641
X4.973Y-4.741
X4.973Y-4.841
X5.345Y-3.875
X5.345Y-3.975
X5.345Y-4.075
X5.345Y-4.175
X5.345Y-4.275
X5.345Y-4.375
X5.345Y-4.475
X5.345Y-4.575
X5.345Y-4.675
X5.345Y-4.775
X5.345Y-4.875
X5.345Y-4.975
X5.945Y-3.875
X5.945Y-3.975
X5.945Y-4.075
X5.945Y-4.175
X5.945Y-4.275
X5.945Y-4.375
X5.945Y-4.475
X5.945Y-4.575
X5.945Y-4.675
X5.945Y-4.775
X5.945Y-4.875
X5.945Y-4.975
T8
X5.075Y-2.97
X5.075Y-3.07
T9
X7.466Y-3.2
X7.466Y-3.4
X4.158Y-3.2275
X4.158Y-3.4275
T10
X4.0Y-2.15
X7.45Y-2.15
X7.45Y-5.159
X4.0Y-5.159
T6
G00X4.415Y-3.396
M15
G01X4.415Y-3.396
M16
G05
G00X4.415Y-3.496
M15
G01X4.415Y-3.496
M16
G05
G00X4.415Y-3.596
M15
G01X4.415Y-3.596
M16
G05
G00X7.4975Y-3.6295
M15
G01X7.4975Y-3.6295
M16
G05
G00X7.4975Y-3.7295
M15
G01X7.4975Y-3.7295
M16
G05
G00X7.4975Y-3.8295
M15
G01X7.4975Y-3.8295
M16
G05
T0
M30
