%TF.GenerationSoftware,KiCad,Pcbnew,5.1.7-a382d34a8~88~ubuntu18.04.1*%
%TF.CreationDate,2022-04-28T19:50:43-07:00*%
%TF.ProjectId,Kelly controller,4b656c6c-7920-4636-9f6e-74726f6c6c65,rev?*%
%TF.SameCoordinates,Original*%
%TF.FileFunction,Copper,L1,Top*%
%TF.FilePolarity,Positive*%
%FSLAX46Y46*%
G04 Gerber Fmt 4.6, Leading zero omitted, Abs format (unit mm)*
G04 Created by KiCad (PCBNEW 5.1.7-a382d34a8~88~ubuntu18.04.1) date 2022-04-28 19:50:43*
%MOMM*%
%LPD*%
G01*
G04 APERTURE LIST*
%TA.AperFunction,ComponentPad*%
%ADD10O,1.600000X2.489200*%
%TD*%
%TA.AperFunction,ComponentPad*%
%ADD11R,1.600000X2.489200*%
%TD*%
%TA.AperFunction,ComponentPad*%
%ADD12O,2.489200X1.740000*%
%TD*%
%TA.AperFunction,ComponentPad*%
%ADD13O,1.524000X2.000000*%
%TD*%
%TA.AperFunction,ComponentPad*%
%ADD14O,2.400000X1.600000*%
%TD*%
%TA.AperFunction,ComponentPad*%
%ADD15R,2.400000X1.600000*%
%TD*%
%TA.AperFunction,ComponentPad*%
%ADD16R,1.700000X1.700000*%
%TD*%
%TA.AperFunction,ComponentPad*%
%ADD17C,3.000000*%
%TD*%
%TA.AperFunction,ComponentPad*%
%ADD18R,3.000000X3.000000*%
%TD*%
%TA.AperFunction,ComponentPad*%
%ADD19C,1.740000*%
%TD*%
%TA.AperFunction,ComponentPad*%
%ADD20O,1.740000X2.489200*%
%TD*%
%TA.AperFunction,ComponentPad*%
%ADD21O,2.489200X1.600000*%
%TD*%
%TA.AperFunction,ComponentPad*%
%ADD22O,1.700000X1.700000*%
%TD*%
%TA.AperFunction,ComponentPad*%
%ADD23O,2.489200X1.727200*%
%TD*%
%TA.AperFunction,ComponentPad*%
%ADD24O,1.727200X2.489200*%
%TD*%
%TA.AperFunction,ComponentPad*%
%ADD25R,1.800000X1.800000*%
%TD*%
%TA.AperFunction,ComponentPad*%
%ADD26C,1.879600*%
%TD*%
%TA.AperFunction,ComponentPad*%
%ADD27C,3.200001*%
%TD*%
%TA.AperFunction,ViaPad*%
%ADD28C,1.016000*%
%TD*%
%TA.AperFunction,Conductor*%
%ADD29C,0.508000*%
%TD*%
G04 APERTURE END LIST*
D10*
%TO.P,U3,14*%
%TO.N,VCC*%
X156108400Y-119659400D03*
%TO.P,U3,7*%
%TO.N,+5VA*%
X171348400Y-127279400D03*
%TO.P,U3,13*%
%TO.N,Net-(B1-Pad15)*%
X158648400Y-119659400D03*
%TO.P,U3,6*%
%TO.N,/Throttle-A*%
X168808400Y-127279400D03*
%TO.P,U3,12*%
%TO.N,5V*%
X161188400Y-119659400D03*
%TO.P,U3,5*%
%TO.N,GNDA*%
X166268400Y-127279400D03*
%TO.P,U3,11*%
%TO.N,Net-(U3-Pad11)*%
X163728400Y-119659400D03*
%TO.P,U3,4*%
%TO.N,GND*%
X163728400Y-127279400D03*
%TO.P,U3,10*%
%TO.N,GNDB*%
X166268400Y-119659400D03*
%TO.P,U3,3*%
%TO.N,Net-(B1-Pad14)*%
X161188400Y-127279400D03*
%TO.P,U3,9*%
%TO.N,/Throttle-B*%
X168808400Y-119659400D03*
%TO.P,U3,2*%
%TO.N,Net-(B1-Pad16)*%
X158648400Y-127279400D03*
%TO.P,U3,8*%
%TO.N,+5VB*%
X171348400Y-119659400D03*
D11*
%TO.P,U3,1*%
%TO.N,/10-CS*%
X156108400Y-127279400D03*
%TD*%
%TO.P,J12,1*%
%TO.N,/PWR-A*%
%TA.AperFunction,ComponentPad*%
G36*
G01*
X118944759Y-82696000D02*
X120932841Y-82696000D01*
G75*
G02*
X121183400Y-82946559I0J-250559D01*
G01*
X121183400Y-84185441D01*
G75*
G02*
X120932841Y-84436000I-250559J0D01*
G01*
X118944759Y-84436000D01*
G75*
G02*
X118694200Y-84185441I0J250559D01*
G01*
X118694200Y-82946559D01*
G75*
G02*
X118944759Y-82696000I250559J0D01*
G01*
G37*
%TD.AperFunction*%
D12*
%TO.P,J12,2*%
%TO.N,+48VA*%
X119938800Y-86106000D03*
%TO.P,J12,3*%
%TO.N,+12VA*%
X119938800Y-88646000D03*
%TO.P,J12,4*%
%TO.N,+5VA*%
X119938800Y-91186000D03*
%TO.P,J12,5*%
%TO.N,GNDA*%
X119938800Y-93726000D03*
%TO.P,J12,6*%
%TO.N,/Meter-A*%
X119938800Y-96266000D03*
%TD*%
%TO.P,J11,1*%
%TO.N,/Foot_SW-A*%
%TA.AperFunction,ComponentPad*%
G36*
G01*
X118817759Y-63214200D02*
X120805841Y-63214200D01*
G75*
G02*
X121056400Y-63464759I0J-250559D01*
G01*
X121056400Y-64703641D01*
G75*
G02*
X120805841Y-64954200I-250559J0D01*
G01*
X118817759Y-64954200D01*
G75*
G02*
X118567200Y-64703641I0J250559D01*
G01*
X118567200Y-63464759D01*
G75*
G02*
X118817759Y-63214200I250559J0D01*
G01*
G37*
%TD.AperFunction*%
%TO.P,J11,2*%
%TO.N,/Brake-A*%
X119811800Y-66624200D03*
%TO.P,J11,3*%
%TO.N,/REV-A*%
X119811800Y-69164200D03*
%TO.P,J11,4*%
%TO.N,/FWD-A*%
X119811800Y-71704200D03*
%TO.P,J11,5*%
%TO.N,/Brake_AN-A*%
X119811800Y-74244200D03*
%TO.P,J11,6*%
%TO.N,/Throttle-A*%
X119811800Y-76784200D03*
%TD*%
%TO.P,J2,1*%
%TO.N,/PWR-B*%
%TA.AperFunction,ComponentPad*%
G36*
G01*
X180234959Y-87636300D02*
X182223041Y-87636300D01*
G75*
G02*
X182473600Y-87886859I0J-250559D01*
G01*
X182473600Y-89125741D01*
G75*
G02*
X182223041Y-89376300I-250559J0D01*
G01*
X180234959Y-89376300D01*
G75*
G02*
X179984400Y-89125741I0J250559D01*
G01*
X179984400Y-87886859D01*
G75*
G02*
X180234959Y-87636300I250559J0D01*
G01*
G37*
%TD.AperFunction*%
%TO.P,J2,2*%
%TO.N,+48VB*%
X181229000Y-91046300D03*
%TO.P,J2,3*%
%TO.N,+12VB*%
X181229000Y-93586300D03*
%TO.P,J2,4*%
%TO.N,+5VB*%
X181229000Y-96126300D03*
%TO.P,J2,5*%
%TO.N,GNDB*%
X181229000Y-98666300D03*
%TO.P,J2,6*%
%TO.N,/Meter-B*%
X181229000Y-101206300D03*
%TD*%
%TO.P,J1,1*%
%TO.N,/Foot_SW-B*%
%TA.AperFunction,ComponentPad*%
G36*
G01*
X178964959Y-67151200D02*
X180953041Y-67151200D01*
G75*
G02*
X181203600Y-67401759I0J-250559D01*
G01*
X181203600Y-68640641D01*
G75*
G02*
X180953041Y-68891200I-250559J0D01*
G01*
X178964959Y-68891200D01*
G75*
G02*
X178714400Y-68640641I0J250559D01*
G01*
X178714400Y-67401759D01*
G75*
G02*
X178964959Y-67151200I250559J0D01*
G01*
G37*
%TD.AperFunction*%
%TO.P,J1,2*%
%TO.N,/Brake-B*%
X179959000Y-70561200D03*
%TO.P,J1,3*%
%TO.N,/REV-B*%
X179959000Y-73101200D03*
%TO.P,J1,4*%
%TO.N,/FWD-B*%
X179959000Y-75641200D03*
%TO.P,J1,5*%
%TO.N,/Brake_AN-B*%
X179959000Y-78181200D03*
%TO.P,J1,6*%
%TO.N,/Throttle-B*%
X179959000Y-80721200D03*
%TD*%
D13*
%TO.P,U4,8*%
%TO.N,Net-(U4-Pad8)*%
X155585400Y-98831400D03*
%TO.P,U4,7*%
%TO.N,GND*%
X157585400Y-98831400D03*
%TO.P,U4,6*%
%TO.N,5V*%
X159585400Y-98831400D03*
%TO.P,U4,5*%
%TO.N,Net-(U4-Pad5)*%
X161585400Y-98831400D03*
%TO.P,U4,3*%
%TO.N,Net-(TP1-Pad1)*%
X165585400Y-98831400D03*
%TO.P,U4,2*%
%TO.N,Net-(JP1-Pad2)*%
X167585400Y-98831400D03*
%TO.P,U4,1*%
%TO.N,GNDB*%
X169585400Y-98831400D03*
%TD*%
D14*
%TO.P,U2,16*%
%TO.N,+12VB*%
X142367000Y-63906400D03*
%TO.P,U2,8*%
%TO.N,Net-(R2-Pad1)*%
X134747000Y-81686400D03*
%TO.P,U2,15*%
%TO.N,/Brake-B*%
X142367000Y-66446400D03*
%TO.P,U2,7*%
%TO.N,Net-(D2-Pad1)*%
X134747000Y-79146400D03*
%TO.P,U2,14*%
%TO.N,+12VA*%
X142367000Y-68986400D03*
%TO.P,U2,6*%
%TO.N,Net-(R1-Pad1)*%
X134747000Y-76606400D03*
%TO.P,U2,13*%
%TO.N,/Brake-A*%
X142367000Y-71526400D03*
%TO.P,U2,5*%
%TO.N,Net-(D1-Pad1)*%
X134747000Y-74066400D03*
%TO.P,U2,12*%
%TO.N,VCC*%
X142367000Y-74066400D03*
%TO.P,U2,4*%
%TO.N,GND*%
X134747000Y-71526400D03*
%TO.P,U2,11*%
%TO.N,/9-Meter_B*%
X142367000Y-76606400D03*
%TO.P,U2,3*%
%TO.N,Net-(U2-Pad2)*%
X134747000Y-68986400D03*
%TO.P,U2,10*%
%TO.N,VCC*%
X142367000Y-79146400D03*
%TO.P,U2,2*%
%TO.N,Net-(U2-Pad2)*%
X134747000Y-66446400D03*
%TO.P,U2,9*%
%TO.N,/8-Meter_A*%
X142367000Y-81686400D03*
D15*
%TO.P,U2,1*%
%TO.N,Net-(R5-Pad1)*%
X134747000Y-63906400D03*
%TD*%
D14*
%TO.P,U1,16*%
%TO.N,+12VA*%
X168490900Y-63881000D03*
%TO.P,U1,8*%
%TO.N,GND*%
X160870900Y-81661000D03*
%TO.P,U1,15*%
%TO.N,/FWD-A*%
X168490900Y-66421000D03*
%TO.P,U1,7*%
%TO.N,Net-(U1-Pad6)*%
X160870900Y-79121000D03*
%TO.P,U1,14*%
%TO.N,+12VB*%
X168490900Y-68961000D03*
%TO.P,U1,6*%
%TO.N,Net-(U1-Pad6)*%
X160870900Y-76581000D03*
%TO.P,U1,13*%
%TO.N,/FWD-B*%
X168490900Y-71501000D03*
%TO.P,U1,5*%
%TO.N,Net-(R4-Pad1)*%
X160870900Y-74041000D03*
%TO.P,U1,12*%
%TO.N,+12VB*%
X168490900Y-74041000D03*
%TO.P,U1,4*%
%TO.N,GND*%
X160870900Y-71501000D03*
%TO.P,U1,11*%
%TO.N,/REV-B*%
X168490900Y-76581000D03*
%TO.P,U1,3*%
%TO.N,Net-(U1-Pad2)*%
X160870900Y-68961000D03*
%TO.P,U1,10*%
%TO.N,+12VA*%
X168490900Y-79121000D03*
%TO.P,U1,2*%
%TO.N,Net-(U1-Pad2)*%
X160870900Y-66421000D03*
%TO.P,U1,9*%
%TO.N,/REV-A*%
X168490900Y-81661000D03*
D15*
%TO.P,U1,1*%
%TO.N,Net-(R3-Pad1)*%
X160870900Y-63881000D03*
%TD*%
D16*
%TO.P,TP15,1*%
%TO.N,/Brake_AN-B*%
X186791600Y-73825100D03*
%TD*%
%TO.P,TP14,1*%
%TO.N,/Brake_AN-A*%
X112991900Y-74193400D03*
%TD*%
%TO.P,TP13,1*%
%TO.N,/Foot_SW-A*%
X112991900Y-64096900D03*
%TD*%
%TO.P,TP12,1*%
%TO.N,/Foot_SW-B*%
X186836500Y-68889700D03*
%TD*%
%TO.P,TP1,1*%
%TO.N,Net-(TP1-Pad1)*%
X163957000Y-92544900D03*
%TD*%
D17*
%TO.P,SW5,2*%
%TO.N,+48VA*%
X105613200Y-87058500D03*
D18*
%TO.P,SW5,1*%
%TO.N,/PWR-A*%
X105613200Y-81978500D03*
%TD*%
D17*
%TO.P,SW4,2*%
%TO.N,+48VB*%
X189636400Y-86360000D03*
D18*
%TO.P,SW4,1*%
%TO.N,/PWR-B*%
X189636400Y-81280000D03*
%TD*%
D19*
%TO.P,SW2,2*%
%TO.N,VCC*%
X128905000Y-77978000D03*
%TO.P,SW2,1*%
%TO.N,/7-Brake*%
%TA.AperFunction,ComponentPad*%
G36*
G01*
X128284999Y-74568000D02*
X129525001Y-74568000D01*
G75*
G02*
X129775000Y-74817999I0J-249999D01*
G01*
X129775000Y-76058001D01*
G75*
G02*
X129525001Y-76308000I-249999J0D01*
G01*
X128284999Y-76308000D01*
G75*
G02*
X128035000Y-76058001I0J249999D01*
G01*
X128035000Y-74817999D01*
G75*
G02*
X128284999Y-74568000I249999J0D01*
G01*
G37*
%TD.AperFunction*%
%TD*%
%TO.P,SW1,1*%
%TO.N,/5-Reverse*%
%TA.AperFunction,ComponentPad*%
G36*
G01*
X125320159Y-117011400D02*
X127308241Y-117011400D01*
G75*
G02*
X127558800Y-117261959I0J-250559D01*
G01*
X127558800Y-118500841D01*
G75*
G02*
X127308241Y-118751400I-250559J0D01*
G01*
X125320159Y-118751400D01*
G75*
G02*
X125069600Y-118500841I0J250559D01*
G01*
X125069600Y-117261959D01*
G75*
G02*
X125320159Y-117011400I250559J0D01*
G01*
G37*
%TD.AperFunction*%
D12*
%TO.P,SW1,2*%
%TO.N,VCC*%
X126314200Y-120421400D03*
%TO.P,SW1,3*%
%TO.N,/6-Forward*%
X126314200Y-122961400D03*
%TD*%
%TO.P,RV1,1*%
%TO.N,VCC*%
%TA.AperFunction,ComponentPad*%
G36*
G01*
X156711600Y-110976041D02*
X156711600Y-108987959D01*
G75*
G02*
X156962159Y-108737400I250559J0D01*
G01*
X158201041Y-108737400D01*
G75*
G02*
X158451600Y-108987959I0J-250559D01*
G01*
X158451600Y-110976041D01*
G75*
G02*
X158201041Y-111226600I-250559J0D01*
G01*
X156962159Y-111226600D01*
G75*
G02*
X156711600Y-110976041I0J250559D01*
G01*
G37*
%TD.AperFunction*%
D20*
%TO.P,RV1,2*%
%TO.N,Net-(B1-Pad17)*%
X160121600Y-109982000D03*
%TO.P,RV1,3*%
%TO.N,Net-(R8-Pad2)*%
X162661600Y-109982000D03*
%TD*%
D21*
%TO.P,R12,1*%
%TO.N,Net-(D4-Pad1)*%
X112369600Y-123393200D03*
%TO.P,R12,2*%
%TO.N,GND*%
X112369600Y-115773200D03*
%TD*%
D10*
%TO.P,R11,1*%
%TO.N,Net-(D3-Pad1)*%
X120002300Y-111620300D03*
%TO.P,R11,2*%
%TO.N,GND*%
X112382300Y-111620300D03*
%TD*%
%TO.P,R10,1*%
%TO.N,Net-(D6-Pad1)*%
X104940100Y-99136200D03*
%TO.P,R10,2*%
%TO.N,GNDA*%
X112560100Y-99136200D03*
%TD*%
%TO.P,R9,1*%
%TO.N,Net-(D5-Pad1)*%
X175501300Y-113106200D03*
%TO.P,R9,2*%
%TO.N,GNDB*%
X183121300Y-113106200D03*
%TD*%
D21*
%TO.P,R8,1*%
%TO.N,GND*%
X168529000Y-106451400D03*
%TO.P,R8,2*%
%TO.N,Net-(R8-Pad2)*%
X168529000Y-114071400D03*
%TD*%
%TO.P,R7,1*%
%TO.N,/8-Meter_A*%
X146037300Y-81686400D03*
%TO.P,R7,2*%
%TO.N,GND*%
X146037300Y-74066400D03*
%TD*%
%TO.P,R6,1*%
%TO.N,/9-Meter_B*%
X149694900Y-81724500D03*
%TO.P,R6,2*%
%TO.N,GND*%
X149694900Y-74104500D03*
%TD*%
%TO.P,R5,1*%
%TO.N,Net-(R5-Pad1)*%
X129120900Y-63258700D03*
%TO.P,R5,2*%
%TO.N,/7-Brake*%
X129120900Y-70878700D03*
%TD*%
%TO.P,R4,1*%
%TO.N,Net-(R4-Pad1)*%
X154152600Y-74091800D03*
%TO.P,R4,2*%
%TO.N,/5-Reverse*%
X154152600Y-81711800D03*
%TD*%
%TO.P,R3,1*%
%TO.N,Net-(R3-Pad1)*%
X154533600Y-63804800D03*
%TO.P,R3,2*%
%TO.N,/6-Forward*%
X154533600Y-71424800D03*
%TD*%
D10*
%TO.P,R2,1*%
%TO.N,Net-(R2-Pad1)*%
X131800600Y-83908900D03*
%TO.P,R2,2*%
%TO.N,GNDA*%
X124180600Y-83908900D03*
%TD*%
%TO.P,R1,1*%
%TO.N,Net-(R1-Pad1)*%
X161480500Y-85445600D03*
%TO.P,R1,2*%
%TO.N,GNDB*%
X169100500Y-85445600D03*
%TD*%
D22*
%TO.P,JP1,2*%
%TO.N,Net-(JP1-Pad2)*%
X167919400Y-92583000D03*
D16*
%TO.P,JP1,1*%
%TO.N,+48VB*%
X170459400Y-92583000D03*
%TD*%
%TO.P,J8,1*%
%TO.N,GNDA*%
X112141000Y-93878400D03*
D23*
%TO.P,J8,2*%
%TO.N,+5VA*%
X112141000Y-91338400D03*
%TO.P,J8,3*%
%TO.N,+12VA*%
X112141000Y-88798400D03*
%TO.P,J8,4*%
%TO.N,+48VA*%
X112141000Y-86258400D03*
%TD*%
D16*
%TO.P,J7,1*%
%TO.N,GNDB*%
X190436500Y-99809300D03*
D23*
%TO.P,J7,2*%
%TO.N,+5VB*%
X190436500Y-97269300D03*
%TO.P,J7,3*%
%TO.N,+12VB*%
X190436500Y-94729300D03*
%TO.P,J7,4*%
%TO.N,+48VB*%
X190436500Y-92189300D03*
%TD*%
D22*
%TO.P,J6,2*%
%TO.N,GND*%
X157124400Y-93243400D03*
D16*
%TO.P,J6,1*%
%TO.N,5V*%
X159664400Y-93243400D03*
%TD*%
%TO.P,J5,1*%
%TO.N,+5VB*%
X175818800Y-119722900D03*
D24*
%TO.P,J5,2*%
%TO.N,/Throttle-B*%
X178358800Y-119722900D03*
%TO.P,J5,3*%
%TO.N,GNDB*%
X180898800Y-119722900D03*
%TD*%
D16*
%TO.P,J4,1*%
%TO.N,+5VA*%
X175704500Y-127177800D03*
D24*
%TO.P,J4,2*%
%TO.N,/Throttle-A*%
X178244500Y-127177800D03*
%TO.P,J4,3*%
%TO.N,GNDA*%
X180784500Y-127177800D03*
%TD*%
%TO.P,J3,1*%
%TO.N,GND*%
%TA.AperFunction,ComponentPad*%
G36*
G01*
X125917059Y-102609600D02*
X127676541Y-102609600D01*
G75*
G02*
X127927100Y-102860159I0J-250559D01*
G01*
X127927100Y-104099041D01*
G75*
G02*
X127676541Y-104349600I-250559J0D01*
G01*
X125917059Y-104349600D01*
G75*
G02*
X125666500Y-104099041I0J250559D01*
G01*
X125666500Y-102860159D01*
G75*
G02*
X125917059Y-102609600I250559J0D01*
G01*
G37*
%TD.AperFunction*%
D12*
%TO.P,J3,2*%
%TO.N,/SDA*%
X126796800Y-106019600D03*
%TO.P,J3,3*%
%TO.N,/SCL*%
X126796800Y-108559600D03*
%TO.P,J3,4*%
%TO.N,VCC*%
X126796800Y-111099600D03*
%TD*%
D25*
%TO.P,D6,1*%
%TO.N,Net-(D6-Pad1)*%
X105422700Y-94145100D03*
D23*
%TO.P,D6,2*%
%TO.N,+5VA*%
X105422700Y-91605100D03*
%TD*%
D24*
%TO.P,D5,2*%
%TO.N,+5VB*%
X179730400Y-107911900D03*
D25*
%TO.P,D5,1*%
%TO.N,Net-(D5-Pad1)*%
X177190400Y-107911900D03*
%TD*%
%TO.P,D4,1*%
%TO.N,Net-(D4-Pad1)*%
X117398800Y-122707400D03*
D24*
%TO.P,D4,2*%
%TO.N,/6-Forward*%
X119938800Y-122707400D03*
%TD*%
D25*
%TO.P,D3,1*%
%TO.N,Net-(D3-Pad1)*%
X117398800Y-116306600D03*
D24*
%TO.P,D3,2*%
%TO.N,/5-Reverse*%
X119938800Y-116306600D03*
%TD*%
D25*
%TO.P,D2,1*%
%TO.N,Net-(D2-Pad1)*%
X136017000Y-86588600D03*
D23*
%TO.P,D2,2*%
%TO.N,/Meter-A*%
X136017000Y-89128600D03*
%TD*%
D25*
%TO.P,D1,1*%
%TO.N,Net-(D1-Pad1)*%
X140817600Y-86614000D03*
D23*
%TO.P,D1,2*%
%TO.N,/Meter-B*%
X140817600Y-89154000D03*
%TD*%
D26*
%TO.P,B1,24*%
%TO.N,5V*%
X151003000Y-98425000D03*
%TO.P,B1,23*%
%TO.N,GND*%
X151003000Y-100965000D03*
%TO.P,B1,22*%
%TO.N,Net-(B1-Pad22)*%
X151003000Y-103505000D03*
%TO.P,B1,21*%
%TO.N,VCC*%
X151003000Y-106045000D03*
%TO.P,B1,20*%
%TO.N,Net-(B1-Pad20)*%
X151003000Y-108585000D03*
%TO.P,B1,19*%
%TO.N,Net-(B1-Pad19)*%
X151003000Y-111125000D03*
%TO.P,B1,18*%
%TO.N,Net-(B1-Pad18)*%
X151003000Y-113665000D03*
%TO.P,B1,17*%
%TO.N,Net-(B1-Pad17)*%
X151003000Y-116205000D03*
%TO.P,B1,16*%
%TO.N,Net-(B1-Pad16)*%
X151003000Y-118745000D03*
%TO.P,B1,15*%
%TO.N,Net-(B1-Pad15)*%
X151003000Y-121285000D03*
%TO.P,B1,14*%
%TO.N,Net-(B1-Pad14)*%
X151003000Y-123825000D03*
%TO.P,B1,13*%
%TO.N,/10-CS*%
X151003000Y-126365000D03*
%TO.P,B1,12*%
%TO.N,/9-Meter_B*%
X135763000Y-126365000D03*
%TO.P,B1,11*%
%TO.N,/8-Meter_A*%
X135763000Y-123825000D03*
%TO.P,B1,10*%
%TO.N,/7-Brake*%
X135763000Y-121285000D03*
%TO.P,B1,9*%
%TO.N,/6-Forward*%
X135763000Y-118745000D03*
%TO.P,B1,8*%
%TO.N,/5-Reverse*%
X135763000Y-116205000D03*
%TO.P,B1,7*%
%TO.N,Net-(B1-Pad7)*%
X135763000Y-113665000D03*
%TO.P,B1,6*%
%TO.N,/SCL*%
X135763000Y-111125000D03*
%TO.P,B1,5*%
%TO.N,/SDA*%
X135763000Y-108585000D03*
%TO.P,B1,4*%
%TO.N,GND*%
X135763000Y-106045000D03*
%TO.P,B1,3*%
X135763000Y-103505000D03*
%TO.P,B1,2*%
%TO.N,Net-(B1-Pad2)*%
X135763000Y-100965000D03*
%TO.P,B1,1*%
%TO.N,Net-(B1-Pad1)*%
X135763000Y-98425000D03*
%TD*%
D27*
%TO.P,H1,1*%
%TO.N,N/C*%
X189230000Y-54610000D03*
%TD*%
%TO.P,H2,1*%
%TO.N,N/C*%
X189230000Y-131038600D03*
%TD*%
%TO.P,H3,1*%
%TO.N,N/C*%
X101600000Y-54610000D03*
%TD*%
%TO.P,H4,1*%
%TO.N,N/C*%
X101600000Y-131038600D03*
%TD*%
D28*
%TO.N,GND*%
X138353800Y-103505000D03*
X147421600Y-85547200D03*
X153327100Y-85598000D03*
X156718000Y-90284300D03*
X156565600Y-85598000D03*
X147510500Y-103492300D03*
%TO.N,/Throttle-A*%
X110502700Y-71297800D03*
X106794300Y-71310500D03*
X103289100Y-102577900D03*
X99542600Y-102539800D03*
%TO.N,/FWD-A*%
X112534700Y-69405500D03*
X106857800Y-69392800D03*
X172986700Y-66433700D03*
X172974000Y-61722000D03*
%TO.N,/REV-A*%
X112534700Y-67500500D03*
X106807000Y-67500500D03*
X153543000Y-59131200D03*
X148958300Y-59131200D03*
%TO.N,/Meter-A*%
X133273800Y-90970100D03*
X133258829Y-94693471D03*
%TO.N,Net-(R1-Pad1)*%
X153619200Y-60845700D03*
X131991100Y-63550800D03*
X131978400Y-57531000D03*
X149098000Y-60807600D03*
%TO.N,VCC*%
X145059400Y-101219000D03*
X138569700Y-101168200D03*
%TO.N,/Meter-B*%
X153339800Y-87439500D03*
X147434300Y-87439500D03*
%TO.N,+5VB*%
X184416700Y-107924600D03*
X188442600Y-107924600D03*
%TO.N,/Throttle-B*%
X184467500Y-109626400D03*
X188506100Y-109626400D03*
%TO.N,/FWD-B*%
X171259500Y-71450200D03*
X171272200Y-78320900D03*
%TO.N,GNDB*%
X173088300Y-88036400D03*
X173151800Y-94132400D03*
%TO.N,+12VB*%
X173088300Y-71450200D03*
X173050200Y-79921100D03*
X174917100Y-87922100D03*
X174955200Y-93954600D03*
X174663100Y-66522600D03*
X174599600Y-61709300D03*
X146469100Y-62674500D03*
X146494500Y-55587900D03*
%TO.N,/5-Reverse*%
X138493500Y-116179600D03*
X144157700Y-116205000D03*
%TD*%
D29*
%TO.N,GND*%
X147421600Y-85547200D02*
X153276300Y-85547200D01*
X153276300Y-85547200D02*
X153327100Y-85598000D01*
X156718000Y-90284300D02*
X156718000Y-85750400D01*
X156718000Y-85750400D02*
X156565600Y-85598000D01*
X144818100Y-103505000D02*
X138353800Y-103505000D01*
X147510500Y-103492300D02*
X144818100Y-103505000D01*
%TO.N,/Throttle-A*%
X107657900Y-71310500D02*
X110502700Y-71297800D01*
X106794300Y-71310500D02*
X107657900Y-71310500D01*
X103289100Y-102577900D02*
X99580700Y-102577900D01*
X99580700Y-102577900D02*
X99542600Y-102539800D01*
%TO.N,/FWD-A*%
X108673900Y-69405500D02*
X112534700Y-69405500D01*
X106857800Y-69392800D02*
X108673900Y-69405500D01*
X172974000Y-61722000D02*
X172986700Y-66433700D01*
%TO.N,/REV-A*%
X108686600Y-67500500D02*
X112534700Y-67500500D01*
X106807000Y-67500500D02*
X108686600Y-67500500D01*
X153543000Y-59131200D02*
X148958300Y-59131200D01*
%TO.N,/Meter-A*%
X133235700Y-91008200D02*
X133273800Y-90970100D01*
X133258829Y-94693471D02*
X133235700Y-91008200D01*
%TO.N,Net-(R1-Pad1)*%
X131991100Y-63550800D02*
X131991100Y-57543700D01*
X131991100Y-57543700D02*
X131978400Y-57531000D01*
X153581100Y-60807600D02*
X153619200Y-60845700D01*
X149098000Y-60807600D02*
X153581100Y-60807600D01*
%TO.N,VCC*%
X145059400Y-101219000D02*
X138620500Y-101219000D01*
X138620500Y-101219000D02*
X138569700Y-101168200D01*
%TO.N,/Meter-B*%
X153339800Y-87439500D02*
X147434300Y-87439500D01*
%TO.N,+5VB*%
X184416700Y-107924600D02*
X188442600Y-107924600D01*
%TO.N,/Throttle-B*%
X184467500Y-109626400D02*
X188506100Y-109626400D01*
%TO.N,/FWD-B*%
X171272200Y-71462900D02*
X171259500Y-71450200D01*
X171272200Y-78320900D02*
X171272200Y-71462900D01*
%TO.N,GNDB*%
X173088300Y-88036400D02*
X173088300Y-94068900D01*
X173088300Y-94068900D02*
X173151800Y-94132400D01*
%TO.N,+12VB*%
X173088300Y-71450200D02*
X173088300Y-79883000D01*
X173088300Y-79883000D02*
X173050200Y-79921100D01*
X174917100Y-87922100D02*
X174917100Y-93916500D01*
X174917100Y-93916500D02*
X174955200Y-93954600D01*
X174599600Y-62928500D02*
X174663100Y-66522600D01*
X174599600Y-61709300D02*
X174599600Y-62928500D01*
X146469100Y-62674500D02*
X146469100Y-55613300D01*
X146469100Y-55613300D02*
X146494500Y-55587900D01*
%TO.N,/5-Reverse*%
X138493500Y-116179600D02*
X144132300Y-116179600D01*
X144132300Y-116179600D02*
X144157700Y-116205000D01*
%TD*%
M02*
