%TF.GenerationSoftware,KiCad,Pcbnew,5.1.7-a382d34a8~88~ubuntu18.04.1*%
%TF.CreationDate,2022-01-07T06:57:45-08:00*%
%TF.ProjectId,Kelly controller,4b656c6c-7920-4636-9f6e-74726f6c6c65,rev?*%
%TF.SameCoordinates,Original*%
%TF.FileFunction,Copper,L1,Top*%
%TF.FilePolarity,Positive*%
%FSLAX46Y46*%
G04 Gerber Fmt 4.6, Leading zero omitted, Abs format (unit mm)*
G04 Created by KiCad (PCBNEW 5.1.7-a382d34a8~88~ubuntu18.04.1) date 2022-01-07 06:57:45*
%MOMM*%
%LPD*%
G01*
G04 APERTURE LIST*
%TA.AperFunction,ComponentPad*%
%ADD10C,1.740000*%
%TD*%
%TA.AperFunction,ComponentPad*%
%ADD11C,3.200001*%
%TD*%
%TA.AperFunction,ComponentPad*%
%ADD12C,3.000000*%
%TD*%
%TA.AperFunction,ComponentPad*%
%ADD13R,3.000000X3.000000*%
%TD*%
%TA.AperFunction,ViaPad*%
%ADD14C,0.838200*%
%TD*%
%TA.AperFunction,Conductor*%
%ADD15C,0.508000*%
%TD*%
G04 APERTURE END LIST*
D10*
%TO.P,J2,6*%
%TO.N,/Meter*%
X134924800Y-64211200D03*
%TO.P,J2,5*%
%TO.N,GND*%
X132384800Y-64211200D03*
%TO.P,J2,4*%
%TO.N,5V*%
X129844800Y-64211200D03*
%TO.P,J2,3*%
%TO.N,12V*%
X127304800Y-64211200D03*
%TO.P,J2,2*%
%TO.N,+48V*%
X124764800Y-64211200D03*
%TO.P,J2,1*%
%TO.N,/PWR*%
%TA.AperFunction,ComponentPad*%
G36*
G01*
X121354800Y-64831201D02*
X121354800Y-63591199D01*
G75*
G02*
X121604799Y-63341200I249999J0D01*
G01*
X122844801Y-63341200D01*
G75*
G02*
X123094800Y-63591199I0J-249999D01*
G01*
X123094800Y-64831201D01*
G75*
G02*
X122844801Y-65081200I-249999J0D01*
G01*
X121604799Y-65081200D01*
G75*
G02*
X121354800Y-64831201I0J249999D01*
G01*
G37*
%TD.AperFunction*%
%TD*%
%TO.P,J1,6*%
%TO.N,/Throttle*%
X158089600Y-64185800D03*
%TO.P,J1,5*%
%TO.N,/Brake_AN*%
X155549600Y-64185800D03*
%TO.P,J1,4*%
%TO.N,/FWD*%
X153009600Y-64185800D03*
%TO.P,J1,3*%
%TO.N,/REV*%
X150469600Y-64185800D03*
%TO.P,J1,2*%
%TO.N,/Brake*%
X147929600Y-64185800D03*
%TO.P,J1,1*%
%TO.N,/Foot_SW*%
%TA.AperFunction,ComponentPad*%
G36*
G01*
X144519600Y-64805801D02*
X144519600Y-63565799D01*
G75*
G02*
X144769599Y-63315800I249999J0D01*
G01*
X146009601Y-63315800D01*
G75*
G02*
X146259600Y-63565799I0J-249999D01*
G01*
X146259600Y-64805801D01*
G75*
G02*
X146009601Y-65055800I-249999J0D01*
G01*
X144769599Y-65055800D01*
G75*
G02*
X144519600Y-64805801I0J249999D01*
G01*
G37*
%TD.AperFunction*%
%TD*%
D11*
%TO.P,H1,1*%
%TO.N,N/C*%
X104993401Y-48685601D03*
%TD*%
%TO.P,H2,1*%
%TO.N,N/C*%
X158968401Y-48685601D03*
%TD*%
%TO.P,H3,1*%
%TO.N,N/C*%
X104993401Y-93135601D03*
%TD*%
%TO.P,H4,1*%
%TO.N,N/C*%
X158968401Y-93135601D03*
%TD*%
%TO.P,J4,1*%
%TO.N,GND*%
%TA.AperFunction,ComponentPad*%
G36*
G01*
X149371000Y-52371801D02*
X149371000Y-51131799D01*
G75*
G02*
X149620999Y-50881800I249999J0D01*
G01*
X150861001Y-50881800D01*
G75*
G02*
X151111000Y-51131799I0J-249999D01*
G01*
X151111000Y-52371801D01*
G75*
G02*
X150861001Y-52621800I-249999J0D01*
G01*
X149620999Y-52621800D01*
G75*
G02*
X149371000Y-52371801I0J249999D01*
G01*
G37*
%TD.AperFunction*%
D10*
%TO.P,J4,2*%
%TO.N,/Meter*%
X152781000Y-51751800D03*
%TD*%
%TO.P,J5,1*%
%TO.N,+48V*%
%TA.AperFunction,ComponentPad*%
G36*
G01*
X113273599Y-65093800D02*
X114513601Y-65093800D01*
G75*
G02*
X114763600Y-65343799I0J-249999D01*
G01*
X114763600Y-66583801D01*
G75*
G02*
X114513601Y-66833800I-249999J0D01*
G01*
X113273599Y-66833800D01*
G75*
G02*
X113023600Y-66583801I0J249999D01*
G01*
X113023600Y-65343799D01*
G75*
G02*
X113273599Y-65093800I249999J0D01*
G01*
G37*
%TD.AperFunction*%
%TO.P,J5,2*%
%TO.N,GND*%
X113893600Y-68503800D03*
%TD*%
%TO.P,J6,2*%
%TO.N,GND*%
X113893600Y-80124300D03*
%TO.P,J6,1*%
%TO.N,12V*%
%TA.AperFunction,ComponentPad*%
G36*
G01*
X113273599Y-76714300D02*
X114513601Y-76714300D01*
G75*
G02*
X114763600Y-76964299I0J-249999D01*
G01*
X114763600Y-78204301D01*
G75*
G02*
X114513601Y-78454300I-249999J0D01*
G01*
X113273599Y-78454300D01*
G75*
G02*
X113023600Y-78204301I0J249999D01*
G01*
X113023600Y-76964299D01*
G75*
G02*
X113273599Y-76714300I249999J0D01*
G01*
G37*
%TD.AperFunction*%
%TD*%
%TO.P,J7,1*%
%TO.N,5V*%
%TA.AperFunction,ComponentPad*%
G36*
G01*
X113013601Y-92614800D02*
X111773599Y-92614800D01*
G75*
G02*
X111523600Y-92364801I0J249999D01*
G01*
X111523600Y-91124799D01*
G75*
G02*
X111773599Y-90874800I249999J0D01*
G01*
X113013601Y-90874800D01*
G75*
G02*
X113263600Y-91124799I0J-249999D01*
G01*
X113263600Y-92364801D01*
G75*
G02*
X113013601Y-92614800I-249999J0D01*
G01*
G37*
%TD.AperFunction*%
%TO.P,J7,2*%
%TO.N,GND*%
X112393600Y-89204800D03*
%TD*%
%TO.P,RV1,3*%
%TO.N,GND*%
X140004800Y-87884000D03*
%TO.P,RV1,2*%
%TO.N,/Throttle*%
X140004800Y-90424000D03*
%TO.P,RV1,1*%
%TO.N,5V*%
%TA.AperFunction,ComponentPad*%
G36*
G01*
X140624801Y-93834000D02*
X139384799Y-93834000D01*
G75*
G02*
X139134800Y-93584001I0J249999D01*
G01*
X139134800Y-92343999D01*
G75*
G02*
X139384799Y-92094000I249999J0D01*
G01*
X140624801Y-92094000D01*
G75*
G02*
X140874800Y-92343999I0J-249999D01*
G01*
X140874800Y-93584001D01*
G75*
G02*
X140624801Y-93834000I-249999J0D01*
G01*
G37*
%TD.AperFunction*%
%TD*%
%TO.P,RV2,1*%
%TO.N,5V*%
%TA.AperFunction,ComponentPad*%
G36*
G01*
X125283201Y-93834000D02*
X124043199Y-93834000D01*
G75*
G02*
X123793200Y-93584001I0J249999D01*
G01*
X123793200Y-92343999D01*
G75*
G02*
X124043199Y-92094000I249999J0D01*
G01*
X125283201Y-92094000D01*
G75*
G02*
X125533200Y-92343999I0J-249999D01*
G01*
X125533200Y-93584001D01*
G75*
G02*
X125283201Y-93834000I-249999J0D01*
G01*
G37*
%TD.AperFunction*%
%TO.P,RV2,2*%
%TO.N,/Brake_AN*%
X124663200Y-90424000D03*
%TO.P,RV2,3*%
%TO.N,GND*%
X124663200Y-87884000D03*
%TD*%
%TO.P,SW1,3*%
%TO.N,/REV*%
X149123400Y-76314300D03*
%TO.P,SW1,2*%
%TO.N,12V*%
X149123400Y-78854300D03*
%TO.P,SW1,1*%
%TO.N,/FWD*%
%TA.AperFunction,ComponentPad*%
G36*
G01*
X149743401Y-82264300D02*
X148503399Y-82264300D01*
G75*
G02*
X148253400Y-82014301I0J249999D01*
G01*
X148253400Y-80774299D01*
G75*
G02*
X148503399Y-80524300I249999J0D01*
G01*
X149743401Y-80524300D01*
G75*
G02*
X149993400Y-80774299I0J-249999D01*
G01*
X149993400Y-82014301D01*
G75*
G02*
X149743401Y-82264300I-249999J0D01*
G01*
G37*
%TD.AperFunction*%
%TD*%
%TO.P,SW2,2*%
%TO.N,12V*%
X126161800Y-80124300D03*
%TO.P,SW2,1*%
%TO.N,/Foot_SW*%
%TA.AperFunction,ComponentPad*%
G36*
G01*
X125541799Y-76714300D02*
X126781801Y-76714300D01*
G75*
G02*
X127031800Y-76964299I0J-249999D01*
G01*
X127031800Y-78204301D01*
G75*
G02*
X126781801Y-78454300I-249999J0D01*
G01*
X125541799Y-78454300D01*
G75*
G02*
X125291800Y-78204301I0J249999D01*
G01*
X125291800Y-76964299D01*
G75*
G02*
X125541799Y-76714300I249999J0D01*
G01*
G37*
%TD.AperFunction*%
%TD*%
%TO.P,SW3,2*%
%TO.N,12V*%
X138392600Y-80124300D03*
%TO.P,SW3,1*%
%TO.N,/Brake*%
%TA.AperFunction,ComponentPad*%
G36*
G01*
X137772599Y-76714300D02*
X139012601Y-76714300D01*
G75*
G02*
X139262600Y-76964299I0J-249999D01*
G01*
X139262600Y-78204301D01*
G75*
G02*
X139012601Y-78454300I-249999J0D01*
G01*
X137772599Y-78454300D01*
G75*
G02*
X137522600Y-78204301I0J249999D01*
G01*
X137522600Y-76964299D01*
G75*
G02*
X137772599Y-76714300I249999J0D01*
G01*
G37*
%TD.AperFunction*%
%TD*%
D12*
%TO.P,SW4,2*%
%TO.N,+48V*%
X128092200Y-52501800D03*
D13*
%TO.P,SW4,1*%
%TO.N,/PWR*%
X123012200Y-52501800D03*
%TD*%
D14*
%TO.N,GND*%
X125857000Y-83820000D03*
X130225800Y-88188800D03*
X118338600Y-79705200D03*
X119075200Y-74447400D03*
X133248400Y-71221600D03*
X140284200Y-71272400D03*
X145211800Y-74472800D03*
X146964400Y-77139800D03*
%TD*%
D15*
%TO.N,GND*%
X125857000Y-83820000D02*
X130225800Y-88188800D01*
X118338600Y-79705200D02*
X118338600Y-75184000D01*
X118338600Y-75184000D02*
X119075200Y-74447400D01*
X133248400Y-71221600D02*
X140233400Y-71221600D01*
X140233400Y-71221600D02*
X140284200Y-71272400D01*
X145211800Y-74472800D02*
X146964400Y-76225400D01*
X146964400Y-76225400D02*
X146964400Y-77139800D01*
%TD*%
M02*
