%TF.GenerationSoftware,KiCad,Pcbnew,5.1.7-a382d34a8~88~ubuntu18.04.1*%
%TF.CreationDate,2022-04-10T06:31:16-07:00*%
%TF.ProjectId,Kelly controller,4b656c6c-7920-4636-9f6e-74726f6c6c65,rev?*%
%TF.SameCoordinates,Original*%
%TF.FileFunction,Copper,L1,Top*%
%TF.FilePolarity,Positive*%
%FSLAX46Y46*%
G04 Gerber Fmt 4.6, Leading zero omitted, Abs format (unit mm)*
G04 Created by KiCad (PCBNEW 5.1.7-a382d34a8~88~ubuntu18.04.1) date 2022-04-10 06:31:16*
%MOMM*%
%LPD*%
G01*
G04 APERTURE LIST*
%TA.AperFunction,ComponentPad*%
%ADD10O,2.387600X1.778000*%
%TD*%
%TA.AperFunction,ComponentPad*%
%ADD11O,2.489200X1.740000*%
%TD*%
%TA.AperFunction,ComponentPad*%
%ADD12O,2.489200X1.600000*%
%TD*%
%TA.AperFunction,ComponentPad*%
%ADD13R,1.600000X1.600000*%
%TD*%
%TA.AperFunction,ComponentPad*%
%ADD14O,1.600000X2.400000*%
%TD*%
%TA.AperFunction,ComponentPad*%
%ADD15R,1.600000X2.400000*%
%TD*%
%TA.AperFunction,ComponentPad*%
%ADD16C,1.740000*%
%TD*%
%TA.AperFunction,ComponentPad*%
%ADD17O,1.600000X1.600000*%
%TD*%
%TA.AperFunction,ComponentPad*%
%ADD18C,1.600000*%
%TD*%
%TA.AperFunction,ComponentPad*%
%ADD19O,2.400000X1.600000*%
%TD*%
%TA.AperFunction,ComponentPad*%
%ADD20R,2.400000X1.600000*%
%TD*%
%TA.AperFunction,ComponentPad*%
%ADD21C,3.000000*%
%TD*%
%TA.AperFunction,ComponentPad*%
%ADD22R,3.000000X3.000000*%
%TD*%
%TA.AperFunction,ComponentPad*%
%ADD23C,3.200001*%
%TD*%
%TA.AperFunction,ViaPad*%
%ADD24C,1.016000*%
%TD*%
%TA.AperFunction,Conductor*%
%ADD25C,0.508000*%
%TD*%
%TA.AperFunction,Conductor*%
%ADD26C,0.762000*%
%TD*%
G04 APERTURE END LIST*
D10*
%TO.P,B1,24*%
%TO.N,5V*%
X72136000Y-65455800D03*
%TO.P,B1,23*%
%TO.N,GND*%
X72136000Y-67995800D03*
%TO.P,B1,22*%
%TO.N,Net-(B1-Pad22)*%
X72136000Y-70535800D03*
%TO.P,B1,21*%
%TO.N,Net-(B1-Pad21)*%
X72136000Y-73075800D03*
%TO.P,B1,20*%
%TO.N,Net-(B1-Pad20)*%
X72136000Y-75615800D03*
%TO.P,B1,19*%
%TO.N,Net-(B1-Pad19)*%
X72136000Y-78155800D03*
%TO.P,B1,18*%
%TO.N,Net-(B1-Pad18)*%
X72136000Y-80695800D03*
%TO.P,B1,17*%
%TO.N,Net-(B1-Pad17)*%
X72136000Y-83235800D03*
%TO.P,B1,16*%
%TO.N,Net-(B1-Pad16)*%
X72136000Y-85775800D03*
%TO.P,B1,15*%
%TO.N,Net-(B1-Pad15)*%
X72136000Y-88315800D03*
%TO.P,B1,14*%
%TO.N,Net-(B1-Pad14)*%
X72136000Y-90855800D03*
%TO.P,B1,13*%
%TO.N,Net-(B1-Pad13)*%
X72136000Y-93395800D03*
%TO.P,B1,12*%
%TO.N,/9-Meter*%
X56896000Y-93395800D03*
%TO.P,B1,11*%
%TO.N,/8-Meter*%
X56896000Y-90855800D03*
%TO.P,B1,10*%
%TO.N,/10-CS*%
X56896000Y-88315800D03*
%TO.P,B1,9*%
%TO.N,/6-Reverse*%
X56896000Y-85775800D03*
%TO.P,B1,8*%
%TO.N,/5-Forward*%
X56896000Y-83235800D03*
%TO.P,B1,7*%
%TO.N,Net-(B1-Pad7)*%
X56896000Y-80695800D03*
%TO.P,B1,6*%
%TO.N,Net-(B1-Pad6)*%
X56896000Y-78155800D03*
%TO.P,B1,5*%
%TO.N,Net-(B1-Pad5)*%
X56896000Y-75615800D03*
%TO.P,B1,4*%
%TO.N,GND*%
X56896000Y-73075800D03*
%TO.P,B1,3*%
X56896000Y-70535800D03*
%TO.P,B1,2*%
%TO.N,Net-(B1-Pad2)*%
X56896000Y-67995800D03*
%TO.P,B1,1*%
%TO.N,Net-(B1-Pad1)*%
X56896000Y-65455800D03*
%TD*%
D11*
%TO.P,J1,6*%
%TO.N,/Throttle*%
X98399600Y-94208600D03*
%TO.P,J1,5*%
%TO.N,/Brake_AN*%
X98399600Y-91668600D03*
%TO.P,J1,4*%
%TO.N,/FWD*%
X98399600Y-89128600D03*
%TO.P,J1,3*%
%TO.N,/REV*%
X98399600Y-86588600D03*
%TO.P,J1,2*%
%TO.N,/Brake*%
X98399600Y-84048600D03*
%TO.P,J1,1*%
%TO.N,/Foot_SW*%
%TA.AperFunction,ComponentPad*%
G36*
G01*
X97779599Y-80638600D02*
X99019601Y-80638600D01*
G75*
G02*
X99269600Y-80888599I0J-249999D01*
G01*
X99269600Y-82128601D01*
G75*
G02*
X99019601Y-82378600I-249999J0D01*
G01*
X97779599Y-82378600D01*
G75*
G02*
X97529600Y-82128601I0J249999D01*
G01*
X97529600Y-80888599D01*
G75*
G02*
X97779599Y-80638600I249999J0D01*
G01*
G37*
%TD.AperFunction*%
%TD*%
%TO.P,J2,6*%
%TO.N,/Meter*%
X98069400Y-116332000D03*
%TO.P,J2,5*%
%TO.N,GND*%
X98069400Y-113792000D03*
%TO.P,J2,4*%
%TO.N,5V*%
X98069400Y-111252000D03*
%TO.P,J2,3*%
%TO.N,12V*%
X98069400Y-108712000D03*
%TO.P,J2,2*%
%TO.N,+48V*%
X98069400Y-106172000D03*
%TO.P,J2,1*%
%TO.N,/PWR*%
%TA.AperFunction,ComponentPad*%
G36*
G01*
X97449399Y-102762000D02*
X98689401Y-102762000D01*
G75*
G02*
X98939400Y-103011999I0J-249999D01*
G01*
X98939400Y-104252001D01*
G75*
G02*
X98689401Y-104502000I-249999J0D01*
G01*
X97449399Y-104502000D01*
G75*
G02*
X97199400Y-104252001I0J249999D01*
G01*
X97199400Y-103011999D01*
G75*
G02*
X97449399Y-102762000I249999J0D01*
G01*
G37*
%TD.AperFunction*%
%TD*%
D12*
%TO.P,U3,14*%
%TO.N,5V*%
X68005800Y-101219000D03*
%TO.P,U3,7*%
%TO.N,+5VA*%
X60385800Y-116459000D03*
%TO.P,U3,13*%
%TO.N,Net-(B1-Pad15)*%
X68005800Y-103759000D03*
%TO.P,U3,6*%
%TO.N,/Throttle-A*%
X60385800Y-113919000D03*
%TO.P,U3,12*%
%TO.N,5V*%
X68005800Y-106299000D03*
%TO.P,U3,5*%
%TO.N,GNDA*%
X60385800Y-111379000D03*
%TO.P,U3,11*%
%TO.N,Net-(U3-Pad11)*%
X68005800Y-108839000D03*
%TO.P,U3,4*%
%TO.N,GND*%
X60385800Y-108839000D03*
%TO.P,U3,10*%
X68005800Y-111379000D03*
%TO.P,U3,3*%
%TO.N,Net-(B1-Pad14)*%
X60385800Y-106299000D03*
%TO.P,U3,9*%
%TO.N,/Throttle*%
X68005800Y-113919000D03*
%TO.P,U3,2*%
%TO.N,Net-(B1-Pad16)*%
X60385800Y-103759000D03*
%TO.P,U3,8*%
%TO.N,5V*%
X68005800Y-116459000D03*
D13*
%TO.P,U3,1*%
%TO.N,Net-(B1-Pad13)*%
X60385800Y-101219000D03*
%TD*%
D11*
%TO.P,J12,6*%
%TO.N,/Meter-A*%
X34823400Y-114706400D03*
%TO.P,J12,5*%
%TO.N,GNDA*%
X34823400Y-112166400D03*
%TO.P,J12,4*%
%TO.N,+5VA*%
X34823400Y-109626400D03*
%TO.P,J12,3*%
%TO.N,+12VA*%
X34823400Y-107086400D03*
%TO.P,J12,2*%
%TO.N,+48VA*%
X34823400Y-104546400D03*
%TO.P,J12,1*%
%TO.N,/PWR-A*%
%TA.AperFunction,ComponentPad*%
G36*
G01*
X34203399Y-101136400D02*
X35443401Y-101136400D01*
G75*
G02*
X35693400Y-101386399I0J-249999D01*
G01*
X35693400Y-102626401D01*
G75*
G02*
X35443401Y-102876400I-249999J0D01*
G01*
X34203399Y-102876400D01*
G75*
G02*
X33953400Y-102626401I0J249999D01*
G01*
X33953400Y-101386399D01*
G75*
G02*
X34203399Y-101136400I249999J0D01*
G01*
G37*
%TD.AperFunction*%
%TD*%
%TO.P,J11,6*%
%TO.N,/Throttle-A*%
X34899600Y-94208600D03*
%TO.P,J11,5*%
%TO.N,/Brake_AN-A*%
X34899600Y-91668600D03*
%TO.P,J11,4*%
%TO.N,/FWD-A*%
X34899600Y-89128600D03*
%TO.P,J11,3*%
%TO.N,/REV-A*%
X34899600Y-86588600D03*
%TO.P,J11,2*%
%TO.N,/Brake-A*%
X34899600Y-84048600D03*
%TO.P,J11,1*%
%TO.N,/Foot_SW-A*%
%TA.AperFunction,ComponentPad*%
G36*
G01*
X34279599Y-80638600D02*
X35519601Y-80638600D01*
G75*
G02*
X35769600Y-80888599I0J-249999D01*
G01*
X35769600Y-82128601D01*
G75*
G02*
X35519601Y-82378600I-249999J0D01*
G01*
X34279599Y-82378600D01*
G75*
G02*
X34029600Y-82128601I0J249999D01*
G01*
X34029600Y-80888599D01*
G75*
G02*
X34279599Y-80638600I249999J0D01*
G01*
G37*
%TD.AperFunction*%
%TD*%
D14*
%TO.P,U1,16*%
%TO.N,+12VA*%
X73482200Y-47574200D03*
%TO.P,U1,8*%
%TO.N,GND*%
X55702200Y-39954200D03*
%TO.P,U1,15*%
%TO.N,/FWD-A*%
X70942200Y-47574200D03*
%TO.P,U1,7*%
%TO.N,Net-(U1-Pad6)*%
X58242200Y-39954200D03*
%TO.P,U1,14*%
%TO.N,12V*%
X68402200Y-47574200D03*
%TO.P,U1,6*%
%TO.N,Net-(U1-Pad6)*%
X60782200Y-39954200D03*
%TO.P,U1,13*%
%TO.N,/FWD*%
X65862200Y-47574200D03*
%TO.P,U1,5*%
%TO.N,Net-(R4-Pad1)*%
X63322200Y-39954200D03*
%TO.P,U1,12*%
%TO.N,12V*%
X63322200Y-47574200D03*
%TO.P,U1,4*%
%TO.N,GND*%
X65862200Y-39954200D03*
%TO.P,U1,11*%
%TO.N,/REV*%
X60782200Y-47574200D03*
%TO.P,U1,3*%
%TO.N,Net-(U1-Pad2)*%
X68402200Y-39954200D03*
%TO.P,U1,10*%
%TO.N,+12VA*%
X58242200Y-47574200D03*
%TO.P,U1,2*%
%TO.N,Net-(U1-Pad2)*%
X70942200Y-39954200D03*
%TO.P,U1,9*%
%TO.N,/REV-A*%
X55702200Y-47574200D03*
D15*
%TO.P,U1,1*%
%TO.N,Net-(R3-Pad1)*%
X73482200Y-39954200D03*
%TD*%
D16*
%TO.P,J3,4*%
%TO.N,Net-(B1-Pad6)*%
X48691800Y-79654400D03*
%TO.P,J3,3*%
%TO.N,Net-(B1-Pad5)*%
X48691800Y-77114400D03*
%TO.P,J3,2*%
%TO.N,5V*%
X48691800Y-74574400D03*
%TO.P,J3,1*%
%TO.N,GND*%
%TA.AperFunction,ComponentPad*%
G36*
G01*
X48071799Y-71164400D02*
X49311801Y-71164400D01*
G75*
G02*
X49561800Y-71414399I0J-249999D01*
G01*
X49561800Y-72654401D01*
G75*
G02*
X49311801Y-72904400I-249999J0D01*
G01*
X48071799Y-72904400D01*
G75*
G02*
X47821800Y-72654401I0J249999D01*
G01*
X47821800Y-71414399D01*
G75*
G02*
X48071799Y-71164400I249999J0D01*
G01*
G37*
%TD.AperFunction*%
%TD*%
D17*
%TO.P,R8,2*%
%TO.N,Net-(R8-Pad2)*%
X84886800Y-70662800D03*
D18*
%TO.P,R8,1*%
%TO.N,GND*%
X77266800Y-70662800D03*
%TD*%
D19*
%TO.P,U2,16*%
%TO.N,/Brake-A*%
X99822000Y-37465000D03*
%TO.P,U2,8*%
%TO.N,Net-(R2-Pad1)*%
X92202000Y-55245000D03*
%TO.P,U2,15*%
%TO.N,GND*%
X99822000Y-40005000D03*
%TO.P,U2,7*%
%TO.N,/Meter-A*%
X92202000Y-52705000D03*
%TO.P,U2,14*%
%TO.N,/Brake*%
X99822000Y-42545000D03*
%TO.P,U2,6*%
%TO.N,Net-(R1-Pad1)*%
X92202000Y-50165000D03*
%TO.P,U2,13*%
%TO.N,GND*%
X99822000Y-45085000D03*
%TO.P,U2,5*%
%TO.N,/Meter*%
X92202000Y-47625000D03*
%TO.P,U2,12*%
%TO.N,/VCC*%
X99822000Y-47625000D03*
%TO.P,U2,4*%
%TO.N,GND*%
X92202000Y-45085000D03*
%TO.P,U2,11*%
%TO.N,/8-Meter*%
X99822000Y-50165000D03*
%TO.P,U2,3*%
%TO.N,Net-(U2-Pad2)*%
X92202000Y-42545000D03*
%TO.P,U2,10*%
%TO.N,/VCC*%
X99822000Y-52705000D03*
%TO.P,U2,2*%
%TO.N,Net-(U2-Pad2)*%
X92202000Y-40005000D03*
%TO.P,U2,9*%
%TO.N,/9-Meter*%
X99822000Y-55245000D03*
D20*
%TO.P,U2,1*%
%TO.N,Net-(R5-Pad1)*%
X92202000Y-37465000D03*
%TD*%
D21*
%TO.P,SW5,2*%
%TO.N,+48VA*%
X22199600Y-107391200D03*
D22*
%TO.P,SW5,1*%
%TO.N,/PWR-A*%
X22199600Y-102311200D03*
%TD*%
D16*
%TO.P,SW2,2*%
%TO.N,/10-CS*%
X85902800Y-92989400D03*
%TO.P,SW2,1*%
%TO.N,5V*%
%TA.AperFunction,ComponentPad*%
G36*
G01*
X85282799Y-89579400D02*
X86522801Y-89579400D01*
G75*
G02*
X86772800Y-89829399I0J-249999D01*
G01*
X86772800Y-91069401D01*
G75*
G02*
X86522801Y-91319400I-249999J0D01*
G01*
X85282799Y-91319400D01*
G75*
G02*
X85032800Y-91069401I0J249999D01*
G01*
X85032800Y-89829399D01*
G75*
G02*
X85282799Y-89579400I249999J0D01*
G01*
G37*
%TD.AperFunction*%
%TD*%
%TO.P,RV1,3*%
%TO.N,Net-(R8-Pad2)*%
X82321400Y-82372200D03*
%TO.P,RV1,2*%
%TO.N,Net-(B1-Pad17)*%
X82321400Y-79832200D03*
%TO.P,RV1,1*%
%TO.N,5V*%
%TA.AperFunction,ComponentPad*%
G36*
G01*
X81701399Y-76422200D02*
X82941401Y-76422200D01*
G75*
G02*
X83191400Y-76672199I0J-249999D01*
G01*
X83191400Y-77912201D01*
G75*
G02*
X82941401Y-78162200I-249999J0D01*
G01*
X81701399Y-78162200D01*
G75*
G02*
X81451400Y-77912201I0J249999D01*
G01*
X81451400Y-76672199D01*
G75*
G02*
X81701399Y-76422200I249999J0D01*
G01*
G37*
%TD.AperFunction*%
%TD*%
D17*
%TO.P,R7,2*%
%TO.N,GND*%
X112496600Y-55143400D03*
D18*
%TO.P,R7,1*%
%TO.N,/9-Meter*%
X104876600Y-55143400D03*
%TD*%
D17*
%TO.P,R6,2*%
%TO.N,GND*%
X104216200Y-42367200D03*
D18*
%TO.P,R6,1*%
%TO.N,/8-Meter*%
X104216200Y-49987200D03*
%TD*%
D17*
%TO.P,R5,2*%
%TO.N,/10-CS*%
X80721200Y-38760400D03*
D18*
%TO.P,R5,1*%
%TO.N,Net-(R5-Pad1)*%
X88341200Y-38760400D03*
%TD*%
D17*
%TO.P,R4,2*%
%TO.N,/6-Reverse*%
X49301400Y-47472600D03*
D18*
%TO.P,R4,1*%
%TO.N,Net-(R4-Pad1)*%
X49301400Y-39852600D03*
%TD*%
D17*
%TO.P,R3,2*%
%TO.N,/5-Forward*%
X44653200Y-47472600D03*
D18*
%TO.P,R3,1*%
%TO.N,Net-(R3-Pad1)*%
X44653200Y-39852600D03*
%TD*%
D17*
%TO.P,R2,2*%
%TO.N,GND*%
X86182200Y-45999400D03*
D18*
%TO.P,R2,1*%
%TO.N,Net-(R2-Pad1)*%
X86182200Y-53619400D03*
%TD*%
D17*
%TO.P,R1,2*%
%TO.N,GND*%
X81915000Y-46101000D03*
D18*
%TO.P,R1,1*%
%TO.N,Net-(R1-Pad1)*%
X81915000Y-53721000D03*
%TD*%
D16*
%TO.P,J10,2*%
%TO.N,GNDA*%
X48133000Y-102362000D03*
%TO.P,J10,1*%
%TO.N,+48VA*%
%TA.AperFunction,ComponentPad*%
G36*
G01*
X44723000Y-102982001D02*
X44723000Y-101741999D01*
G75*
G02*
X44972999Y-101492000I249999J0D01*
G01*
X46213001Y-101492000D01*
G75*
G02*
X46463000Y-101741999I0J-249999D01*
G01*
X46463000Y-102982001D01*
G75*
G02*
X46213001Y-103232000I-249999J0D01*
G01*
X44972999Y-103232000D01*
G75*
G02*
X44723000Y-102982001I0J249999D01*
G01*
G37*
%TD.AperFunction*%
%TD*%
%TO.P,J9,2*%
%TO.N,GNDA*%
X48133000Y-121640600D03*
%TO.P,J9,1*%
%TO.N,+5VA*%
%TA.AperFunction,ComponentPad*%
G36*
G01*
X44723000Y-122260601D02*
X44723000Y-121020599D01*
G75*
G02*
X44972999Y-120770600I249999J0D01*
G01*
X46213001Y-120770600D01*
G75*
G02*
X46463000Y-121020599I0J-249999D01*
G01*
X46463000Y-122260601D01*
G75*
G02*
X46213001Y-122510600I-249999J0D01*
G01*
X44972999Y-122510600D01*
G75*
G02*
X44723000Y-122260601I0J249999D01*
G01*
G37*
%TD.AperFunction*%
%TD*%
%TO.P,J8,2*%
%TO.N,GNDA*%
X48133000Y-112001300D03*
%TO.P,J8,1*%
%TO.N,+12VA*%
%TA.AperFunction,ComponentPad*%
G36*
G01*
X44723000Y-112621301D02*
X44723000Y-111381299D01*
G75*
G02*
X44972999Y-111131300I249999J0D01*
G01*
X46213001Y-111131300D01*
G75*
G02*
X46463000Y-111381299I0J-249999D01*
G01*
X46463000Y-112621301D01*
G75*
G02*
X46213001Y-112871300I-249999J0D01*
G01*
X44972999Y-112871300D01*
G75*
G02*
X44723000Y-112621301I0J249999D01*
G01*
G37*
%TD.AperFunction*%
%TD*%
D23*
%TO.P,H1,1*%
%TO.N,N/C*%
X111607600Y-41275000D03*
%TD*%
%TO.P,H2,1*%
%TO.N,N/C*%
X111607600Y-120650000D03*
%TD*%
%TO.P,H3,1*%
%TO.N,N/C*%
X23012400Y-120650000D03*
%TD*%
%TO.P,H4,1*%
%TO.N,N/C*%
X22885400Y-41275000D03*
%TD*%
%TO.P,J5,1*%
%TO.N,+48V*%
%TA.AperFunction,ComponentPad*%
G36*
G01*
X82823000Y-102982001D02*
X82823000Y-101741999D01*
G75*
G02*
X83072999Y-101492000I249999J0D01*
G01*
X84313001Y-101492000D01*
G75*
G02*
X84563000Y-101741999I0J-249999D01*
G01*
X84563000Y-102982001D01*
G75*
G02*
X84313001Y-103232000I-249999J0D01*
G01*
X83072999Y-103232000D01*
G75*
G02*
X82823000Y-102982001I0J249999D01*
G01*
G37*
%TD.AperFunction*%
D16*
%TO.P,J5,2*%
%TO.N,GND*%
X86233000Y-102362000D03*
%TD*%
%TO.P,J6,2*%
%TO.N,GND*%
X86233000Y-112001300D03*
%TO.P,J6,1*%
%TO.N,12V*%
%TA.AperFunction,ComponentPad*%
G36*
G01*
X82823000Y-112621301D02*
X82823000Y-111381299D01*
G75*
G02*
X83072999Y-111131300I249999J0D01*
G01*
X84313001Y-111131300D01*
G75*
G02*
X84563000Y-111381299I0J-249999D01*
G01*
X84563000Y-112621301D01*
G75*
G02*
X84313001Y-112871300I-249999J0D01*
G01*
X83072999Y-112871300D01*
G75*
G02*
X82823000Y-112621301I0J249999D01*
G01*
G37*
%TD.AperFunction*%
%TD*%
%TO.P,J7,1*%
%TO.N,5V*%
%TA.AperFunction,ComponentPad*%
G36*
G01*
X82823000Y-122260601D02*
X82823000Y-121020599D01*
G75*
G02*
X83072999Y-120770600I249999J0D01*
G01*
X84313001Y-120770600D01*
G75*
G02*
X84563000Y-121020599I0J-249999D01*
G01*
X84563000Y-122260601D01*
G75*
G02*
X84313001Y-122510600I-249999J0D01*
G01*
X83072999Y-122510600D01*
G75*
G02*
X82823000Y-122260601I0J249999D01*
G01*
G37*
%TD.AperFunction*%
%TO.P,J7,2*%
%TO.N,GND*%
X86233000Y-121640600D03*
%TD*%
%TO.P,SW1,3*%
%TO.N,/5-Forward*%
X48641000Y-92227400D03*
%TO.P,SW1,2*%
%TO.N,5V*%
X48641000Y-89687400D03*
%TO.P,SW1,1*%
%TO.N,/6-Reverse*%
%TA.AperFunction,ComponentPad*%
G36*
G01*
X48020999Y-86277400D02*
X49261001Y-86277400D01*
G75*
G02*
X49511000Y-86527399I0J-249999D01*
G01*
X49511000Y-87767401D01*
G75*
G02*
X49261001Y-88017400I-249999J0D01*
G01*
X48020999Y-88017400D01*
G75*
G02*
X47771000Y-87767401I0J249999D01*
G01*
X47771000Y-86527399D01*
G75*
G02*
X48020999Y-86277400I249999J0D01*
G01*
G37*
%TD.AperFunction*%
%TD*%
D21*
%TO.P,SW4,2*%
%TO.N,+48V*%
X109778800Y-109499400D03*
D22*
%TO.P,SW4,1*%
%TO.N,/PWR*%
X109778800Y-104419400D03*
%TD*%
D24*
%TO.N,12V*%
X92100400Y-95199200D03*
X92075000Y-99593400D03*
X69148346Y-57140452D03*
X85445600Y-61036202D03*
X88391996Y-61036202D03*
X92735400Y-89992200D03*
X68935600Y-51917600D03*
X93395800Y-84607400D03*
%TO.N,5V*%
X92633800Y-111302800D03*
X92710000Y-116255800D03*
X56159400Y-58851800D03*
X61264800Y-58750200D03*
%TO.N,/Meter*%
X96545400Y-55346600D03*
X96494600Y-59156600D03*
X106349800Y-117754400D03*
X102997000Y-117627400D03*
X104825800Y-76708000D03*
X100355400Y-76581000D03*
%TO.N,/Throttle*%
X71678800Y-113995200D03*
X71602600Y-117957600D03*
%TO.N,/REV*%
X88341204Y-63982600D03*
X85445600Y-63982600D03*
X63779400Y-51841400D03*
X63804800Y-57048400D03*
%TO.N,/FWD*%
X66471800Y-57124600D03*
X85496402Y-62407800D03*
X88278365Y-62407802D03*
X91262200Y-88265000D03*
X66471800Y-51917600D03*
X91846400Y-84404199D03*
%TO.N,GND*%
X76428600Y-81915000D03*
X76377800Y-86182200D03*
X89865200Y-106172000D03*
X89865200Y-110591600D03*
X62814200Y-108813600D03*
X65608199Y-108813601D03*
X106146600Y-115747800D03*
X102743000Y-115620800D03*
X66598800Y-70383400D03*
X60579001Y-70535801D03*
%TO.N,GNDA*%
X43891200Y-117475000D03*
X40487600Y-117297200D03*
%TO.N,+12VA*%
X36906200Y-64973200D03*
X42900602Y-64973200D03*
X58216800Y-51663600D03*
X58089800Y-54762400D03*
%TO.N,/Throttle-A*%
X54381400Y-109804200D03*
X54533800Y-112852200D03*
%TO.N,/REV-A*%
X37134800Y-62509400D03*
X42926003Y-62585603D03*
X55676800Y-54635400D03*
X55702200Y-51943000D03*
%TO.N,/Brake-A*%
X28244800Y-74422000D03*
X28270200Y-78460600D03*
%TO.N,/Meter-A*%
X95275400Y-49453800D03*
X95275400Y-44246800D03*
%TO.N,/10-CS*%
X77698600Y-52578000D03*
X77901800Y-59309000D03*
%TO.N,/5-Forward*%
X38887400Y-96774000D03*
X44450000Y-96545400D03*
%TD*%
D25*
%TO.N,12V*%
X92100400Y-95199200D02*
X92100400Y-99568000D01*
X92100400Y-99568000D02*
X92075000Y-99593400D01*
X85445600Y-61036202D02*
X88391996Y-61036202D01*
X69148346Y-52130346D02*
X68935600Y-51917600D01*
X69148346Y-57140452D02*
X69148346Y-52130346D01*
X92735400Y-85267800D02*
X93395800Y-84607400D01*
X92735400Y-89992200D02*
X92735400Y-85267800D01*
D26*
%TO.N,5V*%
X92633800Y-111302800D02*
X92633800Y-116179600D01*
X92633800Y-116179600D02*
X92710000Y-116255800D01*
X56159400Y-58851800D02*
X61163200Y-58851800D01*
X61163200Y-58851800D02*
X61264800Y-58750200D01*
%TO.N,/Meter*%
X96494600Y-59156600D02*
X96494600Y-55397400D01*
X96494600Y-55397400D02*
X96545400Y-55346600D01*
X106349800Y-117754400D02*
X103124000Y-117754400D01*
X103124000Y-117754400D02*
X102997000Y-117627400D01*
X104825800Y-76708000D02*
X100482400Y-76708000D01*
X100482400Y-76708000D02*
X100355400Y-76581000D01*
%TO.N,/Throttle*%
X71678800Y-117881400D02*
X71602600Y-117957600D01*
X71678800Y-113995200D02*
X71678800Y-117881400D01*
%TO.N,/REV*%
X85445600Y-63982600D02*
X88341204Y-63982600D01*
X63830200Y-54229000D02*
X63779400Y-51841400D01*
X63804800Y-57048400D02*
X63830200Y-54229000D01*
D25*
%TO.N,/FWD*%
X88278363Y-62407800D02*
X88278365Y-62407802D01*
X85496402Y-62407800D02*
X88278363Y-62407800D01*
X66471800Y-57124600D02*
X66471800Y-51917600D01*
X91262200Y-88265000D02*
X91262200Y-84988399D01*
X91262200Y-84988399D02*
X91846400Y-84404199D01*
D26*
%TO.N,GND*%
X76428600Y-81915000D02*
X76428600Y-86131400D01*
X76428600Y-86131400D02*
X76377800Y-86182200D01*
X89865200Y-106172000D02*
X89865200Y-110591600D01*
X62814200Y-108813600D02*
X64889779Y-108813601D01*
X64889779Y-108813601D02*
X65608199Y-108813601D01*
X102870000Y-115747800D02*
X102743000Y-115620800D01*
X106146600Y-115747800D02*
X102870000Y-115747800D01*
X66598800Y-70383400D02*
X60731402Y-70383400D01*
X60731402Y-70383400D02*
X60579001Y-70535801D01*
D25*
%TO.N,GNDA*%
X43891200Y-117475000D02*
X40665400Y-117475000D01*
X40665400Y-117475000D02*
X40487600Y-117297200D01*
D26*
%TO.N,+12VA*%
X36906200Y-64973200D02*
X42900602Y-64973200D01*
X58216800Y-51663600D02*
X58216800Y-54635400D01*
X58216800Y-54635400D02*
X58089800Y-54762400D01*
%TO.N,/Throttle-A*%
X54381400Y-112699800D02*
X54533800Y-112852200D01*
X54381400Y-109804200D02*
X54381400Y-112699800D01*
D25*
%TO.N,/REV-A*%
X37134800Y-62509400D02*
X42849800Y-62509400D01*
X42849800Y-62509400D02*
X42926003Y-62585603D01*
X55676800Y-54635400D02*
X55676800Y-51968400D01*
X55676800Y-51968400D02*
X55702200Y-51943000D01*
%TO.N,/Brake-A*%
X28244800Y-74422000D02*
X28244800Y-78435200D01*
X28244800Y-78435200D02*
X28270200Y-78460600D01*
D26*
%TO.N,/Meter-A*%
X95275400Y-49453800D02*
X95275400Y-44246800D01*
D25*
%TO.N,/10-CS*%
X77698600Y-59105800D02*
X77901800Y-59309000D01*
X77698600Y-52578000D02*
X77698600Y-59105800D01*
%TO.N,/5-Forward*%
X38887400Y-96774000D02*
X44221400Y-96774000D01*
X44221400Y-96774000D02*
X44450000Y-96545400D01*
%TD*%
M02*
