%TF.GenerationSoftware,KiCad,Pcbnew,5.1.7-a382d34a8~88~ubuntu18.04.1*%
%TF.CreationDate,2021-11-04T17:59:29-07:00*%
%TF.ProjectId,Kelly controller,4b656c6c-7920-4636-9f6e-74726f6c6c65,rev?*%
%TF.SameCoordinates,Original*%
%TF.FileFunction,Copper,L2,Bot*%
%TF.FilePolarity,Positive*%
%FSLAX46Y46*%
G04 Gerber Fmt 4.6, Leading zero omitted, Abs format (unit mm)*
G04 Created by KiCad (PCBNEW 5.1.7-a382d34a8~88~ubuntu18.04.1) date 2021-11-04 17:59:29*
%MOMM*%
%LPD*%
G01*
G04 APERTURE LIST*
%TA.AperFunction,ComponentPad*%
%ADD10C,3.200001*%
%TD*%
%TA.AperFunction,ComponentPad*%
%ADD11C,1.740000*%
%TD*%
%TA.AperFunction,ComponentPad*%
%ADD12R,3.000000X3.000000*%
%TD*%
%TA.AperFunction,ComponentPad*%
%ADD13C,3.000000*%
%TD*%
%TA.AperFunction,ViaPad*%
%ADD14C,0.812800*%
%TD*%
%TA.AperFunction,Conductor*%
%ADD15C,1.016000*%
%TD*%
%TA.AperFunction,Conductor*%
%ADD16C,0.508000*%
%TD*%
%TA.AperFunction,Conductor*%
%ADD17C,0.254000*%
%TD*%
%TA.AperFunction,Conductor*%
%ADD18C,0.100000*%
%TD*%
G04 APERTURE END LIST*
D10*
%TO.P,H1,1*%
%TO.N,N/C*%
X104993401Y-48685601D03*
%TD*%
%TO.P,H2,1*%
%TO.N,N/C*%
X158968401Y-48685601D03*
%TD*%
%TO.P,H3,1*%
%TO.N,N/C*%
X104993401Y-93135601D03*
%TD*%
%TO.P,H4,1*%
%TO.N,N/C*%
X158968401Y-93135601D03*
%TD*%
D11*
%TO.P,J2,12*%
%TO.N,GND*%
X151333200Y-55676800D03*
%TO.P,J2,11*%
%TO.N,/PWR*%
X148793200Y-55676800D03*
%TO.P,J2,10*%
%TO.N,/Meter*%
X146253200Y-55676800D03*
%TO.P,J2,9*%
%TO.N,/Brake_AN*%
X143713200Y-55676800D03*
%TO.P,J2,8*%
%TO.N,/Throttle*%
X141173200Y-55676800D03*
%TO.P,J2,7*%
%TO.N,5V*%
X138633200Y-55676800D03*
%TO.P,J2,6*%
%TO.N,/FWD*%
X136093200Y-55676800D03*
%TO.P,J2,5*%
%TO.N,/REV*%
X133553200Y-55676800D03*
%TO.P,J2,4*%
%TO.N,/Brake*%
X131013200Y-55676800D03*
%TO.P,J2,3*%
%TO.N,/Foot_SW*%
X128473200Y-55676800D03*
%TO.P,J2,2*%
%TO.N,12V*%
X125933200Y-55676800D03*
%TO.P,J2,1*%
%TO.N,+48V*%
%TA.AperFunction,ComponentPad*%
G36*
G01*
X122523200Y-56296801D02*
X122523200Y-55056799D01*
G75*
G02*
X122773199Y-54806800I249999J0D01*
G01*
X124013201Y-54806800D01*
G75*
G02*
X124263200Y-55056799I0J-249999D01*
G01*
X124263200Y-56296801D01*
G75*
G02*
X124013201Y-56546800I-249999J0D01*
G01*
X122773199Y-56546800D01*
G75*
G02*
X122523200Y-56296801I0J249999D01*
G01*
G37*
%TD.AperFunction*%
%TD*%
D12*
%TO.P,J3,1*%
%TO.N,/PWR*%
X158927800Y-69392800D03*
D13*
%TO.P,J3,2*%
%TO.N,GND*%
X158927800Y-64312800D03*
%TD*%
%TO.P,J4,1*%
%TO.N,GND*%
%TA.AperFunction,ComponentPad*%
G36*
G01*
X149464001Y-85223400D02*
X148223999Y-85223400D01*
G75*
G02*
X147974000Y-84973401I0J249999D01*
G01*
X147974000Y-83733399D01*
G75*
G02*
X148223999Y-83483400I249999J0D01*
G01*
X149464001Y-83483400D01*
G75*
G02*
X149714000Y-83733399I0J-249999D01*
G01*
X149714000Y-84973401D01*
G75*
G02*
X149464001Y-85223400I-249999J0D01*
G01*
G37*
%TD.AperFunction*%
D11*
%TO.P,J4,2*%
%TO.N,/Meter*%
X148844000Y-81813400D03*
%TD*%
%TO.P,J5,1*%
%TO.N,+48V*%
%TA.AperFunction,ComponentPad*%
G36*
G01*
X113324399Y-55975200D02*
X114564401Y-55975200D01*
G75*
G02*
X114814400Y-56225199I0J-249999D01*
G01*
X114814400Y-57465201D01*
G75*
G02*
X114564401Y-57715200I-249999J0D01*
G01*
X113324399Y-57715200D01*
G75*
G02*
X113074400Y-57465201I0J249999D01*
G01*
X113074400Y-56225199D01*
G75*
G02*
X113324399Y-55975200I249999J0D01*
G01*
G37*
%TD.AperFunction*%
%TO.P,J5,2*%
%TO.N,GND*%
X113944400Y-59385200D03*
%TD*%
%TO.P,J6,2*%
%TO.N,GND*%
X112522000Y-70942200D03*
%TO.P,J6,1*%
%TO.N,12V*%
%TA.AperFunction,ComponentPad*%
G36*
G01*
X111901999Y-67532200D02*
X113142001Y-67532200D01*
G75*
G02*
X113392000Y-67782199I0J-249999D01*
G01*
X113392000Y-69022201D01*
G75*
G02*
X113142001Y-69272200I-249999J0D01*
G01*
X111901999Y-69272200D01*
G75*
G02*
X111652000Y-69022201I0J249999D01*
G01*
X111652000Y-67782199D01*
G75*
G02*
X111901999Y-67532200I249999J0D01*
G01*
G37*
%TD.AperFunction*%
%TD*%
%TO.P,J7,1*%
%TO.N,5V*%
%TA.AperFunction,ComponentPad*%
G36*
G01*
X111567201Y-85020200D02*
X110327199Y-85020200D01*
G75*
G02*
X110077200Y-84770201I0J249999D01*
G01*
X110077200Y-83530199D01*
G75*
G02*
X110327199Y-83280200I249999J0D01*
G01*
X111567201Y-83280200D01*
G75*
G02*
X111817200Y-83530199I0J-249999D01*
G01*
X111817200Y-84770201D01*
G75*
G02*
X111567201Y-85020200I-249999J0D01*
G01*
G37*
%TD.AperFunction*%
%TO.P,J7,2*%
%TO.N,GND*%
X110947200Y-81610200D03*
%TD*%
%TO.P,RV1,3*%
%TO.N,GND*%
X132791200Y-80340200D03*
%TO.P,RV1,2*%
%TO.N,/Throttle*%
X132791200Y-82880200D03*
%TO.P,RV1,1*%
%TO.N,5V*%
%TA.AperFunction,ComponentPad*%
G36*
G01*
X133411201Y-86290200D02*
X132171199Y-86290200D01*
G75*
G02*
X131921200Y-86040201I0J249999D01*
G01*
X131921200Y-84800199D01*
G75*
G02*
X132171199Y-84550200I249999J0D01*
G01*
X133411201Y-84550200D01*
G75*
G02*
X133661200Y-84800199I0J-249999D01*
G01*
X133661200Y-86040201D01*
G75*
G02*
X133411201Y-86290200I-249999J0D01*
G01*
G37*
%TD.AperFunction*%
%TD*%
%TO.P,RV2,1*%
%TO.N,5V*%
%TA.AperFunction,ComponentPad*%
G36*
G01*
X123073401Y-86290200D02*
X121833399Y-86290200D01*
G75*
G02*
X121583400Y-86040201I0J249999D01*
G01*
X121583400Y-84800199D01*
G75*
G02*
X121833399Y-84550200I249999J0D01*
G01*
X123073401Y-84550200D01*
G75*
G02*
X123323400Y-84800199I0J-249999D01*
G01*
X123323400Y-86040201D01*
G75*
G02*
X123073401Y-86290200I-249999J0D01*
G01*
G37*
%TD.AperFunction*%
%TO.P,RV2,2*%
%TO.N,/Brake_AN*%
X122453400Y-82880200D03*
%TO.P,RV2,3*%
%TO.N,GND*%
X122453400Y-80340200D03*
%TD*%
%TO.P,SW1,3*%
%TO.N,/REV*%
X143383000Y-67132200D03*
%TO.P,SW1,2*%
%TO.N,12V*%
X143383000Y-69672200D03*
%TO.P,SW1,1*%
%TO.N,/FWD*%
%TA.AperFunction,ComponentPad*%
G36*
G01*
X144003001Y-73082200D02*
X142762999Y-73082200D01*
G75*
G02*
X142513000Y-72832201I0J249999D01*
G01*
X142513000Y-71592199D01*
G75*
G02*
X142762999Y-71342200I249999J0D01*
G01*
X144003001Y-71342200D01*
G75*
G02*
X144253000Y-71592199I0J-249999D01*
G01*
X144253000Y-72832201D01*
G75*
G02*
X144003001Y-73082200I-249999J0D01*
G01*
G37*
%TD.AperFunction*%
%TD*%
%TO.P,SW2,2*%
%TO.N,12V*%
X123901200Y-70942200D03*
%TO.P,SW2,1*%
%TO.N,/Foot_SW*%
%TA.AperFunction,ComponentPad*%
G36*
G01*
X123281199Y-67532200D02*
X124521201Y-67532200D01*
G75*
G02*
X124771200Y-67782199I0J-249999D01*
G01*
X124771200Y-69022201D01*
G75*
G02*
X124521201Y-69272200I-249999J0D01*
G01*
X123281199Y-69272200D01*
G75*
G02*
X123031200Y-69022201I0J249999D01*
G01*
X123031200Y-67782199D01*
G75*
G02*
X123281199Y-67532200I249999J0D01*
G01*
G37*
%TD.AperFunction*%
%TD*%
%TO.P,SW3,2*%
%TO.N,12V*%
X134289800Y-70942200D03*
%TO.P,SW3,1*%
%TO.N,/Brake*%
%TA.AperFunction,ComponentPad*%
G36*
G01*
X133669799Y-67532200D02*
X134909801Y-67532200D01*
G75*
G02*
X135159800Y-67782199I0J-249999D01*
G01*
X135159800Y-69022201D01*
G75*
G02*
X134909801Y-69272200I-249999J0D01*
G01*
X133669799Y-69272200D01*
G75*
G02*
X133419800Y-69022201I0J249999D01*
G01*
X133419800Y-67782199D01*
G75*
G02*
X133669799Y-67532200I249999J0D01*
G01*
G37*
%TD.AperFunction*%
%TD*%
D13*
%TO.P,SW4,2*%
%TO.N,+48V*%
X158851600Y-79832200D03*
D12*
%TO.P,SW4,1*%
%TO.N,/PWR*%
X158851600Y-84912200D03*
%TD*%
D14*
%TO.N,5V*%
X124663200Y-85394800D03*
X130225800Y-85445600D03*
%TO.N,GND*%
X117830600Y-58851800D03*
X117983000Y-55016400D03*
X128473200Y-72694800D03*
X128473200Y-69189600D03*
X126873000Y-64770000D03*
X123850400Y-62788800D03*
X138785600Y-71145400D03*
X137718800Y-68453000D03*
%TD*%
D15*
%TO.N,+48V*%
X113944400Y-56845200D02*
X119837200Y-56845200D01*
X119837200Y-56845200D02*
X121005600Y-55676800D01*
X121005600Y-55676800D02*
X123393200Y-55676800D01*
X112344200Y-56845200D02*
X107061000Y-62128400D01*
X107061000Y-87249000D02*
X111658400Y-91846400D01*
X113944400Y-56845200D02*
X112344200Y-56845200D01*
X155575000Y-81000600D02*
X156743400Y-79832200D01*
X107061000Y-62128400D02*
X107061000Y-87249000D01*
X155575000Y-88138000D02*
X155575000Y-81000600D01*
X111658400Y-91846400D02*
X151866600Y-91846400D01*
X156743400Y-79832200D02*
X158851600Y-79832200D01*
X151866600Y-91846400D02*
X155575000Y-88138000D01*
D16*
%TO.N,12V*%
X123901200Y-70942200D02*
X134289800Y-70942200D01*
X134289800Y-70942200D02*
X136753600Y-70942200D01*
X138023600Y-69672200D02*
X143383000Y-69672200D01*
X136753600Y-70942200D02*
X138023600Y-69672200D01*
X117678200Y-68402200D02*
X120218200Y-70942200D01*
X120218200Y-70942200D02*
X123901200Y-70942200D01*
X112522000Y-68402200D02*
X117678200Y-68402200D01*
X125933200Y-58166000D02*
X125933200Y-55676800D01*
X121920000Y-62179200D02*
X125933200Y-58166000D01*
X117678200Y-64516000D02*
X120015000Y-62179200D01*
X120015000Y-62179200D02*
X121920000Y-62179200D01*
X117678200Y-68402200D02*
X117678200Y-64516000D01*
%TO.N,5V*%
X114223800Y-84150200D02*
X110947200Y-84150200D01*
X122453400Y-85420200D02*
X117906800Y-85420200D01*
X117906800Y-85420200D02*
X116636800Y-84150200D01*
X116636800Y-84150200D02*
X115747800Y-84150200D01*
X115747800Y-84150200D02*
X114223800Y-84150200D01*
X134594600Y-85420200D02*
X132791200Y-85420200D01*
X138633200Y-60248800D02*
X141681200Y-63601600D01*
X147675600Y-65430400D02*
X147675600Y-72339200D01*
X138633200Y-55676800D02*
X138633200Y-60248800D01*
X146253200Y-63601600D02*
X147675600Y-65430400D01*
X141681200Y-63601600D02*
X146253200Y-63601600D01*
X147675600Y-72339200D02*
X134594600Y-85420200D01*
X122453400Y-85420200D02*
X124637800Y-85420200D01*
X124637800Y-85420200D02*
X124663200Y-85394800D01*
X132765800Y-85445600D02*
X132791200Y-85420200D01*
X130225800Y-85445600D02*
X132765800Y-85445600D01*
%TO.N,/Meter*%
X146253200Y-58547000D02*
X146253200Y-55676800D01*
X149428200Y-77622400D02*
X151942800Y-74752200D01*
X151942800Y-74752200D02*
X151968200Y-63246000D01*
X146862800Y-59156600D02*
X146253200Y-58547000D01*
X148844000Y-78206600D02*
X149428200Y-77622400D01*
X148844000Y-81813400D02*
X148844000Y-78206600D01*
X147878800Y-59156600D02*
X151968200Y-63246000D01*
X146862800Y-59156600D02*
X147878800Y-59156600D01*
%TO.N,/Brake_AN*%
X143713200Y-58902600D02*
X143713200Y-55676800D01*
X144907000Y-60553600D02*
X143713200Y-58902600D01*
X150393400Y-63982600D02*
X147167600Y-60553600D01*
X150393400Y-74091800D02*
X150393400Y-63982600D01*
X127533400Y-82880200D02*
X127482600Y-82931000D01*
X122453400Y-82880200D02*
X127533400Y-82880200D01*
X127482600Y-88036400D02*
X128371600Y-88925400D01*
X128371600Y-88925400D02*
X135864600Y-88925400D01*
X135864600Y-88925400D02*
X150393400Y-74091800D01*
X147167600Y-60553600D02*
X144907000Y-60553600D01*
X127482600Y-82931000D02*
X127482600Y-88036400D01*
D15*
%TO.N,/Foot_SW*%
X123901200Y-65176400D02*
X123901200Y-68402200D01*
X128473200Y-55676800D02*
X128473200Y-60604400D01*
X128473200Y-60604400D02*
X123901200Y-65176400D01*
%TO.N,/Brake*%
X131013200Y-55676800D02*
X131013200Y-61798200D01*
X131013200Y-61798200D02*
X134289800Y-65074800D01*
X134289800Y-65074800D02*
X134289800Y-68402200D01*
D16*
%TO.N,/Throttle*%
X148996400Y-73482200D02*
X149021800Y-64744600D01*
X141173200Y-60274200D02*
X141173200Y-55676800D01*
X149021800Y-64744600D02*
X146761200Y-62103000D01*
X135305800Y-87630000D02*
X148996400Y-73482200D01*
X142570200Y-62077600D02*
X141173200Y-60274200D01*
X146761200Y-62103000D02*
X142570200Y-62077600D01*
X132791200Y-82880200D02*
X128701800Y-82880200D01*
X135305800Y-87630000D02*
X128854200Y-87630000D01*
X128701800Y-87477600D02*
X128701800Y-82880200D01*
X128854200Y-87630000D02*
X128701800Y-87477600D01*
D15*
%TO.N,/REV*%
X133553200Y-55676800D02*
X133553200Y-60528200D01*
X140157200Y-67132200D02*
X143383000Y-67132200D01*
X133553200Y-60528200D02*
X140157200Y-67132200D01*
%TO.N,/FWD*%
X145415000Y-72212200D02*
X143383000Y-72212200D01*
X136093200Y-60274200D02*
X140792200Y-64947800D01*
X136093200Y-55676800D02*
X136093200Y-60274200D01*
X140792200Y-64947800D02*
X145542000Y-64947800D01*
X146456400Y-66090800D02*
X146456400Y-71170800D01*
X145542000Y-64947800D02*
X146456400Y-66090800D01*
X146456400Y-71170800D02*
X145415000Y-72212200D01*
%TO.N,/PWR*%
X148793200Y-55676800D02*
X148793200Y-57099200D01*
X148793200Y-57099200D02*
X154178000Y-62484000D01*
X154178000Y-62484000D02*
X154178000Y-68453000D01*
X155117800Y-69392800D02*
X158927800Y-69392800D01*
X154178000Y-68453000D02*
X155117800Y-69392800D01*
X158927800Y-69392800D02*
X161061400Y-69392800D01*
X158851600Y-84912200D02*
X162102800Y-84912200D01*
X162102800Y-84912200D02*
X163626800Y-83388200D01*
X163626800Y-71958200D02*
X161061400Y-69392800D01*
X163626800Y-83388200D02*
X163626800Y-71958200D01*
D16*
%TO.N,GND*%
X122453400Y-80340200D02*
X114579400Y-80340200D01*
X113309400Y-81610200D02*
X110947200Y-81610200D01*
X114579400Y-80340200D02*
X113309400Y-81610200D01*
X110947200Y-78587600D02*
X110947200Y-81610200D01*
X112522000Y-77012800D02*
X110947200Y-78587600D01*
X112522000Y-70942200D02*
X109245400Y-70942200D01*
X109245400Y-70942200D02*
X108432600Y-70129400D01*
X108432600Y-70129400D02*
X108432600Y-64897000D01*
X112522000Y-70942200D02*
X112522000Y-77012800D01*
X132791200Y-80340200D02*
X122453400Y-80340200D01*
X108432600Y-64897000D02*
X113944400Y-59385200D01*
D15*
X151333200Y-55676800D02*
X152831800Y-55676800D01*
X158927800Y-61772800D02*
X158927800Y-64312800D01*
X152831800Y-55676800D02*
X158927800Y-61772800D01*
D16*
X113944400Y-59385200D02*
X117297200Y-59385200D01*
X117297200Y-59385200D02*
X117830600Y-58851800D01*
X117983000Y-55016400D02*
X120396000Y-52603400D01*
X120396000Y-52603400D02*
X150088600Y-52603400D01*
X151333200Y-53848000D02*
X151333200Y-55676800D01*
X150088600Y-52603400D02*
X151333200Y-53848000D01*
X110947200Y-81610200D02*
X109118400Y-81610200D01*
X109118400Y-81610200D02*
X109042200Y-81686400D01*
X109042200Y-81686400D02*
X109042200Y-86029800D01*
X109042200Y-86029800D02*
X109804200Y-86791800D01*
X109804200Y-86791800D02*
X116713000Y-86791800D01*
X116713000Y-86791800D02*
X118186200Y-88265000D01*
X118186200Y-88265000D02*
X126238000Y-88265000D01*
X126238000Y-88265000D02*
X128168400Y-90195400D01*
X143002000Y-90195400D02*
X148844000Y-84353400D01*
X128168400Y-90195400D02*
X143002000Y-90195400D01*
X132791200Y-80340200D02*
X132791200Y-77012800D01*
X132791200Y-77012800D02*
X128473200Y-72694800D01*
X128473200Y-69189600D02*
X128473200Y-66370200D01*
X128473200Y-66370200D02*
X126873000Y-64770000D01*
X132791200Y-77012800D02*
X132918200Y-77012800D01*
X132918200Y-77012800D02*
X138785600Y-71145400D01*
%TD*%
D17*
%TO.N,GND*%
X165379801Y-97333200D02*
X101294800Y-97333200D01*
X101294800Y-92915473D01*
X102758401Y-92915473D01*
X102758401Y-93355729D01*
X102844291Y-93787526D01*
X103012770Y-94194270D01*
X103257363Y-94560330D01*
X103568672Y-94871639D01*
X103934732Y-95116232D01*
X104341476Y-95284711D01*
X104773273Y-95370601D01*
X105213529Y-95370601D01*
X105645326Y-95284711D01*
X106052070Y-95116232D01*
X106418130Y-94871639D01*
X106729439Y-94560330D01*
X106974032Y-94194270D01*
X107142511Y-93787526D01*
X107228401Y-93355729D01*
X107228401Y-92915473D01*
X107142511Y-92483676D01*
X106974032Y-92076932D01*
X106729439Y-91710872D01*
X106418130Y-91399563D01*
X106052070Y-91154970D01*
X105645326Y-90986491D01*
X105213529Y-90900601D01*
X104773273Y-90900601D01*
X104341476Y-90986491D01*
X103934732Y-91154970D01*
X103568672Y-91399563D01*
X103257363Y-91710872D01*
X103012770Y-92076932D01*
X102844291Y-92483676D01*
X102758401Y-92915473D01*
X101294800Y-92915473D01*
X101294800Y-62128400D01*
X105912471Y-62128400D01*
X105918000Y-62184539D01*
X105918001Y-87192851D01*
X105912471Y-87249000D01*
X105934539Y-87473067D01*
X105999898Y-87688523D01*
X106106033Y-87887089D01*
X106248868Y-88061133D01*
X106292478Y-88096923D01*
X110810477Y-92614923D01*
X110846267Y-92658533D01*
X111020311Y-92801368D01*
X111218877Y-92907503D01*
X111368974Y-92953035D01*
X111434332Y-92972861D01*
X111457000Y-92975094D01*
X111602254Y-92989400D01*
X111602260Y-92989400D01*
X111658399Y-92994929D01*
X111714538Y-92989400D01*
X151810461Y-92989400D01*
X151866600Y-92994929D01*
X151922739Y-92989400D01*
X151922746Y-92989400D01*
X152090667Y-92972861D01*
X152279849Y-92915473D01*
X156733401Y-92915473D01*
X156733401Y-93355729D01*
X156819291Y-93787526D01*
X156987770Y-94194270D01*
X157232363Y-94560330D01*
X157543672Y-94871639D01*
X157909732Y-95116232D01*
X158316476Y-95284711D01*
X158748273Y-95370601D01*
X159188529Y-95370601D01*
X159620326Y-95284711D01*
X160027070Y-95116232D01*
X160393130Y-94871639D01*
X160704439Y-94560330D01*
X160949032Y-94194270D01*
X161117511Y-93787526D01*
X161203401Y-93355729D01*
X161203401Y-92915473D01*
X161117511Y-92483676D01*
X160949032Y-92076932D01*
X160704439Y-91710872D01*
X160393130Y-91399563D01*
X160027070Y-91154970D01*
X159620326Y-90986491D01*
X159188529Y-90900601D01*
X158748273Y-90900601D01*
X158316476Y-90986491D01*
X157909732Y-91154970D01*
X157543672Y-91399563D01*
X157232363Y-91710872D01*
X156987770Y-92076932D01*
X156819291Y-92483676D01*
X156733401Y-92915473D01*
X152279849Y-92915473D01*
X152306123Y-92907503D01*
X152504689Y-92801368D01*
X152678733Y-92658533D01*
X152714527Y-92614918D01*
X156343524Y-88985922D01*
X156387133Y-88950133D01*
X156529968Y-88776089D01*
X156628294Y-88592133D01*
X156636103Y-88577524D01*
X156701461Y-88362067D01*
X156707288Y-88302903D01*
X156718000Y-88194146D01*
X156718000Y-88194139D01*
X156723529Y-88138000D01*
X156718000Y-88081861D01*
X156718000Y-86457606D01*
X156725788Y-86536682D01*
X156762098Y-86656380D01*
X156821063Y-86766694D01*
X156900415Y-86863385D01*
X156997106Y-86942737D01*
X157107420Y-87001702D01*
X157227118Y-87038012D01*
X157351600Y-87050272D01*
X160351600Y-87050272D01*
X160476082Y-87038012D01*
X160595780Y-87001702D01*
X160706094Y-86942737D01*
X160802785Y-86863385D01*
X160882137Y-86766694D01*
X160941102Y-86656380D01*
X160977412Y-86536682D01*
X160989672Y-86412200D01*
X160989672Y-86055200D01*
X162046661Y-86055200D01*
X162102800Y-86060729D01*
X162158939Y-86055200D01*
X162158946Y-86055200D01*
X162326867Y-86038661D01*
X162542323Y-85973303D01*
X162740889Y-85867168D01*
X162914933Y-85724333D01*
X162950727Y-85680718D01*
X164395324Y-84236122D01*
X164438933Y-84200333D01*
X164581768Y-84026289D01*
X164687903Y-83827723D01*
X164740629Y-83653909D01*
X164753261Y-83612268D01*
X164766491Y-83477940D01*
X164769800Y-83444346D01*
X164769800Y-83444340D01*
X164775329Y-83388201D01*
X164769800Y-83332062D01*
X164769800Y-72014338D01*
X164775329Y-71958199D01*
X164769800Y-71902060D01*
X164769800Y-71902054D01*
X164753261Y-71734133D01*
X164745195Y-71707541D01*
X164715704Y-71610324D01*
X164687903Y-71518677D01*
X164581768Y-71320111D01*
X164438933Y-71146067D01*
X164395323Y-71110277D01*
X161909327Y-68624282D01*
X161873533Y-68580667D01*
X161699489Y-68437832D01*
X161500923Y-68331697D01*
X161285467Y-68266339D01*
X161117546Y-68249800D01*
X161117539Y-68249800D01*
X161065872Y-68244711D01*
X161065872Y-67892800D01*
X161053612Y-67768318D01*
X161017302Y-67648620D01*
X160958337Y-67538306D01*
X160878985Y-67441615D01*
X160782294Y-67362263D01*
X160671980Y-67303298D01*
X160552282Y-67266988D01*
X160427800Y-67254728D01*
X157427800Y-67254728D01*
X157303318Y-67266988D01*
X157183620Y-67303298D01*
X157073306Y-67362263D01*
X156976615Y-67441615D01*
X156897263Y-67538306D01*
X156838298Y-67648620D01*
X156801988Y-67768318D01*
X156789728Y-67892800D01*
X156789728Y-68249800D01*
X155591246Y-68249800D01*
X155321000Y-67979555D01*
X155321000Y-65804453D01*
X157615752Y-65804453D01*
X157771762Y-66120014D01*
X158146545Y-66310820D01*
X158551351Y-66424844D01*
X158970624Y-66457702D01*
X159388251Y-66408134D01*
X159788183Y-66278043D01*
X160083838Y-66120014D01*
X160239848Y-65804453D01*
X158927800Y-64492405D01*
X157615752Y-65804453D01*
X155321000Y-65804453D01*
X155321000Y-64355624D01*
X156782898Y-64355624D01*
X156832466Y-64773251D01*
X156962557Y-65173183D01*
X157120586Y-65468838D01*
X157436147Y-65624848D01*
X158748195Y-64312800D01*
X159107405Y-64312800D01*
X160419453Y-65624848D01*
X160735014Y-65468838D01*
X160925820Y-65094055D01*
X161039844Y-64689249D01*
X161072702Y-64269976D01*
X161023134Y-63852349D01*
X160893043Y-63452417D01*
X160735014Y-63156762D01*
X160419453Y-63000752D01*
X159107405Y-64312800D01*
X158748195Y-64312800D01*
X157436147Y-63000752D01*
X157120586Y-63156762D01*
X156929780Y-63531545D01*
X156815756Y-63936351D01*
X156782898Y-64355624D01*
X155321000Y-64355624D01*
X155321000Y-62821147D01*
X157615752Y-62821147D01*
X158927800Y-64133195D01*
X160239848Y-62821147D01*
X160083838Y-62505586D01*
X159709055Y-62314780D01*
X159304249Y-62200756D01*
X158884976Y-62167898D01*
X158467349Y-62217466D01*
X158067417Y-62347557D01*
X157771762Y-62505586D01*
X157615752Y-62821147D01*
X155321000Y-62821147D01*
X155321000Y-62540138D01*
X155326529Y-62483999D01*
X155321000Y-62427860D01*
X155321000Y-62427854D01*
X155304461Y-62259933D01*
X155300405Y-62246560D01*
X155264561Y-62128400D01*
X155239103Y-62044477D01*
X155132968Y-61845911D01*
X155056660Y-61752930D01*
X155025924Y-61715478D01*
X155025923Y-61715477D01*
X154990133Y-61671867D01*
X154946524Y-61636078D01*
X150029918Y-56719472D01*
X150470133Y-56719472D01*
X150550188Y-56970589D01*
X150817639Y-57098487D01*
X151104903Y-57171750D01*
X151400940Y-57187564D01*
X151694374Y-57145320D01*
X151973928Y-57046641D01*
X152116212Y-56970589D01*
X152196267Y-56719472D01*
X151333200Y-55856405D01*
X150470133Y-56719472D01*
X150029918Y-56719472D01*
X149954419Y-56643973D01*
X149962210Y-56636182D01*
X150072919Y-56470494D01*
X150290528Y-56539867D01*
X151153595Y-55676800D01*
X151512805Y-55676800D01*
X152375872Y-56539867D01*
X152626989Y-56459812D01*
X152754887Y-56192361D01*
X152828150Y-55905097D01*
X152843964Y-55609060D01*
X152801720Y-55315626D01*
X152703041Y-55036072D01*
X152626989Y-54893788D01*
X152375872Y-54813733D01*
X151512805Y-55676800D01*
X151153595Y-55676800D01*
X150290528Y-54813733D01*
X150072919Y-54883106D01*
X149962210Y-54717418D01*
X149878920Y-54634128D01*
X150470133Y-54634128D01*
X151333200Y-55497195D01*
X152196267Y-54634128D01*
X152116212Y-54383011D01*
X151848761Y-54255113D01*
X151561497Y-54181850D01*
X151265460Y-54166036D01*
X150972026Y-54208280D01*
X150692472Y-54306959D01*
X150550188Y-54383011D01*
X150470133Y-54634128D01*
X149878920Y-54634128D01*
X149752582Y-54507790D01*
X149506085Y-54343086D01*
X149232192Y-54229636D01*
X148941430Y-54171800D01*
X148644970Y-54171800D01*
X148354208Y-54229636D01*
X148080315Y-54343086D01*
X147833818Y-54507790D01*
X147624190Y-54717418D01*
X147523200Y-54868560D01*
X147422210Y-54717418D01*
X147212582Y-54507790D01*
X146966085Y-54343086D01*
X146692192Y-54229636D01*
X146401430Y-54171800D01*
X146104970Y-54171800D01*
X145814208Y-54229636D01*
X145540315Y-54343086D01*
X145293818Y-54507790D01*
X145084190Y-54717418D01*
X144983200Y-54868560D01*
X144882210Y-54717418D01*
X144672582Y-54507790D01*
X144426085Y-54343086D01*
X144152192Y-54229636D01*
X143861430Y-54171800D01*
X143564970Y-54171800D01*
X143274208Y-54229636D01*
X143000315Y-54343086D01*
X142753818Y-54507790D01*
X142544190Y-54717418D01*
X142443200Y-54868560D01*
X142342210Y-54717418D01*
X142132582Y-54507790D01*
X141886085Y-54343086D01*
X141612192Y-54229636D01*
X141321430Y-54171800D01*
X141024970Y-54171800D01*
X140734208Y-54229636D01*
X140460315Y-54343086D01*
X140213818Y-54507790D01*
X140004190Y-54717418D01*
X139903200Y-54868560D01*
X139802210Y-54717418D01*
X139592582Y-54507790D01*
X139346085Y-54343086D01*
X139072192Y-54229636D01*
X138781430Y-54171800D01*
X138484970Y-54171800D01*
X138194208Y-54229636D01*
X137920315Y-54343086D01*
X137673818Y-54507790D01*
X137464190Y-54717418D01*
X137363200Y-54868560D01*
X137262210Y-54717418D01*
X137052582Y-54507790D01*
X136806085Y-54343086D01*
X136532192Y-54229636D01*
X136241430Y-54171800D01*
X135944970Y-54171800D01*
X135654208Y-54229636D01*
X135380315Y-54343086D01*
X135133818Y-54507790D01*
X134924190Y-54717418D01*
X134823200Y-54868560D01*
X134722210Y-54717418D01*
X134512582Y-54507790D01*
X134266085Y-54343086D01*
X133992192Y-54229636D01*
X133701430Y-54171800D01*
X133404970Y-54171800D01*
X133114208Y-54229636D01*
X132840315Y-54343086D01*
X132593818Y-54507790D01*
X132384190Y-54717418D01*
X132283200Y-54868560D01*
X132182210Y-54717418D01*
X131972582Y-54507790D01*
X131726085Y-54343086D01*
X131452192Y-54229636D01*
X131161430Y-54171800D01*
X130864970Y-54171800D01*
X130574208Y-54229636D01*
X130300315Y-54343086D01*
X130053818Y-54507790D01*
X129844190Y-54717418D01*
X129743200Y-54868560D01*
X129642210Y-54717418D01*
X129432582Y-54507790D01*
X129186085Y-54343086D01*
X128912192Y-54229636D01*
X128621430Y-54171800D01*
X128324970Y-54171800D01*
X128034208Y-54229636D01*
X127760315Y-54343086D01*
X127513818Y-54507790D01*
X127304190Y-54717418D01*
X127203200Y-54868560D01*
X127102210Y-54717418D01*
X126892582Y-54507790D01*
X126646085Y-54343086D01*
X126372192Y-54229636D01*
X126081430Y-54171800D01*
X125784970Y-54171800D01*
X125494208Y-54229636D01*
X125220315Y-54343086D01*
X124973818Y-54507790D01*
X124809633Y-54671975D01*
X124751605Y-54563413D01*
X124641162Y-54428838D01*
X124506587Y-54318395D01*
X124353051Y-54236328D01*
X124186455Y-54185792D01*
X124013201Y-54168728D01*
X122773199Y-54168728D01*
X122599945Y-54185792D01*
X122433349Y-54236328D01*
X122279813Y-54318395D01*
X122145238Y-54428838D01*
X122059098Y-54533800D01*
X121061738Y-54533800D01*
X121005599Y-54528271D01*
X120949460Y-54533800D01*
X120949454Y-54533800D01*
X120804200Y-54548106D01*
X120781532Y-54550339D01*
X120738434Y-54563413D01*
X120566077Y-54615697D01*
X120367511Y-54721832D01*
X120193467Y-54864667D01*
X120157677Y-54908277D01*
X119363755Y-55702200D01*
X115278502Y-55702200D01*
X115192362Y-55597238D01*
X115057787Y-55486795D01*
X114904251Y-55404728D01*
X114737655Y-55354192D01*
X114564401Y-55337128D01*
X113324399Y-55337128D01*
X113151145Y-55354192D01*
X112984549Y-55404728D01*
X112831013Y-55486795D01*
X112696438Y-55597238D01*
X112610298Y-55702200D01*
X112400338Y-55702200D01*
X112344199Y-55696671D01*
X112288060Y-55702200D01*
X112288054Y-55702200D01*
X112142800Y-55716506D01*
X112120132Y-55718739D01*
X112077034Y-55731813D01*
X111904677Y-55784097D01*
X111706111Y-55890232D01*
X111532067Y-56033067D01*
X111496277Y-56076677D01*
X106292482Y-61280473D01*
X106248867Y-61316267D01*
X106106032Y-61490312D01*
X105999897Y-61688878D01*
X105934539Y-61904334D01*
X105918000Y-62072255D01*
X105918000Y-62072261D01*
X105912471Y-62128400D01*
X101294800Y-62128400D01*
X101294800Y-48465473D01*
X102758401Y-48465473D01*
X102758401Y-48905729D01*
X102844291Y-49337526D01*
X103012770Y-49744270D01*
X103257363Y-50110330D01*
X103568672Y-50421639D01*
X103934732Y-50666232D01*
X104341476Y-50834711D01*
X104773273Y-50920601D01*
X105213529Y-50920601D01*
X105645326Y-50834711D01*
X106052070Y-50666232D01*
X106418130Y-50421639D01*
X106729439Y-50110330D01*
X106974032Y-49744270D01*
X107142511Y-49337526D01*
X107228401Y-48905729D01*
X107228401Y-48465473D01*
X156733401Y-48465473D01*
X156733401Y-48905729D01*
X156819291Y-49337526D01*
X156987770Y-49744270D01*
X157232363Y-50110330D01*
X157543672Y-50421639D01*
X157909732Y-50666232D01*
X158316476Y-50834711D01*
X158748273Y-50920601D01*
X159188529Y-50920601D01*
X159620326Y-50834711D01*
X160027070Y-50666232D01*
X160393130Y-50421639D01*
X160704439Y-50110330D01*
X160949032Y-49744270D01*
X161117511Y-49337526D01*
X161203401Y-48905729D01*
X161203401Y-48465473D01*
X161117511Y-48033676D01*
X160949032Y-47626932D01*
X160704439Y-47260872D01*
X160393130Y-46949563D01*
X160027070Y-46704970D01*
X159620326Y-46536491D01*
X159188529Y-46450601D01*
X158748273Y-46450601D01*
X158316476Y-46536491D01*
X157909732Y-46704970D01*
X157543672Y-46949563D01*
X157232363Y-47260872D01*
X156987770Y-47626932D01*
X156819291Y-48033676D01*
X156733401Y-48465473D01*
X107228401Y-48465473D01*
X107142511Y-48033676D01*
X106974032Y-47626932D01*
X106729439Y-47260872D01*
X106418130Y-46949563D01*
X106052070Y-46704970D01*
X105645326Y-46536491D01*
X105213529Y-46450601D01*
X104773273Y-46450601D01*
X104341476Y-46536491D01*
X103934732Y-46704970D01*
X103568672Y-46949563D01*
X103257363Y-47260872D01*
X103012770Y-47626932D01*
X102844291Y-48033676D01*
X102758401Y-48465473D01*
X101294800Y-48465473D01*
X101294800Y-44348000D01*
X165379800Y-44348000D01*
X165379801Y-97333200D01*
%TA.AperFunction,Conductor*%
D18*
G36*
X165379801Y-97333200D02*
G01*
X101294800Y-97333200D01*
X101294800Y-92915473D01*
X102758401Y-92915473D01*
X102758401Y-93355729D01*
X102844291Y-93787526D01*
X103012770Y-94194270D01*
X103257363Y-94560330D01*
X103568672Y-94871639D01*
X103934732Y-95116232D01*
X104341476Y-95284711D01*
X104773273Y-95370601D01*
X105213529Y-95370601D01*
X105645326Y-95284711D01*
X106052070Y-95116232D01*
X106418130Y-94871639D01*
X106729439Y-94560330D01*
X106974032Y-94194270D01*
X107142511Y-93787526D01*
X107228401Y-93355729D01*
X107228401Y-92915473D01*
X107142511Y-92483676D01*
X106974032Y-92076932D01*
X106729439Y-91710872D01*
X106418130Y-91399563D01*
X106052070Y-91154970D01*
X105645326Y-90986491D01*
X105213529Y-90900601D01*
X104773273Y-90900601D01*
X104341476Y-90986491D01*
X103934732Y-91154970D01*
X103568672Y-91399563D01*
X103257363Y-91710872D01*
X103012770Y-92076932D01*
X102844291Y-92483676D01*
X102758401Y-92915473D01*
X101294800Y-92915473D01*
X101294800Y-62128400D01*
X105912471Y-62128400D01*
X105918000Y-62184539D01*
X105918001Y-87192851D01*
X105912471Y-87249000D01*
X105934539Y-87473067D01*
X105999898Y-87688523D01*
X106106033Y-87887089D01*
X106248868Y-88061133D01*
X106292478Y-88096923D01*
X110810477Y-92614923D01*
X110846267Y-92658533D01*
X111020311Y-92801368D01*
X111218877Y-92907503D01*
X111368974Y-92953035D01*
X111434332Y-92972861D01*
X111457000Y-92975094D01*
X111602254Y-92989400D01*
X111602260Y-92989400D01*
X111658399Y-92994929D01*
X111714538Y-92989400D01*
X151810461Y-92989400D01*
X151866600Y-92994929D01*
X151922739Y-92989400D01*
X151922746Y-92989400D01*
X152090667Y-92972861D01*
X152279849Y-92915473D01*
X156733401Y-92915473D01*
X156733401Y-93355729D01*
X156819291Y-93787526D01*
X156987770Y-94194270D01*
X157232363Y-94560330D01*
X157543672Y-94871639D01*
X157909732Y-95116232D01*
X158316476Y-95284711D01*
X158748273Y-95370601D01*
X159188529Y-95370601D01*
X159620326Y-95284711D01*
X160027070Y-95116232D01*
X160393130Y-94871639D01*
X160704439Y-94560330D01*
X160949032Y-94194270D01*
X161117511Y-93787526D01*
X161203401Y-93355729D01*
X161203401Y-92915473D01*
X161117511Y-92483676D01*
X160949032Y-92076932D01*
X160704439Y-91710872D01*
X160393130Y-91399563D01*
X160027070Y-91154970D01*
X159620326Y-90986491D01*
X159188529Y-90900601D01*
X158748273Y-90900601D01*
X158316476Y-90986491D01*
X157909732Y-91154970D01*
X157543672Y-91399563D01*
X157232363Y-91710872D01*
X156987770Y-92076932D01*
X156819291Y-92483676D01*
X156733401Y-92915473D01*
X152279849Y-92915473D01*
X152306123Y-92907503D01*
X152504689Y-92801368D01*
X152678733Y-92658533D01*
X152714527Y-92614918D01*
X156343524Y-88985922D01*
X156387133Y-88950133D01*
X156529968Y-88776089D01*
X156628294Y-88592133D01*
X156636103Y-88577524D01*
X156701461Y-88362067D01*
X156707288Y-88302903D01*
X156718000Y-88194146D01*
X156718000Y-88194139D01*
X156723529Y-88138000D01*
X156718000Y-88081861D01*
X156718000Y-86457606D01*
X156725788Y-86536682D01*
X156762098Y-86656380D01*
X156821063Y-86766694D01*
X156900415Y-86863385D01*
X156997106Y-86942737D01*
X157107420Y-87001702D01*
X157227118Y-87038012D01*
X157351600Y-87050272D01*
X160351600Y-87050272D01*
X160476082Y-87038012D01*
X160595780Y-87001702D01*
X160706094Y-86942737D01*
X160802785Y-86863385D01*
X160882137Y-86766694D01*
X160941102Y-86656380D01*
X160977412Y-86536682D01*
X160989672Y-86412200D01*
X160989672Y-86055200D01*
X162046661Y-86055200D01*
X162102800Y-86060729D01*
X162158939Y-86055200D01*
X162158946Y-86055200D01*
X162326867Y-86038661D01*
X162542323Y-85973303D01*
X162740889Y-85867168D01*
X162914933Y-85724333D01*
X162950727Y-85680718D01*
X164395324Y-84236122D01*
X164438933Y-84200333D01*
X164581768Y-84026289D01*
X164687903Y-83827723D01*
X164740629Y-83653909D01*
X164753261Y-83612268D01*
X164766491Y-83477940D01*
X164769800Y-83444346D01*
X164769800Y-83444340D01*
X164775329Y-83388201D01*
X164769800Y-83332062D01*
X164769800Y-72014338D01*
X164775329Y-71958199D01*
X164769800Y-71902060D01*
X164769800Y-71902054D01*
X164753261Y-71734133D01*
X164745195Y-71707541D01*
X164715704Y-71610324D01*
X164687903Y-71518677D01*
X164581768Y-71320111D01*
X164438933Y-71146067D01*
X164395323Y-71110277D01*
X161909327Y-68624282D01*
X161873533Y-68580667D01*
X161699489Y-68437832D01*
X161500923Y-68331697D01*
X161285467Y-68266339D01*
X161117546Y-68249800D01*
X161117539Y-68249800D01*
X161065872Y-68244711D01*
X161065872Y-67892800D01*
X161053612Y-67768318D01*
X161017302Y-67648620D01*
X160958337Y-67538306D01*
X160878985Y-67441615D01*
X160782294Y-67362263D01*
X160671980Y-67303298D01*
X160552282Y-67266988D01*
X160427800Y-67254728D01*
X157427800Y-67254728D01*
X157303318Y-67266988D01*
X157183620Y-67303298D01*
X157073306Y-67362263D01*
X156976615Y-67441615D01*
X156897263Y-67538306D01*
X156838298Y-67648620D01*
X156801988Y-67768318D01*
X156789728Y-67892800D01*
X156789728Y-68249800D01*
X155591246Y-68249800D01*
X155321000Y-67979555D01*
X155321000Y-65804453D01*
X157615752Y-65804453D01*
X157771762Y-66120014D01*
X158146545Y-66310820D01*
X158551351Y-66424844D01*
X158970624Y-66457702D01*
X159388251Y-66408134D01*
X159788183Y-66278043D01*
X160083838Y-66120014D01*
X160239848Y-65804453D01*
X158927800Y-64492405D01*
X157615752Y-65804453D01*
X155321000Y-65804453D01*
X155321000Y-64355624D01*
X156782898Y-64355624D01*
X156832466Y-64773251D01*
X156962557Y-65173183D01*
X157120586Y-65468838D01*
X157436147Y-65624848D01*
X158748195Y-64312800D01*
X159107405Y-64312800D01*
X160419453Y-65624848D01*
X160735014Y-65468838D01*
X160925820Y-65094055D01*
X161039844Y-64689249D01*
X161072702Y-64269976D01*
X161023134Y-63852349D01*
X160893043Y-63452417D01*
X160735014Y-63156762D01*
X160419453Y-63000752D01*
X159107405Y-64312800D01*
X158748195Y-64312800D01*
X157436147Y-63000752D01*
X157120586Y-63156762D01*
X156929780Y-63531545D01*
X156815756Y-63936351D01*
X156782898Y-64355624D01*
X155321000Y-64355624D01*
X155321000Y-62821147D01*
X157615752Y-62821147D01*
X158927800Y-64133195D01*
X160239848Y-62821147D01*
X160083838Y-62505586D01*
X159709055Y-62314780D01*
X159304249Y-62200756D01*
X158884976Y-62167898D01*
X158467349Y-62217466D01*
X158067417Y-62347557D01*
X157771762Y-62505586D01*
X157615752Y-62821147D01*
X155321000Y-62821147D01*
X155321000Y-62540138D01*
X155326529Y-62483999D01*
X155321000Y-62427860D01*
X155321000Y-62427854D01*
X155304461Y-62259933D01*
X155300405Y-62246560D01*
X155264561Y-62128400D01*
X155239103Y-62044477D01*
X155132968Y-61845911D01*
X155056660Y-61752930D01*
X155025924Y-61715478D01*
X155025923Y-61715477D01*
X154990133Y-61671867D01*
X154946524Y-61636078D01*
X150029918Y-56719472D01*
X150470133Y-56719472D01*
X150550188Y-56970589D01*
X150817639Y-57098487D01*
X151104903Y-57171750D01*
X151400940Y-57187564D01*
X151694374Y-57145320D01*
X151973928Y-57046641D01*
X152116212Y-56970589D01*
X152196267Y-56719472D01*
X151333200Y-55856405D01*
X150470133Y-56719472D01*
X150029918Y-56719472D01*
X149954419Y-56643973D01*
X149962210Y-56636182D01*
X150072919Y-56470494D01*
X150290528Y-56539867D01*
X151153595Y-55676800D01*
X151512805Y-55676800D01*
X152375872Y-56539867D01*
X152626989Y-56459812D01*
X152754887Y-56192361D01*
X152828150Y-55905097D01*
X152843964Y-55609060D01*
X152801720Y-55315626D01*
X152703041Y-55036072D01*
X152626989Y-54893788D01*
X152375872Y-54813733D01*
X151512805Y-55676800D01*
X151153595Y-55676800D01*
X150290528Y-54813733D01*
X150072919Y-54883106D01*
X149962210Y-54717418D01*
X149878920Y-54634128D01*
X150470133Y-54634128D01*
X151333200Y-55497195D01*
X152196267Y-54634128D01*
X152116212Y-54383011D01*
X151848761Y-54255113D01*
X151561497Y-54181850D01*
X151265460Y-54166036D01*
X150972026Y-54208280D01*
X150692472Y-54306959D01*
X150550188Y-54383011D01*
X150470133Y-54634128D01*
X149878920Y-54634128D01*
X149752582Y-54507790D01*
X149506085Y-54343086D01*
X149232192Y-54229636D01*
X148941430Y-54171800D01*
X148644970Y-54171800D01*
X148354208Y-54229636D01*
X148080315Y-54343086D01*
X147833818Y-54507790D01*
X147624190Y-54717418D01*
X147523200Y-54868560D01*
X147422210Y-54717418D01*
X147212582Y-54507790D01*
X146966085Y-54343086D01*
X146692192Y-54229636D01*
X146401430Y-54171800D01*
X146104970Y-54171800D01*
X145814208Y-54229636D01*
X145540315Y-54343086D01*
X145293818Y-54507790D01*
X145084190Y-54717418D01*
X144983200Y-54868560D01*
X144882210Y-54717418D01*
X144672582Y-54507790D01*
X144426085Y-54343086D01*
X144152192Y-54229636D01*
X143861430Y-54171800D01*
X143564970Y-54171800D01*
X143274208Y-54229636D01*
X143000315Y-54343086D01*
X142753818Y-54507790D01*
X142544190Y-54717418D01*
X142443200Y-54868560D01*
X142342210Y-54717418D01*
X142132582Y-54507790D01*
X141886085Y-54343086D01*
X141612192Y-54229636D01*
X141321430Y-54171800D01*
X141024970Y-54171800D01*
X140734208Y-54229636D01*
X140460315Y-54343086D01*
X140213818Y-54507790D01*
X140004190Y-54717418D01*
X139903200Y-54868560D01*
X139802210Y-54717418D01*
X139592582Y-54507790D01*
X139346085Y-54343086D01*
X139072192Y-54229636D01*
X138781430Y-54171800D01*
X138484970Y-54171800D01*
X138194208Y-54229636D01*
X137920315Y-54343086D01*
X137673818Y-54507790D01*
X137464190Y-54717418D01*
X137363200Y-54868560D01*
X137262210Y-54717418D01*
X137052582Y-54507790D01*
X136806085Y-54343086D01*
X136532192Y-54229636D01*
X136241430Y-54171800D01*
X135944970Y-54171800D01*
X135654208Y-54229636D01*
X135380315Y-54343086D01*
X135133818Y-54507790D01*
X134924190Y-54717418D01*
X134823200Y-54868560D01*
X134722210Y-54717418D01*
X134512582Y-54507790D01*
X134266085Y-54343086D01*
X133992192Y-54229636D01*
X133701430Y-54171800D01*
X133404970Y-54171800D01*
X133114208Y-54229636D01*
X132840315Y-54343086D01*
X132593818Y-54507790D01*
X132384190Y-54717418D01*
X132283200Y-54868560D01*
X132182210Y-54717418D01*
X131972582Y-54507790D01*
X131726085Y-54343086D01*
X131452192Y-54229636D01*
X131161430Y-54171800D01*
X130864970Y-54171800D01*
X130574208Y-54229636D01*
X130300315Y-54343086D01*
X130053818Y-54507790D01*
X129844190Y-54717418D01*
X129743200Y-54868560D01*
X129642210Y-54717418D01*
X129432582Y-54507790D01*
X129186085Y-54343086D01*
X128912192Y-54229636D01*
X128621430Y-54171800D01*
X128324970Y-54171800D01*
X128034208Y-54229636D01*
X127760315Y-54343086D01*
X127513818Y-54507790D01*
X127304190Y-54717418D01*
X127203200Y-54868560D01*
X127102210Y-54717418D01*
X126892582Y-54507790D01*
X126646085Y-54343086D01*
X126372192Y-54229636D01*
X126081430Y-54171800D01*
X125784970Y-54171800D01*
X125494208Y-54229636D01*
X125220315Y-54343086D01*
X124973818Y-54507790D01*
X124809633Y-54671975D01*
X124751605Y-54563413D01*
X124641162Y-54428838D01*
X124506587Y-54318395D01*
X124353051Y-54236328D01*
X124186455Y-54185792D01*
X124013201Y-54168728D01*
X122773199Y-54168728D01*
X122599945Y-54185792D01*
X122433349Y-54236328D01*
X122279813Y-54318395D01*
X122145238Y-54428838D01*
X122059098Y-54533800D01*
X121061738Y-54533800D01*
X121005599Y-54528271D01*
X120949460Y-54533800D01*
X120949454Y-54533800D01*
X120804200Y-54548106D01*
X120781532Y-54550339D01*
X120738434Y-54563413D01*
X120566077Y-54615697D01*
X120367511Y-54721832D01*
X120193467Y-54864667D01*
X120157677Y-54908277D01*
X119363755Y-55702200D01*
X115278502Y-55702200D01*
X115192362Y-55597238D01*
X115057787Y-55486795D01*
X114904251Y-55404728D01*
X114737655Y-55354192D01*
X114564401Y-55337128D01*
X113324399Y-55337128D01*
X113151145Y-55354192D01*
X112984549Y-55404728D01*
X112831013Y-55486795D01*
X112696438Y-55597238D01*
X112610298Y-55702200D01*
X112400338Y-55702200D01*
X112344199Y-55696671D01*
X112288060Y-55702200D01*
X112288054Y-55702200D01*
X112142800Y-55716506D01*
X112120132Y-55718739D01*
X112077034Y-55731813D01*
X111904677Y-55784097D01*
X111706111Y-55890232D01*
X111532067Y-56033067D01*
X111496277Y-56076677D01*
X106292482Y-61280473D01*
X106248867Y-61316267D01*
X106106032Y-61490312D01*
X105999897Y-61688878D01*
X105934539Y-61904334D01*
X105918000Y-62072255D01*
X105918000Y-62072261D01*
X105912471Y-62128400D01*
X101294800Y-62128400D01*
X101294800Y-48465473D01*
X102758401Y-48465473D01*
X102758401Y-48905729D01*
X102844291Y-49337526D01*
X103012770Y-49744270D01*
X103257363Y-50110330D01*
X103568672Y-50421639D01*
X103934732Y-50666232D01*
X104341476Y-50834711D01*
X104773273Y-50920601D01*
X105213529Y-50920601D01*
X105645326Y-50834711D01*
X106052070Y-50666232D01*
X106418130Y-50421639D01*
X106729439Y-50110330D01*
X106974032Y-49744270D01*
X107142511Y-49337526D01*
X107228401Y-48905729D01*
X107228401Y-48465473D01*
X156733401Y-48465473D01*
X156733401Y-48905729D01*
X156819291Y-49337526D01*
X156987770Y-49744270D01*
X157232363Y-50110330D01*
X157543672Y-50421639D01*
X157909732Y-50666232D01*
X158316476Y-50834711D01*
X158748273Y-50920601D01*
X159188529Y-50920601D01*
X159620326Y-50834711D01*
X160027070Y-50666232D01*
X160393130Y-50421639D01*
X160704439Y-50110330D01*
X160949032Y-49744270D01*
X161117511Y-49337526D01*
X161203401Y-48905729D01*
X161203401Y-48465473D01*
X161117511Y-48033676D01*
X160949032Y-47626932D01*
X160704439Y-47260872D01*
X160393130Y-46949563D01*
X160027070Y-46704970D01*
X159620326Y-46536491D01*
X159188529Y-46450601D01*
X158748273Y-46450601D01*
X158316476Y-46536491D01*
X157909732Y-46704970D01*
X157543672Y-46949563D01*
X157232363Y-47260872D01*
X156987770Y-47626932D01*
X156819291Y-48033676D01*
X156733401Y-48465473D01*
X107228401Y-48465473D01*
X107142511Y-48033676D01*
X106974032Y-47626932D01*
X106729439Y-47260872D01*
X106418130Y-46949563D01*
X106052070Y-46704970D01*
X105645326Y-46536491D01*
X105213529Y-46450601D01*
X104773273Y-46450601D01*
X104341476Y-46536491D01*
X103934732Y-46704970D01*
X103568672Y-46949563D01*
X103257363Y-47260872D01*
X103012770Y-47626932D01*
X102844291Y-48033676D01*
X102758401Y-48465473D01*
X101294800Y-48465473D01*
X101294800Y-44348000D01*
X165379800Y-44348000D01*
X165379801Y-97333200D01*
G37*
%TD.AperFunction*%
D17*
X147624190Y-56636182D02*
X147650200Y-56662192D01*
X147650200Y-57043061D01*
X147644671Y-57099200D01*
X147650200Y-57155339D01*
X147650200Y-57155346D01*
X147666739Y-57323267D01*
X147732097Y-57538723D01*
X147838233Y-57737289D01*
X147981068Y-57911333D01*
X148024678Y-57947123D01*
X153035000Y-62957446D01*
X153035001Y-68396851D01*
X153029471Y-68453000D01*
X153051539Y-68677067D01*
X153083735Y-68783200D01*
X153116898Y-68892523D01*
X153223033Y-69091089D01*
X153365868Y-69265133D01*
X153409478Y-69300923D01*
X154269875Y-70161321D01*
X154305667Y-70204933D01*
X154479711Y-70347768D01*
X154678277Y-70453903D01*
X154822007Y-70497503D01*
X154893732Y-70519261D01*
X154914317Y-70521288D01*
X155061654Y-70535800D01*
X155061661Y-70535800D01*
X155117800Y-70541329D01*
X155173939Y-70535800D01*
X156789728Y-70535800D01*
X156789728Y-70892800D01*
X156801988Y-71017282D01*
X156838298Y-71136980D01*
X156897263Y-71247294D01*
X156976615Y-71343985D01*
X157073306Y-71423337D01*
X157183620Y-71482302D01*
X157303318Y-71518612D01*
X157427800Y-71530872D01*
X160427800Y-71530872D01*
X160552282Y-71518612D01*
X160671980Y-71482302D01*
X160782294Y-71423337D01*
X160878985Y-71343985D01*
X160958337Y-71247294D01*
X161017302Y-71136980D01*
X161053612Y-71017282D01*
X161055031Y-71002876D01*
X162483801Y-72431647D01*
X162483800Y-82914754D01*
X161629355Y-83769200D01*
X160989672Y-83769200D01*
X160989672Y-83412200D01*
X160977412Y-83287718D01*
X160941102Y-83168020D01*
X160882137Y-83057706D01*
X160802785Y-82961015D01*
X160706094Y-82881663D01*
X160595780Y-82822698D01*
X160476082Y-82786388D01*
X160351600Y-82774128D01*
X157351600Y-82774128D01*
X157227118Y-82786388D01*
X157107420Y-82822698D01*
X156997106Y-82881663D01*
X156900415Y-82961015D01*
X156821063Y-83057706D01*
X156762098Y-83168020D01*
X156725788Y-83287718D01*
X156718000Y-83366794D01*
X156718000Y-81474045D01*
X157115382Y-81076664D01*
X157193237Y-81193183D01*
X157490617Y-81490563D01*
X157840298Y-81724212D01*
X158228844Y-81885153D01*
X158641321Y-81967200D01*
X159061879Y-81967200D01*
X159474356Y-81885153D01*
X159862902Y-81724212D01*
X160212583Y-81490563D01*
X160509963Y-81193183D01*
X160743612Y-80843502D01*
X160904553Y-80454956D01*
X160986600Y-80042479D01*
X160986600Y-79621921D01*
X160904553Y-79209444D01*
X160743612Y-78820898D01*
X160509963Y-78471217D01*
X160212583Y-78173837D01*
X159862902Y-77940188D01*
X159474356Y-77779247D01*
X159061879Y-77697200D01*
X158641321Y-77697200D01*
X158228844Y-77779247D01*
X157840298Y-77940188D01*
X157490617Y-78173837D01*
X157193237Y-78471217D01*
X157047586Y-78689200D01*
X156799538Y-78689200D01*
X156743399Y-78683671D01*
X156687260Y-78689200D01*
X156687254Y-78689200D01*
X156548249Y-78702891D01*
X156519332Y-78705739D01*
X156453974Y-78725565D01*
X156303877Y-78771097D01*
X156105311Y-78877232D01*
X155931267Y-79020067D01*
X155895477Y-79063677D01*
X154806478Y-80152677D01*
X154762868Y-80188467D01*
X154620033Y-80362511D01*
X154557402Y-80479686D01*
X154513898Y-80561077D01*
X154448539Y-80776533D01*
X154426471Y-81000600D01*
X154432001Y-81056749D01*
X154432000Y-87664554D01*
X151393155Y-90703400D01*
X112131846Y-90703400D01*
X108204000Y-86775555D01*
X108204000Y-81677940D01*
X109436436Y-81677940D01*
X109478680Y-81971374D01*
X109577359Y-82250928D01*
X109653411Y-82393212D01*
X109904528Y-82473267D01*
X110767595Y-81610200D01*
X111126805Y-81610200D01*
X111989872Y-82473267D01*
X112240989Y-82393212D01*
X112368887Y-82125761D01*
X112442150Y-81838497D01*
X112457964Y-81542460D01*
X112415720Y-81249026D01*
X112317041Y-80969472D01*
X112240989Y-80827188D01*
X111989872Y-80747133D01*
X111126805Y-81610200D01*
X110767595Y-81610200D01*
X109904528Y-80747133D01*
X109653411Y-80827188D01*
X109525513Y-81094639D01*
X109452250Y-81381903D01*
X109436436Y-81677940D01*
X108204000Y-81677940D01*
X108204000Y-80567528D01*
X110084133Y-80567528D01*
X110947200Y-81430595D01*
X111810267Y-80567528D01*
X111759392Y-80407940D01*
X120942636Y-80407940D01*
X120984880Y-80701374D01*
X121083559Y-80980928D01*
X121159611Y-81123212D01*
X121410728Y-81203267D01*
X122273795Y-80340200D01*
X122633005Y-80340200D01*
X123496072Y-81203267D01*
X123747189Y-81123212D01*
X123875087Y-80855761D01*
X123948350Y-80568497D01*
X123956926Y-80407940D01*
X131280436Y-80407940D01*
X131322680Y-80701374D01*
X131421359Y-80980928D01*
X131497411Y-81123212D01*
X131748528Y-81203267D01*
X132611595Y-80340200D01*
X132970805Y-80340200D01*
X133833872Y-81203267D01*
X134084989Y-81123212D01*
X134212887Y-80855761D01*
X134286150Y-80568497D01*
X134301964Y-80272460D01*
X134259720Y-79979026D01*
X134161041Y-79699472D01*
X134084989Y-79557188D01*
X133833872Y-79477133D01*
X132970805Y-80340200D01*
X132611595Y-80340200D01*
X131748528Y-79477133D01*
X131497411Y-79557188D01*
X131369513Y-79824639D01*
X131296250Y-80111903D01*
X131280436Y-80407940D01*
X123956926Y-80407940D01*
X123964164Y-80272460D01*
X123921920Y-79979026D01*
X123823241Y-79699472D01*
X123747189Y-79557188D01*
X123496072Y-79477133D01*
X122633005Y-80340200D01*
X122273795Y-80340200D01*
X121410728Y-79477133D01*
X121159611Y-79557188D01*
X121031713Y-79824639D01*
X120958450Y-80111903D01*
X120942636Y-80407940D01*
X111759392Y-80407940D01*
X111730212Y-80316411D01*
X111462761Y-80188513D01*
X111175497Y-80115250D01*
X110879460Y-80099436D01*
X110586026Y-80141680D01*
X110306472Y-80240359D01*
X110164188Y-80316411D01*
X110084133Y-80567528D01*
X108204000Y-80567528D01*
X108204000Y-79297528D01*
X121590333Y-79297528D01*
X122453400Y-80160595D01*
X123316467Y-79297528D01*
X131928133Y-79297528D01*
X132791200Y-80160595D01*
X133654267Y-79297528D01*
X133574212Y-79046411D01*
X133306761Y-78918513D01*
X133019497Y-78845250D01*
X132723460Y-78829436D01*
X132430026Y-78871680D01*
X132150472Y-78970359D01*
X132008188Y-79046411D01*
X131928133Y-79297528D01*
X123316467Y-79297528D01*
X123236412Y-79046411D01*
X122968961Y-78918513D01*
X122681697Y-78845250D01*
X122385660Y-78829436D01*
X122092226Y-78871680D01*
X121812672Y-78970359D01*
X121670388Y-79046411D01*
X121590333Y-79297528D01*
X108204000Y-79297528D01*
X108204000Y-71984872D01*
X111658933Y-71984872D01*
X111738988Y-72235989D01*
X112006439Y-72363887D01*
X112293703Y-72437150D01*
X112589740Y-72452964D01*
X112883174Y-72410720D01*
X113162728Y-72312041D01*
X113305012Y-72235989D01*
X113385067Y-71984872D01*
X112522000Y-71121805D01*
X111658933Y-71984872D01*
X108204000Y-71984872D01*
X108204000Y-71009940D01*
X111011236Y-71009940D01*
X111053480Y-71303374D01*
X111152159Y-71582928D01*
X111228211Y-71725212D01*
X111479328Y-71805267D01*
X112342395Y-70942200D01*
X112701605Y-70942200D01*
X113564672Y-71805267D01*
X113815789Y-71725212D01*
X113943687Y-71457761D01*
X114016950Y-71170497D01*
X114032764Y-70874460D01*
X113990520Y-70581026D01*
X113891841Y-70301472D01*
X113815789Y-70159188D01*
X113564672Y-70079133D01*
X112701605Y-70942200D01*
X112342395Y-70942200D01*
X111479328Y-70079133D01*
X111228211Y-70159188D01*
X111100313Y-70426639D01*
X111027050Y-70713903D01*
X111011236Y-71009940D01*
X108204000Y-71009940D01*
X108204000Y-62601845D01*
X110377973Y-60427872D01*
X113081333Y-60427872D01*
X113161388Y-60678989D01*
X113428839Y-60806887D01*
X113716103Y-60880150D01*
X114012140Y-60895964D01*
X114305574Y-60853720D01*
X114585128Y-60755041D01*
X114727412Y-60678989D01*
X114807467Y-60427872D01*
X113944400Y-59564805D01*
X113081333Y-60427872D01*
X110377973Y-60427872D01*
X111352905Y-59452940D01*
X112433636Y-59452940D01*
X112475880Y-59746374D01*
X112574559Y-60025928D01*
X112650611Y-60168212D01*
X112901728Y-60248267D01*
X113764795Y-59385200D01*
X114124005Y-59385200D01*
X114987072Y-60248267D01*
X115238189Y-60168212D01*
X115366087Y-59900761D01*
X115439350Y-59613497D01*
X115455164Y-59317460D01*
X115412920Y-59024026D01*
X115314241Y-58744472D01*
X115238189Y-58602188D01*
X114987072Y-58522133D01*
X114124005Y-59385200D01*
X113764795Y-59385200D01*
X112901728Y-58522133D01*
X112650611Y-58602188D01*
X112522713Y-58869639D01*
X112449450Y-59156903D01*
X112433636Y-59452940D01*
X111352905Y-59452940D01*
X112705361Y-58100485D01*
X112831013Y-58203605D01*
X112984549Y-58285672D01*
X113089326Y-58317456D01*
X113081333Y-58342528D01*
X113944400Y-59205595D01*
X114807467Y-58342528D01*
X114799474Y-58317456D01*
X114904251Y-58285672D01*
X115057787Y-58203605D01*
X115192362Y-58093162D01*
X115278502Y-57988200D01*
X119781061Y-57988200D01*
X119837200Y-57993729D01*
X119893339Y-57988200D01*
X119893346Y-57988200D01*
X120061267Y-57971661D01*
X120276723Y-57906303D01*
X120475289Y-57800168D01*
X120649333Y-57657333D01*
X120685127Y-57613718D01*
X121479046Y-56819800D01*
X122059098Y-56819800D01*
X122145238Y-56924762D01*
X122279813Y-57035205D01*
X122433349Y-57117272D01*
X122599945Y-57167808D01*
X122773199Y-57184872D01*
X124013201Y-57184872D01*
X124186455Y-57167808D01*
X124353051Y-57117272D01*
X124506587Y-57035205D01*
X124641162Y-56924762D01*
X124751605Y-56790187D01*
X124809633Y-56681625D01*
X124973818Y-56845810D01*
X125044201Y-56892838D01*
X125044200Y-57797764D01*
X121551765Y-61290200D01*
X120058659Y-61290200D01*
X120014999Y-61285900D01*
X119971339Y-61290200D01*
X119971333Y-61290200D01*
X119873924Y-61299794D01*
X119840724Y-61303064D01*
X119771622Y-61324026D01*
X119673149Y-61353897D01*
X119518709Y-61436447D01*
X119383341Y-61547541D01*
X119355501Y-61581464D01*
X117080459Y-63856506D01*
X117046542Y-63884341D01*
X117018707Y-63918258D01*
X117018705Y-63918260D01*
X116935448Y-64019709D01*
X116852898Y-64174148D01*
X116802064Y-64341726D01*
X116784900Y-64516000D01*
X116789201Y-64559670D01*
X116789200Y-67513200D01*
X113983964Y-67513200D01*
X113962472Y-67442349D01*
X113880405Y-67288813D01*
X113769962Y-67154238D01*
X113635387Y-67043795D01*
X113481851Y-66961728D01*
X113315255Y-66911192D01*
X113142001Y-66894128D01*
X111901999Y-66894128D01*
X111728745Y-66911192D01*
X111562149Y-66961728D01*
X111408613Y-67043795D01*
X111274038Y-67154238D01*
X111163595Y-67288813D01*
X111081528Y-67442349D01*
X111030992Y-67608945D01*
X111013928Y-67782199D01*
X111013928Y-69022201D01*
X111030992Y-69195455D01*
X111081528Y-69362051D01*
X111163595Y-69515587D01*
X111274038Y-69650162D01*
X111408613Y-69760605D01*
X111562149Y-69842672D01*
X111666926Y-69874456D01*
X111658933Y-69899528D01*
X112522000Y-70762595D01*
X113385067Y-69899528D01*
X113377074Y-69874456D01*
X113481851Y-69842672D01*
X113635387Y-69760605D01*
X113769962Y-69650162D01*
X113880405Y-69515587D01*
X113962472Y-69362051D01*
X113983964Y-69291200D01*
X117309965Y-69291200D01*
X119558706Y-71539942D01*
X119586541Y-71573859D01*
X119721909Y-71684953D01*
X119876349Y-71767503D01*
X119942258Y-71787496D01*
X120043924Y-71818336D01*
X120077124Y-71821606D01*
X120174533Y-71831200D01*
X120174539Y-71831200D01*
X120218199Y-71835500D01*
X120261859Y-71831200D01*
X122685162Y-71831200D01*
X122732190Y-71901582D01*
X122941818Y-72111210D01*
X123188315Y-72275914D01*
X123462208Y-72389364D01*
X123752970Y-72447200D01*
X124049430Y-72447200D01*
X124340192Y-72389364D01*
X124614085Y-72275914D01*
X124860582Y-72111210D01*
X125070210Y-71901582D01*
X125117238Y-71831200D01*
X133073762Y-71831200D01*
X133120790Y-71901582D01*
X133330418Y-72111210D01*
X133576915Y-72275914D01*
X133850808Y-72389364D01*
X134141570Y-72447200D01*
X134438030Y-72447200D01*
X134728792Y-72389364D01*
X135002685Y-72275914D01*
X135249182Y-72111210D01*
X135458810Y-71901582D01*
X135505838Y-71831200D01*
X136709940Y-71831200D01*
X136753600Y-71835500D01*
X136797260Y-71831200D01*
X136797267Y-71831200D01*
X136927874Y-71818336D01*
X137095451Y-71767503D01*
X137249891Y-71684953D01*
X137385259Y-71573859D01*
X137413099Y-71539936D01*
X138391836Y-70561200D01*
X142166962Y-70561200D01*
X142213990Y-70631582D01*
X142378175Y-70795767D01*
X142269613Y-70853795D01*
X142135038Y-70964238D01*
X142024595Y-71098813D01*
X141942528Y-71252349D01*
X141891992Y-71418945D01*
X141874928Y-71592199D01*
X141874928Y-72832201D01*
X141891992Y-73005455D01*
X141942528Y-73172051D01*
X142024595Y-73325587D01*
X142135038Y-73460162D01*
X142269613Y-73570605D01*
X142423149Y-73652672D01*
X142589745Y-73703208D01*
X142762999Y-73720272D01*
X144003001Y-73720272D01*
X144176255Y-73703208D01*
X144342851Y-73652672D01*
X144496387Y-73570605D01*
X144630962Y-73460162D01*
X144717102Y-73355200D01*
X145358861Y-73355200D01*
X145398464Y-73359100D01*
X134246927Y-84510638D01*
X134231672Y-84460349D01*
X134149605Y-84306813D01*
X134039162Y-84172238D01*
X133904587Y-84061795D01*
X133796025Y-84003767D01*
X133960210Y-83839582D01*
X134124914Y-83593085D01*
X134238364Y-83319192D01*
X134296200Y-83028430D01*
X134296200Y-82731970D01*
X134238364Y-82441208D01*
X134124914Y-82167315D01*
X133960210Y-81920818D01*
X133750582Y-81711190D01*
X133584894Y-81600481D01*
X133654267Y-81382872D01*
X132791200Y-80519805D01*
X131928133Y-81382872D01*
X131997506Y-81600481D01*
X131831818Y-81711190D01*
X131622190Y-81920818D01*
X131575162Y-81991200D01*
X128745467Y-81991200D01*
X128701800Y-81986899D01*
X128658133Y-81991200D01*
X128527526Y-82004064D01*
X128359949Y-82054897D01*
X128205509Y-82137447D01*
X128117600Y-82209592D01*
X128029691Y-82137447D01*
X127875251Y-82054897D01*
X127707674Y-82004064D01*
X127577067Y-81991200D01*
X127577059Y-81991200D01*
X127533399Y-81986900D01*
X127489739Y-81991200D01*
X123669438Y-81991200D01*
X123622410Y-81920818D01*
X123412782Y-81711190D01*
X123247094Y-81600481D01*
X123316467Y-81382872D01*
X122453400Y-80519805D01*
X121590333Y-81382872D01*
X121659706Y-81600481D01*
X121494018Y-81711190D01*
X121284390Y-81920818D01*
X121119686Y-82167315D01*
X121006236Y-82441208D01*
X120948400Y-82731970D01*
X120948400Y-83028430D01*
X121006236Y-83319192D01*
X121119686Y-83593085D01*
X121284390Y-83839582D01*
X121448575Y-84003767D01*
X121340013Y-84061795D01*
X121205438Y-84172238D01*
X121094995Y-84306813D01*
X121012928Y-84460349D01*
X120991436Y-84531200D01*
X118275036Y-84531200D01*
X117296299Y-83552464D01*
X117268459Y-83518541D01*
X117133091Y-83407447D01*
X116978651Y-83324897D01*
X116811074Y-83274064D01*
X116680467Y-83261200D01*
X116680460Y-83261200D01*
X116636800Y-83256900D01*
X116593140Y-83261200D01*
X112409164Y-83261200D01*
X112387672Y-83190349D01*
X112305605Y-83036813D01*
X112195162Y-82902238D01*
X112060587Y-82791795D01*
X111907051Y-82709728D01*
X111802274Y-82677944D01*
X111810267Y-82652872D01*
X110947200Y-81789805D01*
X110084133Y-82652872D01*
X110092126Y-82677944D01*
X109987349Y-82709728D01*
X109833813Y-82791795D01*
X109699238Y-82902238D01*
X109588795Y-83036813D01*
X109506728Y-83190349D01*
X109456192Y-83356945D01*
X109439128Y-83530199D01*
X109439128Y-84770201D01*
X109456192Y-84943455D01*
X109506728Y-85110051D01*
X109588795Y-85263587D01*
X109699238Y-85398162D01*
X109833813Y-85508605D01*
X109987349Y-85590672D01*
X110153945Y-85641208D01*
X110327199Y-85658272D01*
X111567201Y-85658272D01*
X111740455Y-85641208D01*
X111907051Y-85590672D01*
X112060587Y-85508605D01*
X112195162Y-85398162D01*
X112305605Y-85263587D01*
X112387672Y-85110051D01*
X112409164Y-85039200D01*
X116268565Y-85039200D01*
X117247304Y-86017940D01*
X117275141Y-86051859D01*
X117410509Y-86162953D01*
X117564949Y-86245503D01*
X117630858Y-86265496D01*
X117732524Y-86296336D01*
X117765724Y-86299606D01*
X117863133Y-86309200D01*
X117863139Y-86309200D01*
X117906799Y-86313500D01*
X117950459Y-86309200D01*
X120991436Y-86309200D01*
X121012928Y-86380051D01*
X121094995Y-86533587D01*
X121205438Y-86668162D01*
X121340013Y-86778605D01*
X121493549Y-86860672D01*
X121660145Y-86911208D01*
X121833399Y-86928272D01*
X123073401Y-86928272D01*
X123246655Y-86911208D01*
X123413251Y-86860672D01*
X123566787Y-86778605D01*
X123701362Y-86668162D01*
X123811805Y-86533587D01*
X123893872Y-86380051D01*
X123915364Y-86309200D01*
X124157225Y-86309200D01*
X124169912Y-86317677D01*
X124359435Y-86396180D01*
X124560631Y-86436200D01*
X124765769Y-86436200D01*
X124966965Y-86396180D01*
X125156488Y-86317677D01*
X125327054Y-86203708D01*
X125472108Y-86058654D01*
X125586077Y-85888088D01*
X125664580Y-85698565D01*
X125704600Y-85497369D01*
X125704600Y-85292231D01*
X125664580Y-85091035D01*
X125586077Y-84901512D01*
X125472108Y-84730946D01*
X125327054Y-84585892D01*
X125156488Y-84471923D01*
X124966965Y-84393420D01*
X124765769Y-84353400D01*
X124560631Y-84353400D01*
X124359435Y-84393420D01*
X124169912Y-84471923D01*
X124081198Y-84531200D01*
X123915364Y-84531200D01*
X123893872Y-84460349D01*
X123811805Y-84306813D01*
X123701362Y-84172238D01*
X123566787Y-84061795D01*
X123458225Y-84003767D01*
X123622410Y-83839582D01*
X123669438Y-83769200D01*
X126593600Y-83769200D01*
X126593601Y-87992730D01*
X126589300Y-88036400D01*
X126606464Y-88210674D01*
X126657298Y-88378252D01*
X126739848Y-88532691D01*
X126781585Y-88583547D01*
X126850942Y-88668059D01*
X126884859Y-88695894D01*
X127712105Y-89523141D01*
X127739941Y-89557059D01*
X127875309Y-89668153D01*
X128029749Y-89750703D01*
X128124358Y-89779402D01*
X128197325Y-89801536D01*
X128213925Y-89803171D01*
X128327933Y-89814400D01*
X128327940Y-89814400D01*
X128371600Y-89818700D01*
X128415260Y-89814400D01*
X135825563Y-89814400D01*
X135873872Y-89818652D01*
X135956296Y-89809669D01*
X136038874Y-89801536D01*
X136043329Y-89800185D01*
X136047959Y-89799680D01*
X136127046Y-89774790D01*
X136206451Y-89750703D01*
X136210562Y-89748506D01*
X136215000Y-89747109D01*
X136287661Y-89707296D01*
X136360891Y-89668153D01*
X136364496Y-89665195D01*
X136368574Y-89662960D01*
X136432108Y-89609707D01*
X136496259Y-89557059D01*
X136527029Y-89519566D01*
X140734917Y-85223400D01*
X147335928Y-85223400D01*
X147348188Y-85347882D01*
X147384498Y-85467580D01*
X147443463Y-85577894D01*
X147522815Y-85674585D01*
X147619506Y-85753937D01*
X147729820Y-85812902D01*
X147849518Y-85849212D01*
X147974000Y-85861472D01*
X148558250Y-85858400D01*
X148717000Y-85699650D01*
X148717000Y-84480400D01*
X148971000Y-84480400D01*
X148971000Y-85699650D01*
X149129750Y-85858400D01*
X149714000Y-85861472D01*
X149838482Y-85849212D01*
X149958180Y-85812902D01*
X150068494Y-85753937D01*
X150165185Y-85674585D01*
X150244537Y-85577894D01*
X150303502Y-85467580D01*
X150339812Y-85347882D01*
X150352072Y-85223400D01*
X150349000Y-84639150D01*
X150190250Y-84480400D01*
X148971000Y-84480400D01*
X148717000Y-84480400D01*
X147497750Y-84480400D01*
X147339000Y-84639150D01*
X147335928Y-85223400D01*
X140734917Y-85223400D01*
X148140625Y-77662328D01*
X148101248Y-77710309D01*
X148018698Y-77864748D01*
X147967864Y-78032326D01*
X147950700Y-78206600D01*
X147955001Y-78250270D01*
X147955000Y-80597362D01*
X147884618Y-80644390D01*
X147674990Y-80854018D01*
X147510286Y-81100515D01*
X147396836Y-81374408D01*
X147339000Y-81665170D01*
X147339000Y-81961630D01*
X147396836Y-82252392D01*
X147510286Y-82526285D01*
X147674990Y-82772782D01*
X147780678Y-82878470D01*
X147729820Y-82893898D01*
X147619506Y-82952863D01*
X147522815Y-83032215D01*
X147443463Y-83128906D01*
X147384498Y-83239220D01*
X147348188Y-83358918D01*
X147335928Y-83483400D01*
X147339000Y-84067650D01*
X147497750Y-84226400D01*
X148717000Y-84226400D01*
X148717000Y-84206400D01*
X148971000Y-84206400D01*
X148971000Y-84226400D01*
X150190250Y-84226400D01*
X150349000Y-84067650D01*
X150352072Y-83483400D01*
X150339812Y-83358918D01*
X150303502Y-83239220D01*
X150244537Y-83128906D01*
X150165185Y-83032215D01*
X150068494Y-82952863D01*
X149958180Y-82893898D01*
X149907322Y-82878470D01*
X150013010Y-82772782D01*
X150177714Y-82526285D01*
X150291164Y-82252392D01*
X150349000Y-81961630D01*
X150349000Y-81665170D01*
X150291164Y-81374408D01*
X150177714Y-81100515D01*
X150013010Y-80854018D01*
X149803382Y-80644390D01*
X149733000Y-80597362D01*
X149733000Y-78574835D01*
X150046699Y-78261136D01*
X150068098Y-78241074D01*
X150077553Y-78230282D01*
X150087695Y-78220140D01*
X150106303Y-78197466D01*
X152562648Y-75393760D01*
X152573063Y-75385251D01*
X152620244Y-75328019D01*
X152640249Y-75305185D01*
X152648039Y-75294303D01*
X152684455Y-75250129D01*
X152698890Y-75223266D01*
X152716640Y-75198470D01*
X152740242Y-75146312D01*
X152767346Y-75095872D01*
X152776263Y-75066708D01*
X152788834Y-75038927D01*
X152801808Y-74983161D01*
X152818549Y-74928407D01*
X152821605Y-74898065D01*
X152828515Y-74868364D01*
X152830360Y-74811140D01*
X152831701Y-74797829D01*
X152831768Y-74767485D01*
X152834159Y-74693337D01*
X152831961Y-74680064D01*
X152857103Y-63290641D01*
X152861500Y-63246000D01*
X152853015Y-63159852D01*
X152844718Y-63073661D01*
X152844434Y-63072716D01*
X152844336Y-63071725D01*
X152819120Y-62988598D01*
X152794255Y-62905972D01*
X152793791Y-62905099D01*
X152793502Y-62904147D01*
X152752573Y-62827575D01*
X152712046Y-62751350D01*
X152711420Y-62750584D01*
X152710952Y-62749708D01*
X152655822Y-62682532D01*
X152601251Y-62615737D01*
X152566642Y-62587206D01*
X148538299Y-58558864D01*
X148510459Y-58524941D01*
X148375091Y-58413847D01*
X148220651Y-58331297D01*
X148053074Y-58280464D01*
X147922467Y-58267600D01*
X147922460Y-58267600D01*
X147878800Y-58263300D01*
X147835140Y-58267600D01*
X147231036Y-58267600D01*
X147142200Y-58178765D01*
X147142200Y-56892838D01*
X147212582Y-56845810D01*
X147422210Y-56636182D01*
X147523200Y-56485040D01*
X147624190Y-56636182D01*
%TA.AperFunction,Conductor*%
D18*
G36*
X147624190Y-56636182D02*
G01*
X147650200Y-56662192D01*
X147650200Y-57043061D01*
X147644671Y-57099200D01*
X147650200Y-57155339D01*
X147650200Y-57155346D01*
X147666739Y-57323267D01*
X147732097Y-57538723D01*
X147838233Y-57737289D01*
X147981068Y-57911333D01*
X148024678Y-57947123D01*
X153035000Y-62957446D01*
X153035001Y-68396851D01*
X153029471Y-68453000D01*
X153051539Y-68677067D01*
X153083735Y-68783200D01*
X153116898Y-68892523D01*
X153223033Y-69091089D01*
X153365868Y-69265133D01*
X153409478Y-69300923D01*
X154269875Y-70161321D01*
X154305667Y-70204933D01*
X154479711Y-70347768D01*
X154678277Y-70453903D01*
X154822007Y-70497503D01*
X154893732Y-70519261D01*
X154914317Y-70521288D01*
X155061654Y-70535800D01*
X155061661Y-70535800D01*
X155117800Y-70541329D01*
X155173939Y-70535800D01*
X156789728Y-70535800D01*
X156789728Y-70892800D01*
X156801988Y-71017282D01*
X156838298Y-71136980D01*
X156897263Y-71247294D01*
X156976615Y-71343985D01*
X157073306Y-71423337D01*
X157183620Y-71482302D01*
X157303318Y-71518612D01*
X157427800Y-71530872D01*
X160427800Y-71530872D01*
X160552282Y-71518612D01*
X160671980Y-71482302D01*
X160782294Y-71423337D01*
X160878985Y-71343985D01*
X160958337Y-71247294D01*
X161017302Y-71136980D01*
X161053612Y-71017282D01*
X161055031Y-71002876D01*
X162483801Y-72431647D01*
X162483800Y-82914754D01*
X161629355Y-83769200D01*
X160989672Y-83769200D01*
X160989672Y-83412200D01*
X160977412Y-83287718D01*
X160941102Y-83168020D01*
X160882137Y-83057706D01*
X160802785Y-82961015D01*
X160706094Y-82881663D01*
X160595780Y-82822698D01*
X160476082Y-82786388D01*
X160351600Y-82774128D01*
X157351600Y-82774128D01*
X157227118Y-82786388D01*
X157107420Y-82822698D01*
X156997106Y-82881663D01*
X156900415Y-82961015D01*
X156821063Y-83057706D01*
X156762098Y-83168020D01*
X156725788Y-83287718D01*
X156718000Y-83366794D01*
X156718000Y-81474045D01*
X157115382Y-81076664D01*
X157193237Y-81193183D01*
X157490617Y-81490563D01*
X157840298Y-81724212D01*
X158228844Y-81885153D01*
X158641321Y-81967200D01*
X159061879Y-81967200D01*
X159474356Y-81885153D01*
X159862902Y-81724212D01*
X160212583Y-81490563D01*
X160509963Y-81193183D01*
X160743612Y-80843502D01*
X160904553Y-80454956D01*
X160986600Y-80042479D01*
X160986600Y-79621921D01*
X160904553Y-79209444D01*
X160743612Y-78820898D01*
X160509963Y-78471217D01*
X160212583Y-78173837D01*
X159862902Y-77940188D01*
X159474356Y-77779247D01*
X159061879Y-77697200D01*
X158641321Y-77697200D01*
X158228844Y-77779247D01*
X157840298Y-77940188D01*
X157490617Y-78173837D01*
X157193237Y-78471217D01*
X157047586Y-78689200D01*
X156799538Y-78689200D01*
X156743399Y-78683671D01*
X156687260Y-78689200D01*
X156687254Y-78689200D01*
X156548249Y-78702891D01*
X156519332Y-78705739D01*
X156453974Y-78725565D01*
X156303877Y-78771097D01*
X156105311Y-78877232D01*
X155931267Y-79020067D01*
X155895477Y-79063677D01*
X154806478Y-80152677D01*
X154762868Y-80188467D01*
X154620033Y-80362511D01*
X154557402Y-80479686D01*
X154513898Y-80561077D01*
X154448539Y-80776533D01*
X154426471Y-81000600D01*
X154432001Y-81056749D01*
X154432000Y-87664554D01*
X151393155Y-90703400D01*
X112131846Y-90703400D01*
X108204000Y-86775555D01*
X108204000Y-81677940D01*
X109436436Y-81677940D01*
X109478680Y-81971374D01*
X109577359Y-82250928D01*
X109653411Y-82393212D01*
X109904528Y-82473267D01*
X110767595Y-81610200D01*
X111126805Y-81610200D01*
X111989872Y-82473267D01*
X112240989Y-82393212D01*
X112368887Y-82125761D01*
X112442150Y-81838497D01*
X112457964Y-81542460D01*
X112415720Y-81249026D01*
X112317041Y-80969472D01*
X112240989Y-80827188D01*
X111989872Y-80747133D01*
X111126805Y-81610200D01*
X110767595Y-81610200D01*
X109904528Y-80747133D01*
X109653411Y-80827188D01*
X109525513Y-81094639D01*
X109452250Y-81381903D01*
X109436436Y-81677940D01*
X108204000Y-81677940D01*
X108204000Y-80567528D01*
X110084133Y-80567528D01*
X110947200Y-81430595D01*
X111810267Y-80567528D01*
X111759392Y-80407940D01*
X120942636Y-80407940D01*
X120984880Y-80701374D01*
X121083559Y-80980928D01*
X121159611Y-81123212D01*
X121410728Y-81203267D01*
X122273795Y-80340200D01*
X122633005Y-80340200D01*
X123496072Y-81203267D01*
X123747189Y-81123212D01*
X123875087Y-80855761D01*
X123948350Y-80568497D01*
X123956926Y-80407940D01*
X131280436Y-80407940D01*
X131322680Y-80701374D01*
X131421359Y-80980928D01*
X131497411Y-81123212D01*
X131748528Y-81203267D01*
X132611595Y-80340200D01*
X132970805Y-80340200D01*
X133833872Y-81203267D01*
X134084989Y-81123212D01*
X134212887Y-80855761D01*
X134286150Y-80568497D01*
X134301964Y-80272460D01*
X134259720Y-79979026D01*
X134161041Y-79699472D01*
X134084989Y-79557188D01*
X133833872Y-79477133D01*
X132970805Y-80340200D01*
X132611595Y-80340200D01*
X131748528Y-79477133D01*
X131497411Y-79557188D01*
X131369513Y-79824639D01*
X131296250Y-80111903D01*
X131280436Y-80407940D01*
X123956926Y-80407940D01*
X123964164Y-80272460D01*
X123921920Y-79979026D01*
X123823241Y-79699472D01*
X123747189Y-79557188D01*
X123496072Y-79477133D01*
X122633005Y-80340200D01*
X122273795Y-80340200D01*
X121410728Y-79477133D01*
X121159611Y-79557188D01*
X121031713Y-79824639D01*
X120958450Y-80111903D01*
X120942636Y-80407940D01*
X111759392Y-80407940D01*
X111730212Y-80316411D01*
X111462761Y-80188513D01*
X111175497Y-80115250D01*
X110879460Y-80099436D01*
X110586026Y-80141680D01*
X110306472Y-80240359D01*
X110164188Y-80316411D01*
X110084133Y-80567528D01*
X108204000Y-80567528D01*
X108204000Y-79297528D01*
X121590333Y-79297528D01*
X122453400Y-80160595D01*
X123316467Y-79297528D01*
X131928133Y-79297528D01*
X132791200Y-80160595D01*
X133654267Y-79297528D01*
X133574212Y-79046411D01*
X133306761Y-78918513D01*
X133019497Y-78845250D01*
X132723460Y-78829436D01*
X132430026Y-78871680D01*
X132150472Y-78970359D01*
X132008188Y-79046411D01*
X131928133Y-79297528D01*
X123316467Y-79297528D01*
X123236412Y-79046411D01*
X122968961Y-78918513D01*
X122681697Y-78845250D01*
X122385660Y-78829436D01*
X122092226Y-78871680D01*
X121812672Y-78970359D01*
X121670388Y-79046411D01*
X121590333Y-79297528D01*
X108204000Y-79297528D01*
X108204000Y-71984872D01*
X111658933Y-71984872D01*
X111738988Y-72235989D01*
X112006439Y-72363887D01*
X112293703Y-72437150D01*
X112589740Y-72452964D01*
X112883174Y-72410720D01*
X113162728Y-72312041D01*
X113305012Y-72235989D01*
X113385067Y-71984872D01*
X112522000Y-71121805D01*
X111658933Y-71984872D01*
X108204000Y-71984872D01*
X108204000Y-71009940D01*
X111011236Y-71009940D01*
X111053480Y-71303374D01*
X111152159Y-71582928D01*
X111228211Y-71725212D01*
X111479328Y-71805267D01*
X112342395Y-70942200D01*
X112701605Y-70942200D01*
X113564672Y-71805267D01*
X113815789Y-71725212D01*
X113943687Y-71457761D01*
X114016950Y-71170497D01*
X114032764Y-70874460D01*
X113990520Y-70581026D01*
X113891841Y-70301472D01*
X113815789Y-70159188D01*
X113564672Y-70079133D01*
X112701605Y-70942200D01*
X112342395Y-70942200D01*
X111479328Y-70079133D01*
X111228211Y-70159188D01*
X111100313Y-70426639D01*
X111027050Y-70713903D01*
X111011236Y-71009940D01*
X108204000Y-71009940D01*
X108204000Y-62601845D01*
X110377973Y-60427872D01*
X113081333Y-60427872D01*
X113161388Y-60678989D01*
X113428839Y-60806887D01*
X113716103Y-60880150D01*
X114012140Y-60895964D01*
X114305574Y-60853720D01*
X114585128Y-60755041D01*
X114727412Y-60678989D01*
X114807467Y-60427872D01*
X113944400Y-59564805D01*
X113081333Y-60427872D01*
X110377973Y-60427872D01*
X111352905Y-59452940D01*
X112433636Y-59452940D01*
X112475880Y-59746374D01*
X112574559Y-60025928D01*
X112650611Y-60168212D01*
X112901728Y-60248267D01*
X113764795Y-59385200D01*
X114124005Y-59385200D01*
X114987072Y-60248267D01*
X115238189Y-60168212D01*
X115366087Y-59900761D01*
X115439350Y-59613497D01*
X115455164Y-59317460D01*
X115412920Y-59024026D01*
X115314241Y-58744472D01*
X115238189Y-58602188D01*
X114987072Y-58522133D01*
X114124005Y-59385200D01*
X113764795Y-59385200D01*
X112901728Y-58522133D01*
X112650611Y-58602188D01*
X112522713Y-58869639D01*
X112449450Y-59156903D01*
X112433636Y-59452940D01*
X111352905Y-59452940D01*
X112705361Y-58100485D01*
X112831013Y-58203605D01*
X112984549Y-58285672D01*
X113089326Y-58317456D01*
X113081333Y-58342528D01*
X113944400Y-59205595D01*
X114807467Y-58342528D01*
X114799474Y-58317456D01*
X114904251Y-58285672D01*
X115057787Y-58203605D01*
X115192362Y-58093162D01*
X115278502Y-57988200D01*
X119781061Y-57988200D01*
X119837200Y-57993729D01*
X119893339Y-57988200D01*
X119893346Y-57988200D01*
X120061267Y-57971661D01*
X120276723Y-57906303D01*
X120475289Y-57800168D01*
X120649333Y-57657333D01*
X120685127Y-57613718D01*
X121479046Y-56819800D01*
X122059098Y-56819800D01*
X122145238Y-56924762D01*
X122279813Y-57035205D01*
X122433349Y-57117272D01*
X122599945Y-57167808D01*
X122773199Y-57184872D01*
X124013201Y-57184872D01*
X124186455Y-57167808D01*
X124353051Y-57117272D01*
X124506587Y-57035205D01*
X124641162Y-56924762D01*
X124751605Y-56790187D01*
X124809633Y-56681625D01*
X124973818Y-56845810D01*
X125044201Y-56892838D01*
X125044200Y-57797764D01*
X121551765Y-61290200D01*
X120058659Y-61290200D01*
X120014999Y-61285900D01*
X119971339Y-61290200D01*
X119971333Y-61290200D01*
X119873924Y-61299794D01*
X119840724Y-61303064D01*
X119771622Y-61324026D01*
X119673149Y-61353897D01*
X119518709Y-61436447D01*
X119383341Y-61547541D01*
X119355501Y-61581464D01*
X117080459Y-63856506D01*
X117046542Y-63884341D01*
X117018707Y-63918258D01*
X117018705Y-63918260D01*
X116935448Y-64019709D01*
X116852898Y-64174148D01*
X116802064Y-64341726D01*
X116784900Y-64516000D01*
X116789201Y-64559670D01*
X116789200Y-67513200D01*
X113983964Y-67513200D01*
X113962472Y-67442349D01*
X113880405Y-67288813D01*
X113769962Y-67154238D01*
X113635387Y-67043795D01*
X113481851Y-66961728D01*
X113315255Y-66911192D01*
X113142001Y-66894128D01*
X111901999Y-66894128D01*
X111728745Y-66911192D01*
X111562149Y-66961728D01*
X111408613Y-67043795D01*
X111274038Y-67154238D01*
X111163595Y-67288813D01*
X111081528Y-67442349D01*
X111030992Y-67608945D01*
X111013928Y-67782199D01*
X111013928Y-69022201D01*
X111030992Y-69195455D01*
X111081528Y-69362051D01*
X111163595Y-69515587D01*
X111274038Y-69650162D01*
X111408613Y-69760605D01*
X111562149Y-69842672D01*
X111666926Y-69874456D01*
X111658933Y-69899528D01*
X112522000Y-70762595D01*
X113385067Y-69899528D01*
X113377074Y-69874456D01*
X113481851Y-69842672D01*
X113635387Y-69760605D01*
X113769962Y-69650162D01*
X113880405Y-69515587D01*
X113962472Y-69362051D01*
X113983964Y-69291200D01*
X117309965Y-69291200D01*
X119558706Y-71539942D01*
X119586541Y-71573859D01*
X119721909Y-71684953D01*
X119876349Y-71767503D01*
X119942258Y-71787496D01*
X120043924Y-71818336D01*
X120077124Y-71821606D01*
X120174533Y-71831200D01*
X120174539Y-71831200D01*
X120218199Y-71835500D01*
X120261859Y-71831200D01*
X122685162Y-71831200D01*
X122732190Y-71901582D01*
X122941818Y-72111210D01*
X123188315Y-72275914D01*
X123462208Y-72389364D01*
X123752970Y-72447200D01*
X124049430Y-72447200D01*
X124340192Y-72389364D01*
X124614085Y-72275914D01*
X124860582Y-72111210D01*
X125070210Y-71901582D01*
X125117238Y-71831200D01*
X133073762Y-71831200D01*
X133120790Y-71901582D01*
X133330418Y-72111210D01*
X133576915Y-72275914D01*
X133850808Y-72389364D01*
X134141570Y-72447200D01*
X134438030Y-72447200D01*
X134728792Y-72389364D01*
X135002685Y-72275914D01*
X135249182Y-72111210D01*
X135458810Y-71901582D01*
X135505838Y-71831200D01*
X136709940Y-71831200D01*
X136753600Y-71835500D01*
X136797260Y-71831200D01*
X136797267Y-71831200D01*
X136927874Y-71818336D01*
X137095451Y-71767503D01*
X137249891Y-71684953D01*
X137385259Y-71573859D01*
X137413099Y-71539936D01*
X138391836Y-70561200D01*
X142166962Y-70561200D01*
X142213990Y-70631582D01*
X142378175Y-70795767D01*
X142269613Y-70853795D01*
X142135038Y-70964238D01*
X142024595Y-71098813D01*
X141942528Y-71252349D01*
X141891992Y-71418945D01*
X141874928Y-71592199D01*
X141874928Y-72832201D01*
X141891992Y-73005455D01*
X141942528Y-73172051D01*
X142024595Y-73325587D01*
X142135038Y-73460162D01*
X142269613Y-73570605D01*
X142423149Y-73652672D01*
X142589745Y-73703208D01*
X142762999Y-73720272D01*
X144003001Y-73720272D01*
X144176255Y-73703208D01*
X144342851Y-73652672D01*
X144496387Y-73570605D01*
X144630962Y-73460162D01*
X144717102Y-73355200D01*
X145358861Y-73355200D01*
X145398464Y-73359100D01*
X134246927Y-84510638D01*
X134231672Y-84460349D01*
X134149605Y-84306813D01*
X134039162Y-84172238D01*
X133904587Y-84061795D01*
X133796025Y-84003767D01*
X133960210Y-83839582D01*
X134124914Y-83593085D01*
X134238364Y-83319192D01*
X134296200Y-83028430D01*
X134296200Y-82731970D01*
X134238364Y-82441208D01*
X134124914Y-82167315D01*
X133960210Y-81920818D01*
X133750582Y-81711190D01*
X133584894Y-81600481D01*
X133654267Y-81382872D01*
X132791200Y-80519805D01*
X131928133Y-81382872D01*
X131997506Y-81600481D01*
X131831818Y-81711190D01*
X131622190Y-81920818D01*
X131575162Y-81991200D01*
X128745467Y-81991200D01*
X128701800Y-81986899D01*
X128658133Y-81991200D01*
X128527526Y-82004064D01*
X128359949Y-82054897D01*
X128205509Y-82137447D01*
X128117600Y-82209592D01*
X128029691Y-82137447D01*
X127875251Y-82054897D01*
X127707674Y-82004064D01*
X127577067Y-81991200D01*
X127577059Y-81991200D01*
X127533399Y-81986900D01*
X127489739Y-81991200D01*
X123669438Y-81991200D01*
X123622410Y-81920818D01*
X123412782Y-81711190D01*
X123247094Y-81600481D01*
X123316467Y-81382872D01*
X122453400Y-80519805D01*
X121590333Y-81382872D01*
X121659706Y-81600481D01*
X121494018Y-81711190D01*
X121284390Y-81920818D01*
X121119686Y-82167315D01*
X121006236Y-82441208D01*
X120948400Y-82731970D01*
X120948400Y-83028430D01*
X121006236Y-83319192D01*
X121119686Y-83593085D01*
X121284390Y-83839582D01*
X121448575Y-84003767D01*
X121340013Y-84061795D01*
X121205438Y-84172238D01*
X121094995Y-84306813D01*
X121012928Y-84460349D01*
X120991436Y-84531200D01*
X118275036Y-84531200D01*
X117296299Y-83552464D01*
X117268459Y-83518541D01*
X117133091Y-83407447D01*
X116978651Y-83324897D01*
X116811074Y-83274064D01*
X116680467Y-83261200D01*
X116680460Y-83261200D01*
X116636800Y-83256900D01*
X116593140Y-83261200D01*
X112409164Y-83261200D01*
X112387672Y-83190349D01*
X112305605Y-83036813D01*
X112195162Y-82902238D01*
X112060587Y-82791795D01*
X111907051Y-82709728D01*
X111802274Y-82677944D01*
X111810267Y-82652872D01*
X110947200Y-81789805D01*
X110084133Y-82652872D01*
X110092126Y-82677944D01*
X109987349Y-82709728D01*
X109833813Y-82791795D01*
X109699238Y-82902238D01*
X109588795Y-83036813D01*
X109506728Y-83190349D01*
X109456192Y-83356945D01*
X109439128Y-83530199D01*
X109439128Y-84770201D01*
X109456192Y-84943455D01*
X109506728Y-85110051D01*
X109588795Y-85263587D01*
X109699238Y-85398162D01*
X109833813Y-85508605D01*
X109987349Y-85590672D01*
X110153945Y-85641208D01*
X110327199Y-85658272D01*
X111567201Y-85658272D01*
X111740455Y-85641208D01*
X111907051Y-85590672D01*
X112060587Y-85508605D01*
X112195162Y-85398162D01*
X112305605Y-85263587D01*
X112387672Y-85110051D01*
X112409164Y-85039200D01*
X116268565Y-85039200D01*
X117247304Y-86017940D01*
X117275141Y-86051859D01*
X117410509Y-86162953D01*
X117564949Y-86245503D01*
X117630858Y-86265496D01*
X117732524Y-86296336D01*
X117765724Y-86299606D01*
X117863133Y-86309200D01*
X117863139Y-86309200D01*
X117906799Y-86313500D01*
X117950459Y-86309200D01*
X120991436Y-86309200D01*
X121012928Y-86380051D01*
X121094995Y-86533587D01*
X121205438Y-86668162D01*
X121340013Y-86778605D01*
X121493549Y-86860672D01*
X121660145Y-86911208D01*
X121833399Y-86928272D01*
X123073401Y-86928272D01*
X123246655Y-86911208D01*
X123413251Y-86860672D01*
X123566787Y-86778605D01*
X123701362Y-86668162D01*
X123811805Y-86533587D01*
X123893872Y-86380051D01*
X123915364Y-86309200D01*
X124157225Y-86309200D01*
X124169912Y-86317677D01*
X124359435Y-86396180D01*
X124560631Y-86436200D01*
X124765769Y-86436200D01*
X124966965Y-86396180D01*
X125156488Y-86317677D01*
X125327054Y-86203708D01*
X125472108Y-86058654D01*
X125586077Y-85888088D01*
X125664580Y-85698565D01*
X125704600Y-85497369D01*
X125704600Y-85292231D01*
X125664580Y-85091035D01*
X125586077Y-84901512D01*
X125472108Y-84730946D01*
X125327054Y-84585892D01*
X125156488Y-84471923D01*
X124966965Y-84393420D01*
X124765769Y-84353400D01*
X124560631Y-84353400D01*
X124359435Y-84393420D01*
X124169912Y-84471923D01*
X124081198Y-84531200D01*
X123915364Y-84531200D01*
X123893872Y-84460349D01*
X123811805Y-84306813D01*
X123701362Y-84172238D01*
X123566787Y-84061795D01*
X123458225Y-84003767D01*
X123622410Y-83839582D01*
X123669438Y-83769200D01*
X126593600Y-83769200D01*
X126593601Y-87992730D01*
X126589300Y-88036400D01*
X126606464Y-88210674D01*
X126657298Y-88378252D01*
X126739848Y-88532691D01*
X126781585Y-88583547D01*
X126850942Y-88668059D01*
X126884859Y-88695894D01*
X127712105Y-89523141D01*
X127739941Y-89557059D01*
X127875309Y-89668153D01*
X128029749Y-89750703D01*
X128124358Y-89779402D01*
X128197325Y-89801536D01*
X128213925Y-89803171D01*
X128327933Y-89814400D01*
X128327940Y-89814400D01*
X128371600Y-89818700D01*
X128415260Y-89814400D01*
X135825563Y-89814400D01*
X135873872Y-89818652D01*
X135956296Y-89809669D01*
X136038874Y-89801536D01*
X136043329Y-89800185D01*
X136047959Y-89799680D01*
X136127046Y-89774790D01*
X136206451Y-89750703D01*
X136210562Y-89748506D01*
X136215000Y-89747109D01*
X136287661Y-89707296D01*
X136360891Y-89668153D01*
X136364496Y-89665195D01*
X136368574Y-89662960D01*
X136432108Y-89609707D01*
X136496259Y-89557059D01*
X136527029Y-89519566D01*
X140734917Y-85223400D01*
X147335928Y-85223400D01*
X147348188Y-85347882D01*
X147384498Y-85467580D01*
X147443463Y-85577894D01*
X147522815Y-85674585D01*
X147619506Y-85753937D01*
X147729820Y-85812902D01*
X147849518Y-85849212D01*
X147974000Y-85861472D01*
X148558250Y-85858400D01*
X148717000Y-85699650D01*
X148717000Y-84480400D01*
X148971000Y-84480400D01*
X148971000Y-85699650D01*
X149129750Y-85858400D01*
X149714000Y-85861472D01*
X149838482Y-85849212D01*
X149958180Y-85812902D01*
X150068494Y-85753937D01*
X150165185Y-85674585D01*
X150244537Y-85577894D01*
X150303502Y-85467580D01*
X150339812Y-85347882D01*
X150352072Y-85223400D01*
X150349000Y-84639150D01*
X150190250Y-84480400D01*
X148971000Y-84480400D01*
X148717000Y-84480400D01*
X147497750Y-84480400D01*
X147339000Y-84639150D01*
X147335928Y-85223400D01*
X140734917Y-85223400D01*
X148140625Y-77662328D01*
X148101248Y-77710309D01*
X148018698Y-77864748D01*
X147967864Y-78032326D01*
X147950700Y-78206600D01*
X147955001Y-78250270D01*
X147955000Y-80597362D01*
X147884618Y-80644390D01*
X147674990Y-80854018D01*
X147510286Y-81100515D01*
X147396836Y-81374408D01*
X147339000Y-81665170D01*
X147339000Y-81961630D01*
X147396836Y-82252392D01*
X147510286Y-82526285D01*
X147674990Y-82772782D01*
X147780678Y-82878470D01*
X147729820Y-82893898D01*
X147619506Y-82952863D01*
X147522815Y-83032215D01*
X147443463Y-83128906D01*
X147384498Y-83239220D01*
X147348188Y-83358918D01*
X147335928Y-83483400D01*
X147339000Y-84067650D01*
X147497750Y-84226400D01*
X148717000Y-84226400D01*
X148717000Y-84206400D01*
X148971000Y-84206400D01*
X148971000Y-84226400D01*
X150190250Y-84226400D01*
X150349000Y-84067650D01*
X150352072Y-83483400D01*
X150339812Y-83358918D01*
X150303502Y-83239220D01*
X150244537Y-83128906D01*
X150165185Y-83032215D01*
X150068494Y-82952863D01*
X149958180Y-82893898D01*
X149907322Y-82878470D01*
X150013010Y-82772782D01*
X150177714Y-82526285D01*
X150291164Y-82252392D01*
X150349000Y-81961630D01*
X150349000Y-81665170D01*
X150291164Y-81374408D01*
X150177714Y-81100515D01*
X150013010Y-80854018D01*
X149803382Y-80644390D01*
X149733000Y-80597362D01*
X149733000Y-78574835D01*
X150046699Y-78261136D01*
X150068098Y-78241074D01*
X150077553Y-78230282D01*
X150087695Y-78220140D01*
X150106303Y-78197466D01*
X152562648Y-75393760D01*
X152573063Y-75385251D01*
X152620244Y-75328019D01*
X152640249Y-75305185D01*
X152648039Y-75294303D01*
X152684455Y-75250129D01*
X152698890Y-75223266D01*
X152716640Y-75198470D01*
X152740242Y-75146312D01*
X152767346Y-75095872D01*
X152776263Y-75066708D01*
X152788834Y-75038927D01*
X152801808Y-74983161D01*
X152818549Y-74928407D01*
X152821605Y-74898065D01*
X152828515Y-74868364D01*
X152830360Y-74811140D01*
X152831701Y-74797829D01*
X152831768Y-74767485D01*
X152834159Y-74693337D01*
X152831961Y-74680064D01*
X152857103Y-63290641D01*
X152861500Y-63246000D01*
X152853015Y-63159852D01*
X152844718Y-63073661D01*
X152844434Y-63072716D01*
X152844336Y-63071725D01*
X152819120Y-62988598D01*
X152794255Y-62905972D01*
X152793791Y-62905099D01*
X152793502Y-62904147D01*
X152752573Y-62827575D01*
X152712046Y-62751350D01*
X152711420Y-62750584D01*
X152710952Y-62749708D01*
X152655822Y-62682532D01*
X152601251Y-62615737D01*
X152566642Y-62587206D01*
X148538299Y-58558864D01*
X148510459Y-58524941D01*
X148375091Y-58413847D01*
X148220651Y-58331297D01*
X148053074Y-58280464D01*
X147922467Y-58267600D01*
X147922460Y-58267600D01*
X147878800Y-58263300D01*
X147835140Y-58267600D01*
X147231036Y-58267600D01*
X147142200Y-58178765D01*
X147142200Y-56892838D01*
X147212582Y-56845810D01*
X147422210Y-56636182D01*
X147523200Y-56485040D01*
X147624190Y-56636182D01*
G37*
%TD.AperFunction*%
D17*
X129844190Y-56636182D02*
X129870200Y-56662192D01*
X129870201Y-61742051D01*
X129864671Y-61798200D01*
X129886739Y-62022267D01*
X129937661Y-62190131D01*
X129952098Y-62237723D01*
X130058233Y-62436289D01*
X130201068Y-62610333D01*
X130244678Y-62646123D01*
X133146800Y-65548246D01*
X133146801Y-67068097D01*
X133041838Y-67154238D01*
X132931395Y-67288813D01*
X132849328Y-67442349D01*
X132798792Y-67608945D01*
X132781728Y-67782199D01*
X132781728Y-69022201D01*
X132798792Y-69195455D01*
X132849328Y-69362051D01*
X132931395Y-69515587D01*
X133041838Y-69650162D01*
X133176413Y-69760605D01*
X133284975Y-69818633D01*
X133120790Y-69982818D01*
X133073762Y-70053200D01*
X125117238Y-70053200D01*
X125070210Y-69982818D01*
X124906025Y-69818633D01*
X125014587Y-69760605D01*
X125149162Y-69650162D01*
X125259605Y-69515587D01*
X125341672Y-69362051D01*
X125392208Y-69195455D01*
X125409272Y-69022201D01*
X125409272Y-67782199D01*
X125392208Y-67608945D01*
X125341672Y-67442349D01*
X125259605Y-67288813D01*
X125149162Y-67154238D01*
X125044200Y-67068098D01*
X125044200Y-65649845D01*
X129241723Y-61452323D01*
X129285333Y-61416533D01*
X129428168Y-61242489D01*
X129534303Y-61043923D01*
X129599661Y-60828467D01*
X129616200Y-60660546D01*
X129616200Y-60660540D01*
X129621729Y-60604401D01*
X129616200Y-60548262D01*
X129616200Y-56662192D01*
X129642210Y-56636182D01*
X129743200Y-56485040D01*
X129844190Y-56636182D01*
%TA.AperFunction,Conductor*%
D18*
G36*
X129844190Y-56636182D02*
G01*
X129870200Y-56662192D01*
X129870201Y-61742051D01*
X129864671Y-61798200D01*
X129886739Y-62022267D01*
X129937661Y-62190131D01*
X129952098Y-62237723D01*
X130058233Y-62436289D01*
X130201068Y-62610333D01*
X130244678Y-62646123D01*
X133146800Y-65548246D01*
X133146801Y-67068097D01*
X133041838Y-67154238D01*
X132931395Y-67288813D01*
X132849328Y-67442349D01*
X132798792Y-67608945D01*
X132781728Y-67782199D01*
X132781728Y-69022201D01*
X132798792Y-69195455D01*
X132849328Y-69362051D01*
X132931395Y-69515587D01*
X133041838Y-69650162D01*
X133176413Y-69760605D01*
X133284975Y-69818633D01*
X133120790Y-69982818D01*
X133073762Y-70053200D01*
X125117238Y-70053200D01*
X125070210Y-69982818D01*
X124906025Y-69818633D01*
X125014587Y-69760605D01*
X125149162Y-69650162D01*
X125259605Y-69515587D01*
X125341672Y-69362051D01*
X125392208Y-69195455D01*
X125409272Y-69022201D01*
X125409272Y-67782199D01*
X125392208Y-67608945D01*
X125341672Y-67442349D01*
X125259605Y-67288813D01*
X125149162Y-67154238D01*
X125044200Y-67068098D01*
X125044200Y-65649845D01*
X129241723Y-61452323D01*
X129285333Y-61416533D01*
X129428168Y-61242489D01*
X129534303Y-61043923D01*
X129599661Y-60828467D01*
X129616200Y-60660546D01*
X129616200Y-60660540D01*
X129621729Y-60604401D01*
X129616200Y-60548262D01*
X129616200Y-56662192D01*
X129642210Y-56636182D01*
X129743200Y-56485040D01*
X129844190Y-56636182D01*
G37*
%TD.AperFunction*%
D17*
X132384190Y-56636182D02*
X132410200Y-56662192D01*
X132410201Y-60472051D01*
X132404671Y-60528200D01*
X132426739Y-60752267D01*
X132475282Y-60912289D01*
X132492098Y-60967723D01*
X132598233Y-61166289D01*
X132649837Y-61229168D01*
X132699925Y-61290200D01*
X132741068Y-61340333D01*
X132784678Y-61376123D01*
X139309281Y-67900728D01*
X139345067Y-67944333D01*
X139388671Y-67980118D01*
X139388677Y-67980124D01*
X139486431Y-68060348D01*
X139519111Y-68087168D01*
X139717677Y-68193303D01*
X139867774Y-68238835D01*
X139933132Y-68258661D01*
X139955800Y-68260894D01*
X140101054Y-68275200D01*
X140101060Y-68275200D01*
X140157199Y-68280729D01*
X140213338Y-68275200D01*
X142397608Y-68275200D01*
X142423618Y-68301210D01*
X142574760Y-68402200D01*
X142423618Y-68503190D01*
X142213990Y-68712818D01*
X142166962Y-68783200D01*
X138067259Y-68783200D01*
X138023599Y-68778900D01*
X137979939Y-68783200D01*
X137979933Y-68783200D01*
X137882524Y-68792794D01*
X137849324Y-68796064D01*
X137747658Y-68826904D01*
X137681749Y-68846897D01*
X137527309Y-68929447D01*
X137391941Y-69040541D01*
X137364106Y-69074459D01*
X136385365Y-70053200D01*
X135505838Y-70053200D01*
X135458810Y-69982818D01*
X135294625Y-69818633D01*
X135403187Y-69760605D01*
X135537762Y-69650162D01*
X135648205Y-69515587D01*
X135730272Y-69362051D01*
X135780808Y-69195455D01*
X135797872Y-69022201D01*
X135797872Y-67782199D01*
X135780808Y-67608945D01*
X135730272Y-67442349D01*
X135648205Y-67288813D01*
X135537762Y-67154238D01*
X135432800Y-67068098D01*
X135432800Y-65130938D01*
X135438329Y-65074799D01*
X135432800Y-65018660D01*
X135432800Y-65018654D01*
X135416261Y-64850733D01*
X135350903Y-64635277D01*
X135244768Y-64436711D01*
X135101933Y-64262667D01*
X135058324Y-64226878D01*
X132156200Y-61324755D01*
X132156200Y-56662192D01*
X132182210Y-56636182D01*
X132283200Y-56485040D01*
X132384190Y-56636182D01*
%TA.AperFunction,Conductor*%
D18*
G36*
X132384190Y-56636182D02*
G01*
X132410200Y-56662192D01*
X132410201Y-60472051D01*
X132404671Y-60528200D01*
X132426739Y-60752267D01*
X132475282Y-60912289D01*
X132492098Y-60967723D01*
X132598233Y-61166289D01*
X132649837Y-61229168D01*
X132699925Y-61290200D01*
X132741068Y-61340333D01*
X132784678Y-61376123D01*
X139309281Y-67900728D01*
X139345067Y-67944333D01*
X139388671Y-67980118D01*
X139388677Y-67980124D01*
X139486431Y-68060348D01*
X139519111Y-68087168D01*
X139717677Y-68193303D01*
X139867774Y-68238835D01*
X139933132Y-68258661D01*
X139955800Y-68260894D01*
X140101054Y-68275200D01*
X140101060Y-68275200D01*
X140157199Y-68280729D01*
X140213338Y-68275200D01*
X142397608Y-68275200D01*
X142423618Y-68301210D01*
X142574760Y-68402200D01*
X142423618Y-68503190D01*
X142213990Y-68712818D01*
X142166962Y-68783200D01*
X138067259Y-68783200D01*
X138023599Y-68778900D01*
X137979939Y-68783200D01*
X137979933Y-68783200D01*
X137882524Y-68792794D01*
X137849324Y-68796064D01*
X137747658Y-68826904D01*
X137681749Y-68846897D01*
X137527309Y-68929447D01*
X137391941Y-69040541D01*
X137364106Y-69074459D01*
X136385365Y-70053200D01*
X135505838Y-70053200D01*
X135458810Y-69982818D01*
X135294625Y-69818633D01*
X135403187Y-69760605D01*
X135537762Y-69650162D01*
X135648205Y-69515587D01*
X135730272Y-69362051D01*
X135780808Y-69195455D01*
X135797872Y-69022201D01*
X135797872Y-67782199D01*
X135780808Y-67608945D01*
X135730272Y-67442349D01*
X135648205Y-67288813D01*
X135537762Y-67154238D01*
X135432800Y-67068098D01*
X135432800Y-65130938D01*
X135438329Y-65074799D01*
X135432800Y-65018660D01*
X135432800Y-65018654D01*
X135416261Y-64850733D01*
X135350903Y-64635277D01*
X135244768Y-64436711D01*
X135101933Y-64262667D01*
X135058324Y-64226878D01*
X132156200Y-61324755D01*
X132156200Y-56662192D01*
X132182210Y-56636182D01*
X132283200Y-56485040D01*
X132384190Y-56636182D01*
G37*
%TD.AperFunction*%
D17*
X127304190Y-56636182D02*
X127330200Y-56662192D01*
X127330201Y-60130953D01*
X123132682Y-64328473D01*
X123089067Y-64364267D01*
X122946232Y-64538312D01*
X122840097Y-64736878D01*
X122805559Y-64850734D01*
X122777059Y-64944687D01*
X122774739Y-64952334D01*
X122758200Y-65120255D01*
X122758200Y-65120261D01*
X122752671Y-65176400D01*
X122758200Y-65232539D01*
X122758201Y-67068097D01*
X122653238Y-67154238D01*
X122542795Y-67288813D01*
X122460728Y-67442349D01*
X122410192Y-67608945D01*
X122393128Y-67782199D01*
X122393128Y-69022201D01*
X122410192Y-69195455D01*
X122460728Y-69362051D01*
X122542795Y-69515587D01*
X122653238Y-69650162D01*
X122787813Y-69760605D01*
X122896375Y-69818633D01*
X122732190Y-69982818D01*
X122685162Y-70053200D01*
X120586436Y-70053200D01*
X118567200Y-68033965D01*
X118567200Y-64884235D01*
X120383235Y-63068200D01*
X121876340Y-63068200D01*
X121920000Y-63072500D01*
X121963660Y-63068200D01*
X121963667Y-63068200D01*
X122094274Y-63055336D01*
X122261851Y-63004503D01*
X122416291Y-62921953D01*
X122551659Y-62810859D01*
X122579499Y-62776936D01*
X126530943Y-58825493D01*
X126564859Y-58797659D01*
X126675953Y-58662291D01*
X126758503Y-58507851D01*
X126805393Y-58353272D01*
X126809336Y-58340275D01*
X126816917Y-58263300D01*
X126822200Y-58209667D01*
X126822200Y-58209660D01*
X126826500Y-58166000D01*
X126822200Y-58122340D01*
X126822200Y-56892838D01*
X126892582Y-56845810D01*
X127102210Y-56636182D01*
X127203200Y-56485040D01*
X127304190Y-56636182D01*
%TA.AperFunction,Conductor*%
D18*
G36*
X127304190Y-56636182D02*
G01*
X127330200Y-56662192D01*
X127330201Y-60130953D01*
X123132682Y-64328473D01*
X123089067Y-64364267D01*
X122946232Y-64538312D01*
X122840097Y-64736878D01*
X122805559Y-64850734D01*
X122777059Y-64944687D01*
X122774739Y-64952334D01*
X122758200Y-65120255D01*
X122758200Y-65120261D01*
X122752671Y-65176400D01*
X122758200Y-65232539D01*
X122758201Y-67068097D01*
X122653238Y-67154238D01*
X122542795Y-67288813D01*
X122460728Y-67442349D01*
X122410192Y-67608945D01*
X122393128Y-67782199D01*
X122393128Y-69022201D01*
X122410192Y-69195455D01*
X122460728Y-69362051D01*
X122542795Y-69515587D01*
X122653238Y-69650162D01*
X122787813Y-69760605D01*
X122896375Y-69818633D01*
X122732190Y-69982818D01*
X122685162Y-70053200D01*
X120586436Y-70053200D01*
X118567200Y-68033965D01*
X118567200Y-64884235D01*
X120383235Y-63068200D01*
X121876340Y-63068200D01*
X121920000Y-63072500D01*
X121963660Y-63068200D01*
X121963667Y-63068200D01*
X122094274Y-63055336D01*
X122261851Y-63004503D01*
X122416291Y-62921953D01*
X122551659Y-62810859D01*
X122579499Y-62776936D01*
X126530943Y-58825493D01*
X126564859Y-58797659D01*
X126675953Y-58662291D01*
X126758503Y-58507851D01*
X126805393Y-58353272D01*
X126809336Y-58340275D01*
X126816917Y-58263300D01*
X126822200Y-58209667D01*
X126822200Y-58209660D01*
X126826500Y-58166000D01*
X126822200Y-58122340D01*
X126822200Y-56892838D01*
X126892582Y-56845810D01*
X127102210Y-56636182D01*
X127203200Y-56485040D01*
X127304190Y-56636182D01*
G37*
%TD.AperFunction*%
%TD*%
M02*
